<svg width="13" height="13" viewBox="0 0 13 13" fill="none" xmlns="http://www.w3.org/2000/svg">
    <path
        d="M6.17071 4.27239C6.19424 4.28341 6.20185 4.30706 6.1876 4.32515C6.17345 4.34332 6.143 4.3492 6.11951 4.33821L0.489572 1.70339L0.479123 2.13424C0.478595 2.15547 0.456111 2.17229 0.42872 2.17197C0.401382 2.1716 0.37964 2.15421 0.38001 2.13301L0.392147 1.63809C0.391672 1.63074 0.39389 1.62303 0.399114 1.61629C0.413364 1.59812 0.443921 1.59224 0.467301 1.60322L6.17071 4.27239Z"
        fill="#7697E3" />
    <path
        d="M6.17243 4.27317C6.19533 4.2848 6.20156 4.30869 6.18636 4.32625C6.17132 4.34402 6.14044 4.34879 6.11775 4.33716L0.768365 1.59216L0.759816 1.76334C0.758708 1.78453 0.735697 1.80099 0.708306 1.80009C0.680968 1.79935 0.6597 1.78143 0.660808 1.76036L0.672736 1.52278C0.672736 1.51535 0.675374 1.50783 0.681074 1.5013C0.696168 1.48358 0.726989 1.47876 0.749736 1.49044L6.17243 4.27317Z"
        fill="#7697E3" />
    <path
        d="M6.17455 4.27437C6.19655 4.28699 6.2012 4.31104 6.18489 4.32807C6.16858 4.34501 6.1375 4.34857 6.11559 4.33595L1.05052 1.44117L1.04545 1.66339C1.04492 1.68462 1.02239 1.70145 0.995048 1.70112C0.967815 1.70084 0.945913 1.68336 0.946388 1.66225L0.953143 1.3673C0.952879 1.35901 0.955993 1.35055 0.96296 1.34341C0.979267 1.32638 1.01019 1.32283 1.03225 1.33544L6.17455 4.27437Z"
        fill="#7697E3" />
    <path
        d="M6.17841 4.2769C6.19873 4.29115 6.20021 4.31549 6.18179 4.33121C6.16337 4.34689 6.13192 4.34804 6.1116 4.33366C5.33484 3.78484 4.54167 3.25334 3.73282 2.73874C2.94825 2.23953 2.14732 1.75527 1.33088 1.28543L1.32576 1.52333C1.32544 1.54448 1.30291 1.5613 1.27551 1.56102C1.24818 1.56077 1.22643 1.54334 1.22675 1.52215L1.23351 1.21119C1.23314 1.20286 1.23635 1.19445 1.24322 1.18726C1.25947 1.17031 1.29061 1.16664 1.31246 1.17925C2.15614 1.66323 2.98419 2.16321 3.79578 2.67953C4.60801 3.19625 5.40239 3.72857 6.17841 4.2769Z"
        fill="#7697E3" />
    <path
        d="M6.17283 4.26954C6.1914 4.28526 6.19014 4.30951 6.16998 4.32385C6.14982 4.33814 6.11836 4.33724 6.09978 4.32164C5.39855 3.73027 4.66633 3.17071 3.90535 2.641C3.16876 2.12824 2.40483 1.64329 1.61572 1.18414L1.61149 1.35197C1.61113 1.37316 1.58859 1.39011 1.56125 1.3897C1.53391 1.38942 1.51212 1.37202 1.51249 1.35083L1.51845 1.1106C1.51782 1.10194 1.52093 1.09304 1.52816 1.08548C1.54457 1.06854 1.57582 1.06498 1.59767 1.07772C2.41622 1.55108 3.20834 2.05249 3.97175 2.58392C4.73489 3.11518 5.46932 3.67633 6.17283 4.26954Z"
        fill="#7697E3" />
    <path
        d="M6.17678 4.27343C6.19262 4.29066 6.18734 4.31463 6.16517 4.32684C6.14285 4.33917 6.11187 4.33513 6.09598 4.31786C5.52495 3.69831 4.91084 3.10106 4.21267 2.54738C3.53444 2.00959 2.77647 1.51271 1.90092 1.07647L1.89669 1.25267C1.89617 1.27387 1.87369 1.29069 1.84635 1.29041C1.81911 1.29012 1.79721 1.27268 1.79758 1.25153L1.80339 1.00938C1.80281 1.00162 1.80529 0.993619 1.81114 0.986595C1.82566 0.968669 1.85643 0.963318 1.87965 0.974629C2.79325 1.42291 3.58094 1.93654 4.2837 2.49389C4.98573 3.05051 5.6029 3.65086 6.17678 4.27343Z"
        fill="#7697E3" />
    <path
        d="M2.90333 1.55457C2.90196 1.57581 2.87869 1.59202 2.8513 1.59096C2.82396 1.58993 2.80295 1.57193 2.80432 1.55073L2.85631 0.761396C2.85768 0.740325 2.88106 0.724074 2.9084 0.725095C2.91895 0.725503 2.92866 0.728484 2.93653 0.73318C3.63648 1.15947 4.25797 1.66939 4.801 2.26293C5.14285 2.63665 5.45331 3.04336 5.73239 3.48304L4.45806 0.575351C4.44925 0.555342 4.46318 0.533497 4.4892 0.526678C4.51506 0.51994 4.5433 0.530719 4.55211 0.550769L6.19213 4.29296C6.20057 4.31235 6.18791 4.33359 6.1631 4.34114C6.13761 4.34882 6.1089 4.33898 6.09882 4.31925C5.71707 3.56528 5.25752 2.89457 4.72015 2.30712C4.20284 1.74147 3.6128 1.25252 2.95046 0.83992L2.90333 1.55457Z"
        fill="#7697E3" />
    <path
        d="M6.4064 4.33824C6.38292 4.34919 6.35241 4.34331 6.33827 4.32513C6.32407 4.30704 6.33167 4.28336 6.35516 4.27242L11.8981 1.67826C11.9216 1.66728 11.9521 1.67316 11.9663 1.69133C11.9716 1.69819 11.9739 1.70579 11.9734 1.71322L11.9851 2.19409C11.9855 2.21532 11.9637 2.23268 11.9363 2.233C11.9089 2.23341 11.8865 2.21642 11.886 2.19535L11.8759 1.77843L6.4064 4.33824Z"
        fill="#7697E3" />
    <path
        d="M6.40813 4.33715C6.38538 4.34879 6.35451 4.34401 6.33952 4.32629C6.32432 4.30865 6.33055 4.2848 6.3534 4.27321L11.6235 1.56876C11.6464 1.557 11.6771 1.56181 11.6923 1.57954C11.6979 1.58615 11.7006 1.59367 11.7005 1.60098L11.7122 1.83186C11.7132 1.85305 11.692 1.87085 11.6647 1.87163C11.6372 1.87245 11.6143 1.85603 11.6132 1.83488L11.6048 1.67035L6.40813 4.33715Z"
        fill="#7697E3" />
    <path
        d="M6.41029 4.33593C6.38839 4.34859 6.35725 4.345 6.34099 4.32805C6.32463 4.31102 6.32928 4.28697 6.35128 4.27435L11.349 1.41808C11.371 1.4055 11.402 1.40901 11.4183 1.42608C11.4252 1.43319 11.4283 1.44168 11.4281 1.44993L11.4347 1.73655C11.435 1.7577 11.4133 1.77514 11.3859 1.77542C11.3585 1.77583 11.336 1.75884 11.3357 1.73769L11.3307 1.52384L6.41029 4.33593Z"
        fill="#7697E3" />
    <path
        d="M6.41547 4.33248C6.39605 4.34739 6.3646 4.3471 6.34544 4.33208C6.32634 4.31697 6.32655 4.29263 6.34607 4.27781C7.1051 3.70204 7.87574 3.15452 8.66321 2.64793C9.45089 2.141 10.2548 1.67569 11.0793 1.26465C11.1023 1.25329 11.133 1.2584 11.1479 1.27632C11.1536 1.28327 11.1561 1.29103 11.1557 1.29866L11.1622 1.60023C11.1625 1.62146 11.1408 1.63886 11.1134 1.63914C11.086 1.63955 11.0635 1.62256 11.0631 1.60141L11.058 1.36677C10.2623 1.7672 9.48652 2.21773 8.72638 2.70681C7.94213 3.21128 7.1735 3.75757 6.41547 4.33248Z"
        fill="#7697E3" />
    <path
        d="M6.42657 4.32117C6.40852 4.33706 6.37717 4.33869 6.3567 4.32473C6.33601 4.31076 6.334 4.28663 6.35194 4.27066C7.02969 3.67019 7.72175 3.08866 8.45423 2.56009C9.18776 2.03087 9.96215 1.55457 10.8037 1.16558C10.8272 1.15472 10.8577 1.1606 10.8716 1.17877C10.8765 1.18502 10.8787 1.19196 10.8787 1.19878L10.884 1.41831C10.8846 1.43938 10.8627 1.45682 10.8353 1.45718C10.8079 1.45747 10.7855 1.44064 10.785 1.41949L10.7812 1.26559C9.97481 1.64506 9.2294 2.10572 8.52183 2.61628C7.79178 3.14301 7.10195 3.72266 6.42662 4.32117"
        fill="#7697E3" />
    <path
        d="M6.43004 4.31773C6.41447 4.33513 6.38365 4.33945 6.36117 4.32741C6.33864 4.3154 6.33288 4.29147 6.34845 4.27408C6.92846 3.62154 7.52261 2.98337 8.19704 2.42642C8.87289 1.86821 9.62901 1.39204 10.5312 1.06519C10.556 1.05621 10.5854 1.06454 10.597 1.08369C10.6002 1.08896 10.6017 1.09455 10.6017 1.10003L10.6065 1.30346C10.6069 1.3247 10.5852 1.34205 10.5578 1.34238C10.5304 1.34267 10.5079 1.32584 10.5075 1.30465L10.504 1.16009C9.64522 1.48122 8.92007 1.94155 8.26918 2.47906C7.59924 3.03225 7.00768 3.66768 6.43004 4.31769"
        fill="#7697E3" />
    <path
        d="M9.54695 1.53778C9.54842 1.55898 9.52726 1.57707 9.50003 1.57813C9.47269 1.57915 9.44926 1.5629 9.44794 1.54174L9.40899 0.94964C8.80402 1.40895 8.25372 1.91526 7.75393 2.46478C7.23245 3.03826 6.76591 3.65878 6.34945 4.32198C6.33763 4.34118 6.30792 4.34914 6.28327 4.33991C6.26037 4.33142 6.24992 4.31112 6.25778 4.29299L7.85173 0.656037C7.86043 0.635947 7.88867 0.625167 7.91453 0.631986C7.94055 0.638846 7.95448 0.660652 7.94567 0.680702L6.57381 3.8111C6.90994 3.32169 7.27546 2.85752 7.67276 2.42067C8.19751 1.84368 8.77789 1.31376 9.4186 0.835465C9.42678 0.829299 9.43796 0.825258 9.45042 0.824768C9.47765 0.823706 9.50108 0.839956 9.5024 0.861109L9.54695 1.53778Z"
        fill="#7697E3" />
    <path fill-rule="evenodd" clip-rule="evenodd"
        d="M0.321259 2.00146L6.18859 4.32443L6.18949 6.06668L2.11401 4.46073L2.12309 9.21272L6.206 10.7847V12.5781L0.321259 10.2689V2.00146Z"
        fill="#1781BA" stroke="#2C2E65" stroke-width="0.241024" stroke-miterlimit="22.926" stroke-linecap="round"
        stroke-linejoin="round" />
    <path fill-rule="evenodd" clip-rule="evenodd"
        d="M12.0129 2.00146L6.25454 4.32443L6.2538 6.06669L10.2535 4.46073L10.2502 6.24297L6.14735 7.80551L6.13748 9.14045L10.2477 7.59771L10.2446 9.21281L6.23749 10.7847V12.5781L12.0129 10.2689V2.00146Z"
        fill="#1781BA" stroke="#2C2E65" stroke-width="0.241024" stroke-miterlimit="22.926" stroke-linecap="round"
        stroke-linejoin="round" />
</svg>