<svg height="8" width="22" fill="none" viewBox="0 0 22 8" xmlns="http://www.w3.org/2000/svg">
    <mask height="8" id="path-1-outside-1_1_3548" width="21" fill="black" x="0.782684" y="-0.306396"
        maskUnits="userSpaceOnUse">
        <rect height="8" width="21" fill="white" x="0.782684" y="-0.306396" />
        <path
            d="M3.33031 6.6936C2.58233 6.6936 2.04525 6.53613 1.71906 6.2212C1.39288 5.90626 1.22978 5.45072 1.22978 4.85459V2.62753C1.22978 2.0314 1.39288 1.57586 1.71906 1.26093C2.04525 0.945988 2.58233 0.788519 3.33031 0.788519H5.30429V1.71646H3.33031C3.02099 1.71646 2.79041 1.78957 2.63857 1.93579C2.49235 2.08201 2.41924 2.31259 2.41924 2.62753V3.27709H4.93312V4.20503H2.41924V4.85459C2.41924 5.16391 2.49235 5.39448 2.63857 5.54633C2.79041 5.69255 3.02099 5.76566 3.33031 5.76566H5.32116V6.6936H3.33031ZM8.31147 2.62753C8.60391 2.62753 8.85136 2.70627 9.05382 2.86373L8.78388 3.7748C8.66577 3.69607 8.5533 3.63983 8.44644 3.60609C8.33959 3.57234 8.20743 3.55547 8.04996 3.55547C7.67878 3.55547 7.41165 3.80292 7.24855 4.29783V6.6936H6.1519V3.95196C6.1519 3.80011 6.12096 3.67639 6.0591 3.58078C6.00286 3.48517 5.89882 3.38113 5.74698 3.26865L6.48089 2.62753C6.67211 2.72876 6.82395 2.83561 6.93643 2.94809C7.04891 3.06057 7.13045 3.19554 7.18107 3.35301C7.29355 3.13368 7.44258 2.95934 7.62817 2.82999C7.81375 2.69502 8.04152 2.62753 8.31147 2.62753ZM11.0992 5.96812C11.3073 5.96812 11.476 5.94281 11.6053 5.8922C11.7347 5.83596 11.8753 5.74035 12.0271 5.60538L12.6767 6.19589C12.3505 6.59519 11.8247 6.79483 11.0992 6.79483C10.4524 6.79483 9.98565 6.67392 9.69883 6.43209C9.41202 6.18464 9.26861 5.78535 9.26861 5.2342V4.02788C9.26861 3.59484 9.42326 3.25459 9.73258 3.00714C10.0475 2.75407 10.4749 2.62753 11.0148 2.62753C11.5716 2.62753 12.0074 2.7625 12.3224 3.03245C12.6373 3.29677 12.7948 3.68482 12.7948 4.1966C12.7948 4.44405 12.7723 4.63526 12.7273 4.77023C12.6879 4.90521 12.6064 5.00644 12.4827 5.07392C12.3589 5.13579 12.179 5.16672 11.9428 5.16672H10.3568V5.24264C10.3568 5.72629 10.6043 5.96812 11.0992 5.96812ZM11.0148 3.45424C10.8067 3.45424 10.6436 3.51611 10.5255 3.63983C10.4131 3.75793 10.3568 3.9154 10.3568 4.11224V4.41593H11.3185C11.4647 4.41593 11.566 4.39343 11.6222 4.34844C11.6784 4.30345 11.7066 4.22472 11.7066 4.11224C11.7066 3.89853 11.6475 3.73544 11.5294 3.62296C11.4113 3.51048 11.2398 3.45424 11.0148 3.45424Z" />
        <path
            d="M14.3915 6.79483C14.1047 6.64861 13.9051 6.48271 13.7926 6.29712C13.6801 6.10591 13.6239 5.84158 13.6239 5.50415V1.69115C13.6239 1.53931 13.5929 1.41558 13.5311 1.31998C13.4748 1.22437 13.3708 1.12033 13.219 1.00785L13.9529 0.366727C14.2397 0.512948 14.4393 0.681665 14.5518 0.872877C14.6643 1.05847 14.7205 1.31998 14.7205 1.65741V5.47041C14.7205 5.62225 14.7486 5.74598 14.8049 5.84158C14.8668 5.93719 14.9736 6.04123 15.1254 6.15371L14.3915 6.79483ZM16.454 2.1973C16.2796 2.1973 16.1306 2.13544 16.0069 2.01172C15.8831 1.88799 15.8213 1.73896 15.8213 1.56462C15.8213 1.3959 15.8831 1.24968 16.0069 1.12595C16.1306 0.996603 16.2796 0.931928 16.454 0.931928C16.6227 0.931928 16.7689 0.996603 16.8926 1.12595C17.022 1.24968 17.0866 1.3959 17.0866 1.56462C17.0866 1.73896 17.022 1.88799 16.8926 2.01172C16.7689 2.13544 16.6227 2.1973 16.454 2.1973ZM16.6733 6.79483C16.3865 6.64861 16.1868 6.48271 16.0743 6.29712C15.9619 6.10591 15.9056 5.84158 15.9056 5.50415V2.72876H17.0023V5.47041C17.0023 5.62225 17.0304 5.74598 17.0866 5.84158C17.1485 5.93719 17.2554 6.04123 17.4072 6.15371L16.6733 6.79483ZM19.51 6.79483C19.1951 6.79483 18.9392 6.7639 18.7424 6.70204C18.5455 6.6458 18.3881 6.56707 18.27 6.46584C18.1519 6.36461 18.0281 6.22682 17.8988 6.05248L18.5821 5.47041C18.7283 5.65037 18.8633 5.77691 18.987 5.85002C19.1164 5.91751 19.2907 5.95125 19.51 5.95125C19.7519 5.95125 19.9262 5.92313 20.0331 5.86689C20.1455 5.80503 20.2018 5.70942 20.2018 5.58007C20.2018 5.45635 20.1315 5.36074 19.9909 5.29325C19.8559 5.22577 19.5888 5.15828 19.1895 5.09079C18.4021 4.93895 18.0085 4.51153 18.0085 3.80855C18.0085 3.44862 18.1519 3.1618 18.4387 2.94809C18.7255 2.73438 19.1079 2.62753 19.586 2.62753C19.9853 2.62753 20.3002 2.68658 20.5308 2.80468C20.767 2.91716 20.9582 3.08307 21.1044 3.3024L20.4295 3.87603C20.2833 3.72981 20.1512 3.62577 20.0331 3.56391C19.915 3.50205 19.7659 3.47111 19.586 3.47111C19.226 3.47111 19.0461 3.59765 19.0461 3.85073C19.0461 3.96883 19.1051 4.05881 19.2232 4.12067C19.3469 4.18254 19.5016 4.23034 19.6872 4.26408C20.0359 4.34282 20.3114 4.42436 20.5139 4.50872C20.722 4.58746 20.8935 4.71399 21.0285 4.88833C21.1691 5.06268 21.2394 5.30169 21.2394 5.60538C21.2394 6.0103 21.096 6.31118 20.8092 6.50802C20.5223 6.69923 20.0893 6.79483 19.51 6.79483Z" />
    </mask>
    <path
        d="M3.33031 6.6936C2.58233 6.6936 2.04525 6.53613 1.71906 6.2212C1.39288 5.90626 1.22978 5.45072 1.22978 4.85459V2.62753C1.22978 2.0314 1.39288 1.57586 1.71906 1.26093C2.04525 0.945988 2.58233 0.788519 3.33031 0.788519H5.30429V1.71646H3.33031C3.02099 1.71646 2.79041 1.78957 2.63857 1.93579C2.49235 2.08201 2.41924 2.31259 2.41924 2.62753V3.27709H4.93312V4.20503H2.41924V4.85459C2.41924 5.16391 2.49235 5.39448 2.63857 5.54633C2.79041 5.69255 3.02099 5.76566 3.33031 5.76566H5.32116V6.6936H3.33031ZM8.31147 2.62753C8.60391 2.62753 8.85136 2.70627 9.05382 2.86373L8.78388 3.7748C8.66577 3.69607 8.5533 3.63983 8.44644 3.60609C8.33959 3.57234 8.20743 3.55547 8.04996 3.55547C7.67878 3.55547 7.41165 3.80292 7.24855 4.29783V6.6936H6.1519V3.95196C6.1519 3.80011 6.12096 3.67639 6.0591 3.58078C6.00286 3.48517 5.89882 3.38113 5.74698 3.26865L6.48089 2.62753C6.67211 2.72876 6.82395 2.83561 6.93643 2.94809C7.04891 3.06057 7.13045 3.19554 7.18107 3.35301C7.29355 3.13368 7.44258 2.95934 7.62817 2.82999C7.81375 2.69502 8.04152 2.62753 8.31147 2.62753ZM11.0992 5.96812C11.3073 5.96812 11.476 5.94281 11.6053 5.8922C11.7347 5.83596 11.8753 5.74035 12.0271 5.60538L12.6767 6.19589C12.3505 6.59519 11.8247 6.79483 11.0992 6.79483C10.4524 6.79483 9.98565 6.67392 9.69883 6.43209C9.41202 6.18464 9.26861 5.78535 9.26861 5.2342V4.02788C9.26861 3.59484 9.42326 3.25459 9.73258 3.00714C10.0475 2.75407 10.4749 2.62753 11.0148 2.62753C11.5716 2.62753 12.0074 2.7625 12.3224 3.03245C12.6373 3.29677 12.7948 3.68482 12.7948 4.1966C12.7948 4.44405 12.7723 4.63526 12.7273 4.77023C12.6879 4.90521 12.6064 5.00644 12.4827 5.07392C12.3589 5.13579 12.179 5.16672 11.9428 5.16672H10.3568V5.24264C10.3568 5.72629 10.6043 5.96812 11.0992 5.96812ZM11.0148 3.45424C10.8067 3.45424 10.6436 3.51611 10.5255 3.63983C10.4131 3.75793 10.3568 3.9154 10.3568 4.11224V4.41593H11.3185C11.4647 4.41593 11.566 4.39343 11.6222 4.34844C11.6784 4.30345 11.7066 4.22472 11.7066 4.11224C11.7066 3.89853 11.6475 3.73544 11.5294 3.62296C11.4113 3.51048 11.2398 3.45424 11.0148 3.45424Z"
        fill="#D9ECFF" />
    <path
        d="M14.3915 6.79483C14.1047 6.64861 13.9051 6.48271 13.7926 6.29712C13.6801 6.10591 13.6239 5.84158 13.6239 5.50415V1.69115C13.6239 1.53931 13.5929 1.41558 13.5311 1.31998C13.4748 1.22437 13.3708 1.12033 13.219 1.00785L13.9529 0.366727C14.2397 0.512948 14.4393 0.681665 14.5518 0.872877C14.6643 1.05847 14.7205 1.31998 14.7205 1.65741V5.47041C14.7205 5.62225 14.7486 5.74598 14.8049 5.84158C14.8668 5.93719 14.9736 6.04123 15.1254 6.15371L14.3915 6.79483ZM16.454 2.1973C16.2796 2.1973 16.1306 2.13544 16.0069 2.01172C15.8831 1.88799 15.8213 1.73896 15.8213 1.56462C15.8213 1.3959 15.8831 1.24968 16.0069 1.12595C16.1306 0.996603 16.2796 0.931928 16.454 0.931928C16.6227 0.931928 16.7689 0.996603 16.8926 1.12595C17.022 1.24968 17.0866 1.3959 17.0866 1.56462C17.0866 1.73896 17.022 1.88799 16.8926 2.01172C16.7689 2.13544 16.6227 2.1973 16.454 2.1973ZM16.6733 6.79483C16.3865 6.64861 16.1868 6.48271 16.0743 6.29712C15.9619 6.10591 15.9056 5.84158 15.9056 5.50415V2.72876H17.0023V5.47041C17.0023 5.62225 17.0304 5.74598 17.0866 5.84158C17.1485 5.93719 17.2554 6.04123 17.4072 6.15371L16.6733 6.79483ZM19.51 6.79483C19.1951 6.79483 18.9392 6.7639 18.7424 6.70204C18.5455 6.6458 18.3881 6.56707 18.27 6.46584C18.1519 6.36461 18.0281 6.22682 17.8988 6.05248L18.5821 5.47041C18.7283 5.65037 18.8633 5.77691 18.987 5.85002C19.1164 5.91751 19.2907 5.95125 19.51 5.95125C19.7519 5.95125 19.9262 5.92313 20.0331 5.86689C20.1455 5.80503 20.2018 5.70942 20.2018 5.58007C20.2018 5.45635 20.1315 5.36074 19.9909 5.29325C19.8559 5.22577 19.5888 5.15828 19.1895 5.09079C18.4021 4.93895 18.0085 4.51153 18.0085 3.80855C18.0085 3.44862 18.1519 3.1618 18.4387 2.94809C18.7255 2.73438 19.1079 2.62753 19.586 2.62753C19.9853 2.62753 20.3002 2.68658 20.5308 2.80468C20.767 2.91716 20.9582 3.08307 21.1044 3.3024L20.4295 3.87603C20.2833 3.72981 20.1512 3.62577 20.0331 3.56391C19.915 3.50205 19.7659 3.47111 19.586 3.47111C19.226 3.47111 19.0461 3.59765 19.0461 3.85073C19.0461 3.96883 19.1051 4.05881 19.2232 4.12067C19.3469 4.18254 19.5016 4.23034 19.6872 4.26408C20.0359 4.34282 20.3114 4.42436 20.5139 4.50872C20.722 4.58746 20.8935 4.71399 21.0285 4.88833C21.1691 5.06268 21.2394 5.30169 21.2394 5.60538C21.2394 6.0103 21.096 6.31118 20.8092 6.50802C20.5223 6.69923 20.0893 6.79483 19.51 6.79483Z"
        fill="#1781BA" />
    <path
        d="M1.71906 1.26093L1.55165 1.08753H1.55165L1.71906 1.26093ZM5.30429 0.788519H5.54532V0.547495H5.30429V0.788519ZM5.30429 1.71646V1.95748H5.54532V1.71646H5.30429ZM2.63857 1.93579L2.47135 1.76215L2.46814 1.76536L2.63857 1.93579ZM2.41924 3.27709H2.17821V3.51811H2.41924V3.27709ZM4.93312 3.27709H5.17414V3.03607H4.93312V3.27709ZM4.93312 4.20503V4.44606H5.17414V4.20503H4.93312ZM2.41924 4.20503V3.96401H2.17821V4.20503H2.41924ZM2.63857 5.54633L2.46483 5.71363L2.47138 5.71994L2.63857 5.54633ZM5.32116 5.76566H5.56219V5.52464H5.32116V5.76566ZM5.32116 6.6936V6.93463H5.56219V6.6936H5.32116ZM3.33031 6.45258C2.60645 6.45258 2.14616 6.29853 1.88648 6.0478L1.55165 6.39459C1.94434 6.77374 2.55821 6.93463 3.33031 6.93463V6.45258ZM1.88648 6.0478C1.62082 5.79131 1.47081 5.40682 1.47081 4.85459H0.98876C0.98876 5.49463 1.16493 6.02121 1.55165 6.39459L1.88648 6.0478ZM1.47081 4.85459V2.62753H0.98876V4.85459H1.47081ZM1.47081 2.62753C1.47081 2.0753 1.62082 1.69081 1.88648 1.43432L1.55165 1.08753C1.16493 1.46092 0.98876 1.9875 0.98876 2.62753H1.47081ZM1.88648 1.43432C2.14616 1.18359 2.60645 1.02954 3.33031 1.02954V0.547495C2.55821 0.547495 1.94434 0.708383 1.55165 1.08753L1.88648 1.43432ZM3.33031 1.02954H5.30429V0.547495H3.33031V1.02954ZM5.06327 0.788519V1.71646H5.54532V0.788519H5.06327ZM5.30429 1.47544H3.33031V1.95748H5.30429V1.47544ZM3.33031 1.47544C2.98752 1.47544 2.68535 1.55614 2.47138 1.76218L2.80575 2.10941C2.89548 2.023 3.05446 1.95748 3.33031 1.95748V1.47544ZM2.46814 1.76536C2.25785 1.97565 2.17821 2.28151 2.17821 2.62753H2.66026C2.66026 2.34368 2.72684 2.18838 2.809 2.10622L2.46814 1.76536ZM2.17821 2.62753V3.27709H2.66026V2.62753H2.17821ZM2.41924 3.51811H4.93312V3.03607H2.41924V3.51811ZM4.69209 3.27709V4.20503H5.17414V3.27709H4.69209ZM4.93312 3.96401H2.41924V4.44606H4.93312V3.96401ZM2.17821 4.20503V4.85459H2.66026V4.20503H2.17821ZM2.17821 4.85459C2.17821 5.19737 2.25891 5.49955 2.46495 5.71351L2.81218 5.37915C2.72578 5.28942 2.66026 5.13044 2.66026 4.85459H2.17821ZM2.47138 5.71994C2.68535 5.92598 2.98752 6.00669 3.33031 6.00669V5.52464C3.05446 5.52464 2.89548 5.45912 2.80575 5.37272L2.47138 5.71994ZM3.33031 6.00669H5.32116V5.52464H3.33031V6.00669ZM5.08014 5.76566V6.6936H5.56219V5.76566H5.08014ZM5.32116 6.45258H3.33031V6.93463H5.32116V6.45258ZM9.05382 2.86373L9.28492 2.93221L9.33165 2.77448L9.2018 2.67348L9.05382 2.86373ZM8.78388 3.7748L8.65018 3.97535L8.92212 4.15664L9.01497 3.84328L8.78388 3.7748ZM8.44644 3.60609L8.51902 3.37625V3.37625L8.44644 3.60609ZM7.24855 4.29783L7.01964 4.22239L7.00753 4.25914V4.29783H7.24855ZM7.24855 6.6936V6.93463H7.48958V6.6936H7.24855ZM6.1519 6.6936H5.91087V6.93463H6.1519V6.6936ZM6.0591 3.58078L5.85117 3.70309L5.85674 3.71172L6.0591 3.58078ZM5.74698 3.26865L5.58841 3.08714L5.36292 3.28411L5.60351 3.46233L5.74698 3.26865ZM6.48089 2.62753L6.59367 2.41452L6.44716 2.33696L6.32233 2.44601L6.48089 2.62753ZM6.93643 2.94809L7.10686 2.77766L6.93643 2.94809ZM7.18107 3.35301L6.95161 3.42677L7.12981 3.98117L7.39553 3.463L7.18107 3.35301ZM7.62817 2.82999L7.76601 3.02777L7.76993 3.02492L7.62817 2.82999ZM8.31147 2.86855C8.5582 2.86855 8.75152 2.93396 8.90585 3.05399L9.2018 2.67348C8.9512 2.47857 8.64963 2.38651 8.31147 2.38651V2.86855ZM8.82273 2.79526L8.55278 3.70633L9.01497 3.84328L9.28492 2.93221L8.82273 2.79526ZM8.91757 3.57426C8.78536 3.48612 8.65239 3.41837 8.51902 3.37625L8.37386 3.83592C8.4542 3.86129 8.54619 3.90602 8.65018 3.97535L8.91757 3.57426ZM8.51902 3.37625C8.38132 3.33277 8.2229 3.31445 8.04996 3.31445V3.7965C8.19196 3.7965 8.29786 3.81192 8.37386 3.83592L8.51902 3.37625ZM8.04996 3.31445C7.80494 3.31445 7.5865 3.39837 7.40743 3.56424C7.23378 3.7251 7.10879 3.95187 7.01964 4.22239L7.47747 4.37326C7.55141 4.14888 7.64154 4.00447 7.73502 3.91788C7.82308 3.83631 7.9238 3.7965 8.04996 3.7965V3.31445ZM7.00753 4.29783V6.6936H7.48958V4.29783H7.00753ZM7.24855 6.45258H6.1519V6.93463H7.24855V6.45258ZM6.39292 6.6936V3.95196H5.91087V6.6936H6.39292ZM6.39292 3.95196C6.39292 3.76879 6.35569 3.59547 6.26146 3.44984L5.85674 3.71172C5.88624 3.7573 5.91087 3.83144 5.91087 3.95196H6.39292ZM6.26685 3.45858C6.18655 3.32207 6.05254 3.19506 5.89044 3.07498L5.60351 3.46233C5.7451 3.56721 5.81918 3.64828 5.85135 3.70298L6.26685 3.45858ZM5.90554 3.45017L6.63946 2.80905L6.32233 2.44601L5.58841 3.08714L5.90554 3.45017ZM6.36812 2.84054C6.54519 2.93429 6.67538 3.0279 6.766 3.11852L7.10686 2.77766C6.97252 2.64333 6.79902 2.52323 6.59367 2.41452L6.36812 2.84054ZM6.766 3.11852C6.85031 3.20283 6.91223 3.30426 6.95161 3.42677L7.41053 3.27926C7.34868 3.08683 7.24751 2.91831 7.10686 2.77766L6.766 3.11852ZM7.39553 3.463C7.49167 3.27553 7.61558 3.13255 7.76598 3.02773L7.49035 2.63226C7.26958 2.78613 7.09542 2.99183 6.9666 3.24303L7.39553 3.463ZM7.76993 3.02492C7.90742 2.92493 8.0832 2.86855 8.31147 2.86855V2.38651C7.99985 2.38651 7.72009 2.46511 7.4864 2.63507L7.76993 3.02492ZM11.6053 5.8922L11.6932 6.11681L11.7014 6.11323L11.6053 5.8922ZM12.0271 5.60538L12.1893 5.42704L12.0289 5.28129L11.867 5.42524L12.0271 5.60538ZM12.6767 6.19589L12.8633 6.34837L13.008 6.17133L12.8388 6.01755L12.6767 6.19589ZM9.69883 6.43209L9.54138 6.6146L9.54347 6.61636L9.69883 6.43209ZM9.73258 3.00714L9.88314 3.19535L9.88355 3.19502L9.73258 3.00714ZM12.3224 3.03245L12.1655 3.21546L12.1674 3.21707L12.3224 3.03245ZM12.7273 4.77023L12.4985 4.69396L12.4959 4.70275L12.7273 4.77023ZM12.4827 5.07392L12.5905 5.28964L12.5981 5.28552L12.4827 5.07392ZM10.3568 5.16672V4.92569H10.1158V5.16672H10.3568ZM10.5255 3.63983L10.3512 3.47341L10.351 3.47361L10.5255 3.63983ZM10.3568 4.41593H10.1158V4.65695H10.3568V4.41593ZM11.6222 4.34844L11.4716 4.16023L11.4716 4.16023L11.6222 4.34844ZM11.5294 3.62296L11.6956 3.44842L11.5294 3.62296ZM11.0992 6.20915C11.3238 6.20915 11.5255 6.18225 11.6932 6.11665L11.5175 5.66775C11.4265 5.70338 11.2907 5.7271 11.0992 5.7271V6.20915ZM11.7014 6.11323C11.862 6.04344 12.024 5.93064 12.1873 5.78552L11.867 5.42524C11.7266 5.55007 11.6074 5.62848 11.5092 5.67116L11.7014 6.11323ZM11.865 5.78372L12.5146 6.37423L12.8388 6.01755L12.1893 5.42704L11.865 5.78372ZM12.49 6.04341C12.2261 6.3665 11.7832 6.55381 11.0992 6.55381V7.03586C11.8662 7.03586 12.4749 6.82387 12.8633 6.34837L12.49 6.04341ZM11.0992 6.55381C10.4719 6.55381 10.0756 6.43451 9.8542 6.24782L9.54347 6.61636C9.89569 6.91333 10.433 7.03586 11.0992 7.03586V6.55381ZM9.85628 6.2496C9.64307 6.06565 9.50963 5.74791 9.50963 5.2342H9.02758C9.02758 5.82278 9.18096 6.30363 9.54139 6.61459L9.85628 6.2496ZM9.50963 5.2342V4.02788H9.02758V5.2342H9.50963ZM9.50963 4.02788C9.50963 3.66026 9.63683 3.3924 9.88314 3.19535L9.58201 2.81894C9.2097 3.11679 9.02758 3.52942 9.02758 4.02788H9.50963ZM9.88355 3.19502C10.1432 2.98637 10.5114 2.86855 11.0148 2.86855V2.38651C10.4385 2.38651 9.95182 2.52177 9.5816 2.81926L9.88355 3.19502ZM11.0148 2.86855C11.5339 2.86855 11.9073 2.9941 12.1655 3.21545L12.4792 2.84945C12.1076 2.5309 11.6093 2.38651 11.0148 2.38651V2.86855ZM12.1674 3.21707C12.4148 3.42466 12.5538 3.73708 12.5538 4.1966H13.0358C13.0358 3.63257 12.8599 3.16889 12.4773 2.84783L12.1674 3.21707ZM12.5538 4.1966C12.5538 4.43431 12.5315 4.59531 12.4986 4.69401L12.956 4.84645C13.013 4.67521 13.0358 4.45379 13.0358 4.1966H12.5538ZM12.4959 4.70275C12.4745 4.77601 12.4348 4.82546 12.3672 4.86233L12.5981 5.28552C12.7779 5.18741 12.9013 5.03441 12.9587 4.83772L12.4959 4.70275ZM12.3749 4.85835C12.3004 4.89557 12.1645 4.92569 11.9428 4.92569V5.40774C12.1934 5.40774 12.4174 5.376 12.5904 5.2895L12.3749 4.85835ZM11.9428 4.92569H10.3568V5.40774H11.9428V4.92569ZM10.1158 5.16672V5.24264H10.5979V5.16672H10.1158ZM10.1158 5.24264C10.1158 5.52304 10.1879 5.77729 10.374 5.95913C10.559 6.13996 10.816 6.20915 11.0992 6.20915V5.7271C10.8875 5.7271 10.7733 5.67537 10.7109 5.61437C10.6495 5.55438 10.5979 5.44589 10.5979 5.24264H10.1158ZM11.0148 3.21322C10.7562 3.21322 10.5244 3.29199 10.3512 3.47341L10.6999 3.80625C10.7629 3.74022 10.8573 3.69527 11.0148 3.69527V3.21322ZM10.351 3.47361C10.1873 3.64548 10.1158 3.86709 10.1158 4.11224H10.5979C10.5979 3.96371 10.6388 3.87039 10.7001 3.80605L10.351 3.47361ZM10.1158 4.11224V4.41593H10.5979V4.11224H10.1158ZM10.3568 4.65695H11.3185V4.1749H10.3568V4.65695ZM11.3185 4.65695C11.4723 4.65695 11.6476 4.63676 11.7728 4.53665L11.4716 4.16023C11.4821 4.1519 11.4812 4.15725 11.4518 4.16377C11.4238 4.17001 11.3806 4.1749 11.3185 4.1749V4.65695ZM11.7728 4.53665C11.9122 4.42513 11.9476 4.25648 11.9476 4.11224H11.4655C11.4655 4.14978 11.4607 4.16849 11.4585 4.17458C11.457 4.17873 11.4595 4.16991 11.4716 4.16023L11.7728 4.53665ZM11.9476 4.11224C11.9476 3.85401 11.8751 3.61932 11.6956 3.44842L11.3632 3.79749C11.4199 3.85155 11.4655 3.94305 11.4655 4.11224H11.9476ZM11.6956 3.44842C11.518 3.27928 11.2779 3.21322 11.0148 3.21322V3.69527C11.2017 3.69527 11.3046 3.74168 11.3632 3.79749L11.6956 3.44842ZM14.3915 6.79483L14.2821 7.00956L14.4273 7.08361L14.5501 6.97635L14.3915 6.79483ZM13.7926 6.29712L13.5848 6.41933L13.5865 6.42204L13.7926 6.29712ZM13.5311 1.31998L13.3231 1.44229L13.3287 1.45091L13.5311 1.31998ZM13.219 1.00785L13.0604 0.826333L12.8349 1.02331L13.0755 1.20153L13.219 1.00785ZM13.9529 0.366727L14.0623 0.151997L13.9171 0.0779474L13.7943 0.185209L13.9529 0.366727ZM14.5518 0.872877L14.344 0.995092L14.3457 0.9978L14.5518 0.872877ZM14.8049 5.84158L14.597 5.9639L14.6025 5.97252L14.8049 5.84158ZM15.1254 6.15371L15.284 6.33523L15.5095 6.13825L15.2689 5.96003L15.1254 6.15371ZM14.501 6.5801C14.2361 6.44503 14.0793 6.30517 13.9987 6.1722L13.5865 6.42204C13.7308 6.66024 13.9734 6.85219 14.2821 7.00956L14.501 6.5801ZM14.0003 6.17492C13.9182 6.03521 13.8649 5.81926 13.8649 5.50415H13.3828C13.3828 5.86391 13.4421 6.17661 13.5848 6.41932L14.0003 6.17492ZM13.8649 5.50415V1.69115H13.3828V5.50415H13.8649ZM13.8649 1.69115C13.8649 1.50798 13.8277 1.33467 13.7334 1.18904L13.3287 1.45091C13.3582 1.4965 13.3828 1.57063 13.3828 1.69115H13.8649ZM13.7388 1.19777C13.6585 1.06126 13.5245 0.934252 13.3624 0.814174L13.0755 1.20153C13.2171 1.30641 13.2912 1.38748 13.3233 1.44218L13.7388 1.19777ZM13.3775 1.18937L14.1114 0.548245L13.7943 0.185209L13.0604 0.826333L13.3775 1.18937ZM13.8434 0.581456C14.1068 0.715727 14.2631 0.857488 14.3441 0.995081L14.7596 0.750673C14.6155 0.505841 14.3726 0.310169 14.0623 0.151997L13.8434 0.581456ZM14.3457 0.9978C14.426 1.13031 14.4795 1.34162 14.4795 1.65741H14.9616C14.9616 1.29833 14.9026 0.98662 14.7579 0.747954L14.3457 0.9978ZM14.4795 1.65741V5.47041H14.9616V1.65741H14.4795ZM14.4795 5.47041C14.4795 5.65001 14.5125 5.81992 14.5971 5.96379L15.0126 5.71938C14.9848 5.67203 14.9616 5.59449 14.9616 5.47041H14.4795ZM14.6025 5.97252C14.6871 6.1032 14.8202 6.22752 14.982 6.34739L15.2689 5.96003C15.127 5.85495 15.0464 5.77118 15.0072 5.71065L14.6025 5.97252ZM14.9669 5.97219L14.233 6.61332L14.5501 6.97635L15.284 6.33523L14.9669 5.97219ZM16.0069 2.01172L15.8364 2.18214V2.18214L16.0069 2.01172ZM16.0069 1.12595L16.1773 1.29642L16.181 1.29255L16.0069 1.12595ZM16.8926 1.12595L16.7183 1.29272L16.726 1.30013L16.8926 1.12595ZM16.8926 2.01172L16.726 1.8375L16.7222 1.84129L16.8926 2.01172ZM16.6733 6.79483L16.5638 7.00956L16.7091 7.08361L16.8319 6.97635L16.6733 6.79483ZM16.0743 6.29712L15.8666 6.41933L15.8682 6.42204L16.0743 6.29712ZM15.9056 2.72876V2.48774H15.6646V2.72876H15.9056ZM17.0023 2.72876H17.2433V2.48774H17.0023V2.72876ZM17.0866 5.84158L16.8787 5.9639L16.8843 5.97252L17.0866 5.84158ZM17.4072 6.15371L17.5658 6.33523L17.7913 6.13825L17.5507 5.96003L17.4072 6.15371ZM16.454 1.95628C16.3438 1.95628 16.256 1.92 16.1773 1.84129L15.8364 2.18214C16.0052 2.35089 16.2154 2.43833 16.454 2.43833V1.95628ZM16.1773 1.84129C16.0986 1.76258 16.0623 1.67477 16.0623 1.56462H15.5802C15.5802 1.80314 15.6677 2.0134 15.8364 2.18214L16.1773 1.84129ZM16.0623 1.56462C16.0623 1.46242 16.0969 1.37678 16.1773 1.29638L15.8364 0.955523C15.6694 1.12258 15.5802 1.32938 15.5802 1.56462H16.0623ZM16.181 1.29255C16.2607 1.20931 16.3474 1.17295 16.454 1.17295V0.690904C16.2119 0.690904 16.0005 0.783896 15.8327 0.959351L16.181 1.29255ZM16.454 1.17295C16.5525 1.17295 16.6371 1.2075 16.7185 1.29255L17.0668 0.959351C16.9007 0.785702 16.6928 0.690904 16.454 0.690904V1.17295ZM16.726 1.30013C16.8111 1.38148 16.8456 1.46603 16.8456 1.56462H17.3277C17.3277 1.32577 17.2329 1.11788 17.0592 0.951778L16.726 1.30013ZM16.8456 1.56462C16.8456 1.67122 16.8093 1.75792 16.726 1.83754L17.0592 2.18589C17.2347 2.01806 17.3277 1.80669 17.3277 1.56462H16.8456ZM16.7222 1.84129C16.6418 1.92168 16.5562 1.95628 16.454 1.95628V2.43833C16.6892 2.43833 16.896 2.3492 17.0631 2.18214L16.7222 1.84129ZM16.7828 6.5801C16.5178 6.44503 16.3611 6.30517 16.2805 6.1722L15.8682 6.42204C16.0126 6.66024 16.2551 6.85219 16.5638 7.00956L16.7828 6.5801ZM16.2821 6.17492C16.1999 6.03521 16.1467 5.81926 16.1467 5.50415H15.6646C15.6646 5.86391 15.7238 6.17661 15.8666 6.41932L16.2821 6.17492ZM16.1467 5.50415V2.72876H15.6646V5.50415H16.1467ZM15.9056 2.96978H17.0023V2.48774H15.9056V2.96978ZM16.7613 2.72876V5.47041H17.2433V2.72876H16.7613ZM16.7613 5.47041C16.7613 5.65001 16.7943 5.81992 16.8789 5.96379L17.2944 5.71938C17.2665 5.67203 17.2433 5.59449 17.2433 5.47041H16.7613ZM16.8843 5.97252C16.9688 6.1032 17.1019 6.22752 17.2637 6.34739L17.5507 5.96003C17.4088 5.85495 17.3282 5.77118 17.289 5.71065L16.8843 5.97252ZM17.2486 5.97219L16.5147 6.61332L16.8319 6.97635L17.5658 6.33523L17.2486 5.97219ZM18.7424 6.70204L18.8147 6.47202L18.8086 6.47029L18.7424 6.70204ZM18.27 6.46584L18.4268 6.28284L18.27 6.46584ZM17.8988 6.05248L17.7425 5.869L17.571 6.01513L17.7052 6.19609L17.8988 6.05248ZM18.5821 5.47041L18.7692 5.31842L18.6136 5.12696L18.4258 5.28693L18.5821 5.47041ZM18.987 5.85002L18.8642 6.05781L18.8755 6.06371L18.987 5.85002ZM20.0331 5.86689L20.1453 6.08021L20.1492 6.07808L20.0331 5.86689ZM19.9909 5.29325L19.8831 5.50886L19.8866 5.51054L19.9909 5.29325ZM19.1895 5.09079L19.1438 5.32752L19.1493 5.32845L19.1895 5.09079ZM18.4387 2.94809L18.2947 2.75482V2.75482L18.4387 2.94809ZM20.5308 2.80468L20.4209 3.01929L20.4272 3.02229L20.5308 2.80468ZM21.1044 3.3024L21.2605 3.48604L21.4239 3.34715L21.305 3.1687L21.1044 3.3024ZM20.4295 3.87603L20.2591 4.04646L20.4163 4.20363L20.5856 4.05968L20.4295 3.87603ZM19.2232 4.12067L19.1114 4.33422L19.1154 4.33625L19.2232 4.12067ZM19.6872 4.26408L19.7403 4.02877L19.7303 4.02695L19.6872 4.26408ZM20.5139 4.50872L20.4212 4.73133L20.4286 4.73415L20.5139 4.50872ZM21.0285 4.88833L20.8379 5.03591L20.8409 5.03964L21.0285 4.88833ZM20.8092 6.50802L20.9429 6.70858L20.9455 6.70674L20.8092 6.50802ZM19.51 6.55381C19.2081 6.55381 18.9792 6.52383 18.8146 6.4721L18.6701 6.93197C18.8992 7.00398 19.1821 7.03586 19.51 7.03586V6.55381ZM18.8086 6.47029C18.6351 6.42071 18.5116 6.35553 18.4268 6.28284L18.1131 6.64883C18.2645 6.7786 18.456 6.87089 18.6762 6.93379L18.8086 6.47029ZM18.4268 6.28284C18.3266 6.19691 18.2149 6.07397 18.0924 5.90887L17.7052 6.19609C17.8414 6.37967 17.9772 6.53231 18.1131 6.64883L18.4268 6.28284ZM18.0551 6.23596L18.7384 5.65389L18.4258 5.28693L17.7425 5.869L18.0551 6.23596ZM18.395 5.6224C18.5496 5.81264 18.7056 5.96371 18.8644 6.05752L19.1096 5.64252C19.0209 5.59011 18.907 5.48811 18.7692 5.31842L18.395 5.6224ZM18.8755 6.06371C19.0523 6.15593 19.2698 6.19227 19.51 6.19227V5.71023C19.3116 5.71023 19.1804 5.67908 19.0985 5.63633L18.8755 6.06371ZM19.51 6.19227C19.7592 6.19227 19.9838 6.1652 20.1453 6.08018L19.9208 5.65361C19.8686 5.68106 19.7445 5.71023 19.51 5.71023V6.19227ZM20.1492 6.07808C20.2374 6.0296 20.314 5.9617 20.3673 5.87099C20.4206 5.78039 20.4428 5.6805 20.4428 5.58007H19.9608C19.9608 5.609 19.9548 5.62159 19.9519 5.62659C19.949 5.63149 19.9412 5.64232 19.9169 5.6557L20.1492 6.07808ZM20.4428 5.58007C20.4428 5.46918 20.4102 5.36383 20.3432 5.27279C20.2785 5.18474 20.1903 5.12162 20.0952 5.07597L19.8866 5.51054C19.9321 5.53238 19.9493 5.5508 19.9549 5.55835C19.9582 5.56293 19.9608 5.56724 19.9608 5.58007H20.4428ZM20.0987 5.07768C19.9271 4.9919 19.6257 4.92008 19.2296 4.85314L19.1493 5.32845C19.5519 5.39649 19.7847 5.45964 19.8831 5.50883L20.0987 5.07768ZM19.2351 4.85413C18.8732 4.78434 18.6319 4.65685 18.481 4.49306C18.3334 4.33281 18.2495 4.11292 18.2495 3.80855H17.7674C17.7674 4.20716 17.8804 4.55248 18.1264 4.81964C18.3692 5.08326 18.7184 5.24541 19.1438 5.32746L19.2351 4.85413ZM18.2495 3.80855C18.2495 3.52418 18.3574 3.30925 18.5827 3.14137L18.2947 2.75482C17.9464 3.01435 17.7674 3.37305 17.7674 3.80855H18.2495ZM18.5827 3.14137C18.8159 2.96762 19.1425 2.86855 19.586 2.86855V2.38651C19.0734 2.38651 18.6351 2.50115 18.2947 2.75482L18.5827 3.14137ZM19.586 2.86855C19.9658 2.86855 20.2378 2.92543 20.4209 3.01921L20.6407 2.59016C20.3626 2.44773 20.0047 2.38651 19.586 2.38651V2.86855ZM20.4272 3.02229C20.6238 3.11591 20.7816 3.25268 20.9039 3.43609L21.305 3.1687C21.1348 2.91345 20.9102 2.71841 20.6344 2.58707L20.4272 3.02229ZM20.9483 3.11875L20.2734 3.69239L20.5856 4.05968L21.2605 3.48604L20.9483 3.11875ZM20.6 3.70561C20.4449 3.55054 20.2931 3.42801 20.1449 3.3504L19.9212 3.77742C20.0093 3.82353 20.1217 3.90909 20.2591 4.04646L20.6 3.70561ZM20.1449 3.3504C19.9824 3.26526 19.7919 3.23009 19.586 3.23009V3.71214C19.74 3.71214 19.8476 3.73883 19.9212 3.77742L20.1449 3.3504ZM19.586 3.23009C19.3851 3.23009 19.1914 3.26406 19.0424 3.36885C18.8779 3.48455 18.805 3.65932 18.805 3.85073H19.2871C19.2871 3.78906 19.3043 3.77402 19.3197 3.76318C19.3506 3.74143 19.4269 3.71214 19.586 3.71214V3.23009ZM18.805 3.85073C18.805 3.95201 18.8311 4.05096 18.8888 4.13903C18.9456 4.22556 19.0246 4.28871 19.1114 4.33418L19.3351 3.90717C19.3038 3.89077 19.2941 3.878 19.2919 3.87455C19.2906 3.87264 19.2871 3.86755 19.2871 3.85073H18.805ZM19.1154 4.33625C19.2655 4.41127 19.4436 4.46476 19.6441 4.50122L19.7303 4.02695C19.5596 3.99591 19.4284 3.9538 19.331 3.9051L19.1154 4.33625ZM19.6341 4.49919C19.9765 4.57651 20.237 4.65445 20.4212 4.73121L20.6066 4.28624C20.3859 4.19428 20.0952 4.10912 19.7403 4.02898L19.6341 4.49919ZM20.4286 4.73415C20.5955 4.79729 20.7304 4.89706 20.8379 5.03588L21.2191 4.74079C21.0566 4.53093 20.8485 4.37762 20.5992 4.2833L20.4286 4.73415ZM20.8409 5.03964C20.9364 5.15806 20.9984 5.33723 20.9984 5.60538H21.4804C21.4804 5.26616 21.4018 4.96729 21.2161 4.73703L20.8409 5.03964ZM20.9984 5.60538C20.9984 5.94589 20.8826 6.16529 20.6728 6.30929L20.9455 6.70674C21.3093 6.45707 21.4804 6.07471 21.4804 5.60538H20.9984ZM20.6755 6.30747C20.4469 6.45982 20.0707 6.55381 19.51 6.55381V7.03586C20.1079 7.03586 20.5977 6.93863 20.9429 6.70856L20.6755 6.30747Z"
        fill="black" mask="url(#path-1-outside-1_1_3548)" />
</svg>