<svg width="71" height="99" viewBox="0 0 71 99" fill="none" xmlns="http://www.w3.org/2000/svg">
    <path
        d="M46.8408 24.2317L46.8894 24.4624L46.9259 24.6476L46.9897 24.9967C47.0292 25.2244 47.0657 25.446 47.0991 25.6677C47.163 26.1109 47.2177 26.545 47.2663 26.9791C47.3605 27.8474 47.4304 28.7066 47.4699 29.5687C47.5094 30.4279 47.5216 31.287 47.5125 32.1462C47.5003 33.0053 47.4638 33.8614 47.4061 34.7176C47.3453 35.5737 47.2572 36.4298 47.1508 37.2829C47.09 37.7079 47.0353 38.1359 46.9654 38.561C46.932 38.7735 46.8985 38.986 46.8621 39.1985L46.7435 39.833C46.7071 40.0455 46.6584 40.255 46.6159 40.4675C46.5703 40.677 46.5308 40.8895 46.4791 41.0989C46.3819 41.5179 46.2876 41.9399 46.1752 42.3588C46.1205 42.5683 46.0688 42.7778 46.0111 42.9842L45.8348 43.6066L45.7892 43.7614L45.7679 43.8403L45.7223 43.9982C45.6768 44.1469 45.6312 44.2745 45.5795 44.405C45.5309 44.5264 45.4792 44.6509 45.4275 44.7602C45.3759 44.8756 45.3212 44.9757 45.2665 45.079L45.1874 45.2216C45.1601 45.2702 45.1327 45.3158 45.1054 45.3583L45.0233 45.4918L44.9443 45.6163C44.8896 45.7013 44.8379 45.7742 44.7832 45.8501C44.5705 46.1476 44.3608 46.3965 44.1571 46.6242C43.9535 46.8519 43.756 47.0523 43.5584 47.2405C43.1663 47.6169 42.7864 47.9357 42.4126 48.2363C41.665 48.8313 40.9325 49.3322 40.2 49.7997C38.7412 50.7317 37.2915 51.5362 35.8326 52.2922C34.3768 53.0481 32.9119 53.7463 31.4409 54.4142C30.7024 54.7451 29.9638 55.07 29.2223 55.3857C28.8515 55.5436 28.4807 55.7014 28.1069 55.8563L27.5416 56.084L26.9611 56.3147L24.4142 50.5648L24.9096 50.3128L25.4171 50.0487L26.4353 49.5174C27.113 49.1592 27.7908 48.7979 28.4594 48.4275C29.8028 47.6959 31.1309 46.9399 32.4226 46.1688C33.0669 45.7833 33.7021 45.3856 34.3221 44.9879C34.9421 44.5902 35.5469 44.1834 36.1183 43.7705C36.6897 43.3576 37.2337 42.9387 37.6957 42.5319C37.9267 42.3285 38.1364 42.1281 38.3035 41.952C38.4677 41.7759 38.5923 41.612 38.6166 41.5574C38.6166 41.5543 38.6227 41.5452 38.6196 41.5452C38.6166 41.5483 38.6166 41.5482 38.6135 41.5513L38.6044 41.5604C38.6014 41.5665 38.5984 41.5695 38.5953 41.5756C38.5832 41.5908 38.5801 41.6029 38.5649 41.6302C38.5558 41.6515 38.5376 41.6818 38.5254 41.7152C38.5072 41.7547 38.495 41.7911 38.4768 41.8458L38.4646 41.8822C38.4616 41.8943 38.4646 41.8822 38.4646 41.8792L38.4677 41.864L38.4829 41.8002L38.5133 41.6697L38.6318 41.1536C38.6713 40.9805 38.7047 40.8075 38.7412 40.6345C38.8172 40.2884 38.8749 39.9392 38.9387 39.5901C38.9722 39.4171 38.9965 39.241 39.0238 39.0649C39.0512 38.8888 39.0816 38.7158 39.1029 38.5397C39.2062 37.8384 39.2852 37.1311 39.349 36.4207C39.4098 35.7103 39.4493 34.9999 39.4797 34.2865C39.504 33.573 39.5101 32.8596 39.498 32.1492C39.4888 31.4358 39.4585 30.7254 39.4098 30.015C39.3642 29.3077 39.3004 28.6033 39.2153 27.9081C39.1728 27.562 39.1241 27.219 39.0725 26.885C39.0482 26.7181 39.0208 26.5541 38.9935 26.3932L38.9509 26.1625L38.9175 25.9986L46.8408 24.2317Z"
        fill="#EA9B7A" />
    <path d="M38.3728 26.1897L36.9261 37.1492C39.087 38.3574 41.1355 39.2227 43.0198 39.5657L38.3728 26.1897Z"
        fill="#A92F4B" />
    <path
        d="M41.4432 43.1298C41.4128 43.1298 41.3794 43.1237 41.3521 43.1055C40.2275 42.4953 38.6806 41.9822 38.6654 41.9762C38.5651 41.9428 38.5104 41.8335 38.5438 41.7333C38.5772 41.6331 38.6866 41.5785 38.7869 41.6119C38.8508 41.6331 40.3825 42.1401 41.5374 42.7685C41.6317 42.8201 41.6651 42.9355 41.6134 43.0296C41.58 43.0964 41.5131 43.1298 41.4432 43.1298Z"
        fill="#D46A43" />
    <path
        d="M38.832 42.025C38.7348 42.025 38.6527 41.9521 38.6406 41.855C38.6284 41.7487 38.7044 41.6546 38.8108 41.6425C39.6101 41.5544 40.6586 41.5483 40.7012 41.5483C40.8075 41.5483 40.8926 41.6333 40.8926 41.7396C40.8926 41.8459 40.8075 41.9309 40.7012 41.9339C40.689 41.9339 39.6283 41.94 38.8503 42.025C38.8472 42.025 38.8381 42.025 38.832 42.025Z"
        fill="#D46A43" />
    <path d="M18.0217 87.0192L16.0249 90.2737L12.2258 88.5948L13.9491 85.0945L18.0217 87.0192Z" fill="#EA9B7A" />
    <path
        d="M0.185013 90.4437L14.5637 96.8008C14.7552 96.6551 14.9375 96.4031 15.1077 96.0874C15.7368 94.9125 16.2079 92.8026 16.5605 91.4941C16.6 91.3423 16.6395 91.1996 16.679 91.0721C16.7428 90.8566 16.8036 90.6775 16.8583 90.553C17.299 89.5542 16.3417 89.3356 16.3417 89.3356C14.2537 90.1189 13.5547 87.253 12.2812 87.5263C12.2812 87.5263 11.7342 87.6386 10.1385 88.1607C8.54294 88.6829 6.29998 88.5008 4.3427 88.4613C1.81405 88.4097 0.814138 89.032 0.425114 89.5906C0.112072 90.0369 0.185013 90.4437 0.185013 90.4437Z"
        fill="#FAAF3A" />
    <path
        d="M0.185112 90.4438L14.5638 96.8009C14.7553 96.6552 14.9376 96.4032 15.1078 96.0875L0.422173 89.5938C0.11217 90.037 0.185112 90.4438 0.185112 90.4438Z"
        fill="#C77E2E" />
    <path
        d="M13.0976 96.151L13.5261 96.3392C13.3164 95.6653 13.2465 94.7424 13.7723 93.698C14.4713 92.3107 15.7478 91.7308 16.5593 91.494C16.5988 91.3422 16.6383 91.1995 16.6778 91.072C15.8238 91.2785 14.2738 91.8674 13.438 93.5311C12.9335 94.5268 12.9304 95.4376 13.0976 96.151Z"
        fill="#C77E2E" />
    <path
        d="M10.0052 89.117C10.1116 89.1625 10.2392 89.1352 10.3152 89.0381C10.4033 88.9257 10.382 88.7618 10.2696 88.6738L9.47027 88.0544C9.35782 87.9664 9.1937 87.9877 9.10556 88.1C9.01742 88.2123 9.0387 88.3762 9.15115 88.4643L9.95047 89.0836C9.96567 89.0988 9.9839 89.1109 10.0052 89.117Z"
        fill="white" />
    <path
        d="M11.2272 88.7649C11.3335 88.8105 11.4612 88.7832 11.5372 88.686C11.6253 88.5737 11.604 88.4098 11.4916 88.3217L10.6923 87.7024C10.5798 87.6144 10.4157 87.6356 10.3275 87.7479C10.2394 87.8603 10.2607 88.0242 10.3731 88.1122L11.1725 88.7316C11.1907 88.7467 11.2089 88.7589 11.2272 88.7649Z"
        fill="white" />
    <path
        d="M8.87343 89.2415C8.97981 89.287 9.10746 89.2597 9.18344 89.1626C9.27158 89.0502 9.2503 88.8863 9.13785 88.7983L8.33853 88.179C8.22608 88.0909 8.06196 88.1122 7.97382 88.2245C7.88568 88.3368 7.90695 88.5008 8.01941 88.5888L8.81873 89.2081C8.83696 89.2233 8.8552 89.2354 8.87343 89.2415Z"
        fill="white" />
    <path
        d="M7.75283 89.3477C7.8592 89.3932 7.98685 89.3659 8.06283 89.2688C8.15097 89.1564 8.1297 88.9925 8.01724 88.9045L7.21792 88.2852C7.10547 88.1971 6.94135 88.2184 6.85321 88.3307C6.76507 88.443 6.78635 88.607 6.8988 88.695L7.69812 89.3143C7.71636 89.3265 7.73459 89.3386 7.75283 89.3477Z"
        fill="white" />
    <path
        d="M6.57012 89.3782C6.67649 89.4238 6.80414 89.3964 6.88012 89.2993C6.96826 89.187 6.94699 89.023 6.83453 88.935L6.03521 88.3157C5.92276 88.2276 5.75864 88.2489 5.6705 88.3612C5.58237 88.4735 5.60364 88.6375 5.71609 88.7255L6.51541 89.3448C6.53061 89.357 6.54885 89.3691 6.57012 89.3782Z"
        fill="white" />
    <path
        d="M5.33266 89.3023C5.43904 89.3478 5.56669 89.3205 5.64267 89.2234C5.7308 89.111 5.70953 88.9471 5.59708 88.8591L4.79776 88.2397C4.6853 88.1517 4.52118 88.173 4.43305 88.2853C4.34491 88.3976 4.36618 88.5615 4.47863 88.6496L5.27796 89.2689C5.29315 89.2841 5.31139 89.2962 5.33266 89.3023Z"
        fill="white" />
    <path
        d="M26.9487 55.6072C28.2829 54.2957 38.8108 51.3631 45.8011 53.3121C46.6035 54.8513 47.6216 58.7523 45.1173 62.362C35.9296 63.8617 30.8024 66.9492 30.8024 66.9492C30.8024 66.9492 27.5413 74.469 25.6053 77.2286C23.6693 79.9882 19.229 88.7527 19.229 88.7527L12.5396 85.899C12.5426 85.899 23.3168 59.1774 26.9487 55.6072Z"
        fill="#39393B" />
    <path
        d="M19.9457 87.1015C19.9214 87.1015 19.897 87.0954 19.8727 87.0863L13.3262 84.3692C13.2289 84.3297 13.1803 84.2144 13.2228 84.1172C13.2624 84.0201 13.3748 83.9715 13.4751 84.014L20.0216 86.7311C20.1189 86.7706 20.1675 86.8859 20.125 86.9831C20.0946 87.0559 20.0216 87.1015 19.9457 87.1015Z"
        fill="#585859" />
    <path
        d="M18.8456 86.5518C18.8213 86.5518 18.797 86.5488 18.7757 86.5397C18.6754 86.5002 18.6298 86.3879 18.6663 86.2908C18.6784 86.2574 20.0491 82.842 23.2434 77.9998C26.4164 73.191 29.7352 65.0579 29.7687 64.976C29.8082 64.8788 29.9206 64.8302 30.0209 64.8697C30.1182 64.9092 30.1668 65.0215 30.1273 65.1217C30.0939 65.2037 26.7628 73.3701 23.5686 78.2123C20.3956 83.0211 19.0401 86.4 19.028 86.4334C18.9945 86.5033 18.9216 86.5518 18.8456 86.5518Z"
        fill="#585859" />
    <path d="M34.9055 87.593L34.3979 91.3757H30.2433L30.4013 87.4807L34.9055 87.593Z" fill="#EA9B7A" />
    <path
        d="M19.9823 97.9363H35.7073C35.8228 97.7237 35.8866 97.4232 35.914 97.065C36.0112 95.7353 35.5888 93.6162 35.3791 92.2804C35.3548 92.1256 35.3335 91.9799 35.3153 91.8463C35.2849 91.6217 35.2697 91.4365 35.2697 91.2999C35.2697 90.21 34.3032 90.3952 34.3032 90.3952C32.7106 91.9526 30.9114 89.615 29.8598 90.383C29.8598 90.383 29.407 90.7079 28.1578 91.8281C26.9087 92.9514 24.7873 93.6891 22.979 94.445C20.6448 95.4195 19.9853 96.391 19.8546 97.0619C19.7513 97.5932 19.9823 97.9363 19.9823 97.9363Z"
        fill="#FAAF3A" />
    <path
        d="M19.9825 97.9362H35.7076C35.8231 97.7237 35.8869 97.4232 35.9143 97.0649H19.8549C19.7516 97.5932 19.9825 97.9362 19.9825 97.9362Z"
        fill="#C77E2E" />
    <path
        d="M34.1018 97.9364H34.5699C34.1049 97.4051 33.6672 96.5885 33.725 95.4227C33.801 93.8714 34.734 92.824 35.3814 92.2806C35.357 92.1257 35.3358 91.98 35.3175 91.8464C34.6185 92.3807 33.4423 93.5465 33.3511 95.4045C33.2934 96.5156 33.6612 97.3474 34.1018 97.9364Z"
        fill="#C77E2E" />
    <path
        d="M28.4218 92.754C28.5373 92.754 28.6436 92.675 28.674 92.5566C28.7075 92.417 28.6254 92.2773 28.4856 92.244L27.5039 92.0011C27.3641 91.9677 27.2243 92.0497 27.1909 92.1893C27.1574 92.329 27.2425 92.4686 27.3793 92.502L28.361 92.7449C28.3792 92.7509 28.4005 92.754 28.4218 92.754Z"
        fill="white" />
    <path
        d="M29.3966 91.9374C29.5121 91.9374 29.6184 91.8585 29.6488 91.7401C29.6823 91.6004 29.6002 91.4608 29.4604 91.4274L28.4787 91.1845C28.3389 91.1511 28.1991 91.2361 28.1657 91.3727C28.1323 91.5124 28.2174 91.652 28.3541 91.6854L29.3358 91.9283C29.3571 91.9344 29.3753 91.9374 29.3966 91.9374Z"
        fill="white" />
    <path
        d="M27.4419 93.3245C27.5574 93.3245 27.6637 93.2456 27.6941 93.1272C27.7275 92.9876 27.6455 92.8479 27.5057 92.8145L26.524 92.5716C26.3842 92.5382 26.2444 92.6202 26.211 92.7599C26.1775 92.8995 26.2596 93.0392 26.3994 93.0726L27.3811 93.3154C27.3993 93.3215 27.4206 93.3245 27.4419 93.3245Z"
        fill="white" />
    <path
        d="M26.4579 93.8712C26.5734 93.8712 26.6798 93.7923 26.7102 93.6739C26.7436 93.5343 26.6615 93.3946 26.5217 93.3612L25.54 93.1183C25.4002 93.085 25.2604 93.17 25.227 93.3066C25.1936 93.4462 25.2787 93.5859 25.4154 93.6193L26.3971 93.8621C26.4153 93.8712 26.4366 93.8712 26.4579 93.8712Z"
        fill="white" />
    <path
        d="M25.3859 94.378C25.5014 94.378 25.6078 94.2991 25.6382 94.1807C25.6716 94.041 25.5865 93.9014 25.4498 93.868L24.4681 93.6251C24.3283 93.5917 24.1885 93.6737 24.155 93.8133C24.1216 93.953 24.2067 94.0926 24.3435 94.126L25.3251 94.3689C25.3464 94.378 25.3677 94.378 25.3859 94.378Z"
        fill="white" />
    <path
        d="M24.2262 94.8123C24.3417 94.8123 24.4481 94.7334 24.4785 94.615C24.5119 94.4753 24.4299 94.3357 24.2901 94.3023L23.3084 94.0594C23.1686 94.026 23.0288 94.108 22.9953 94.2477C22.9619 94.3873 23.047 94.527 23.1838 94.5604L24.1654 94.8032C24.1867 94.8093 24.205 94.8123 24.2262 94.8123Z"
        fill="white" />
    <path
        d="M66.4055 56.2901C66.3994 56.3539 66.3903 56.4146 66.3842 56.4723C66.3508 56.4966 66.3204 56.5209 66.29 56.5451C63.8495 58.4152 61.0017 59.6599 58.0932 60.3673C57.9898 60.3916 57.8895 60.4159 57.7862 60.4402C57.2878 60.5555 56.7863 60.6557 56.2848 60.7377C55.6071 60.85 54.9293 60.938 54.2576 60.9957C53.662 61.0473 53.0693 61.0807 52.4858 61.0898C49.9693 61.1354 47.5835 60.8075 45.5654 60.1669C45.4894 60.1426 45.4104 60.1184 45.3344 60.091C44.7995 59.9119 44.295 59.7115 43.8209 59.4899C43.7479 59.4565 43.675 59.4231 43.6051 59.3867C43.3103 59.244 43.0276 59.0892 42.7602 58.9283C42.8027 57.9599 42.8149 56.8002 42.8058 55.5615C42.8058 55.4583 42.8058 55.3551 42.8027 55.2519C42.7845 53.5275 42.7328 51.6665 42.666 49.9664C42.6599 49.8845 42.6568 49.8055 42.6568 49.7266C42.6204 48.8371 42.5778 47.9931 42.5414 47.2433C42.5353 47.1643 42.5322 47.0824 42.5292 47.0065C42.4958 46.372 42.4623 45.8043 42.4319 45.3398C42.4228 45.2214 42.4167 45.106 42.4076 44.9876C42.4015 44.8965 42.3955 44.8055 42.3894 44.7174C42.3651 44.3895 42.3377 44.0708 42.3104 43.7551C42.2678 43.2511 42.2192 42.7623 42.1675 42.2887C42.1067 41.7483 42.0429 41.2201 41.9761 40.7131C41.9001 40.1667 41.8241 39.6384 41.742 39.1314C41.6539 38.588 41.5627 38.0658 41.4655 37.5649C41.1281 35.798 40.7482 34.2801 40.3683 32.9686C40.3409 32.8776 40.3166 32.7925 40.2893 32.7015C40.1343 32.1793 39.9823 31.6966 39.8334 31.2412C39.7999 31.141 39.7665 31.0439 39.7361 30.9437C38.8912 28.4391 38.1922 26.9273 38.18 25.9133C38.1557 23.8034 39.6997 23.1264 41.3105 22.2763C41.3864 22.2369 41.4624 22.1974 41.5384 22.1549C41.8089 22.0092 42.0824 21.8543 42.3438 21.6874C42.4563 21.6175 42.5657 21.5447 42.672 21.4688C42.748 21.4172 42.8179 21.3625 42.8878 21.3109C43.5261 20.8191 44.0853 20.2028 44.45 19.3285L50.5376 18.0474C50.5376 18.0474 51.1211 18.3479 52.0967 18.609C52.1879 18.6333 52.2821 18.6576 52.3824 18.6819C52.4979 18.7092 52.6165 18.7365 52.7411 18.7608C52.817 18.776 52.8991 18.7911 52.9781 18.8063C53.0389 18.8185 53.1027 18.8306 53.1666 18.8397C53.7501 18.9308 54.4248 18.9885 55.1877 18.9733C55.2636 18.9703 55.3427 18.9703 55.4186 18.9672C55.4733 18.9642 55.5281 18.9612 55.5828 18.9612C56.0994 18.9338 56.5918 19.0006 57.0659 19.1524C57.1571 19.1797 57.2452 19.2131 57.3334 19.2496C59.3119 20.0389 60.868 22.4008 61.874 26.0286C62.1536 27.0366 62.4302 28.0202 62.6976 28.9795C62.728 29.0858 62.7554 29.189 62.7858 29.2922C62.8435 29.5017 62.9013 29.7111 62.959 29.9206C62.9803 29.9965 63.0016 30.0724 63.0228 30.1483C63.2295 30.8921 63.4301 31.6268 63.6246 32.3523C63.6459 32.4282 63.6672 32.5072 63.6854 32.5831C63.6976 32.6256 63.7067 32.665 63.7188 32.7045L63.8282 33.1295C64.5029 35.7252 65.0652 38.2267 65.4269 40.7495C65.5029 41.2747 65.5697 41.8 65.6244 42.3282C65.6396 42.4557 65.6548 42.6014 65.67 42.7593C65.6731 42.7896 65.6761 42.817 65.6791 42.8473C65.6852 42.902 65.6913 42.9566 65.6974 43.0143C65.7004 43.0416 65.7035 43.072 65.7065 43.0993C65.8037 44.0556 65.9284 45.3792 66.053 46.8395C66.059 46.9154 66.0682 46.9943 66.0742 47.0732C66.3539 50.4673 66.6061 54.5111 66.4055 56.2901Z"
        fill="#DF615C" />
    <path
        d="M47.8798 22.902C50.3112 22.3889 51.6242 19.3531 51.6789 19.2195C51.7154 19.1314 51.6758 19.0282 51.5877 18.9918C51.4996 18.9554 51.3962 18.9948 51.3598 19.0829C51.3476 19.1132 50.0134 22.2068 47.6671 22.5863C45.3603 22.9597 44.4424 21.2657 44.4029 21.1928C44.3573 21.1078 44.254 21.0744 44.1689 21.1199C44.0838 21.1655 44.0504 21.2687 44.096 21.3537C44.1051 21.3749 45.1627 23.3452 47.7248 22.9293C47.7765 22.9232 47.8282 22.9111 47.8798 22.902Z"
        fill="#A92F4B" />
    <path
        d="M50.3473 55.2157C52.6328 54.736 54.9943 53.5611 57.3558 51.7184C60.5956 49.1895 62.7231 46.2568 62.7444 46.2265C62.7991 46.1476 62.7839 46.0413 62.7048 45.9836C62.6258 45.929 62.5164 45.9442 62.4617 46.0231C62.4404 46.0534 60.3373 48.9497 57.1369 51.4482C54.201 53.7402 49.709 56.1568 44.9921 54.651C44.9009 54.6206 44.8037 54.6723 44.7733 54.7633C44.7429 54.8544 44.7946 54.9516 44.8857 54.9819C46.6242 55.5375 48.4599 55.6134 50.3473 55.2157Z"
        fill="#A92F4B" />
    <path
        d="M48.979 53.4731C52.541 52.6625 54.4527 47.2951 54.5347 47.0674C54.5651 46.9763 54.5195 46.8792 54.4283 46.8458C54.3372 46.8154 54.2399 46.861 54.2065 46.952C54.1882 47.0067 52.2766 52.365 48.906 53.1331C48.8118 53.1543 48.7541 53.2484 48.7753 53.3425C48.7936 53.4336 48.8848 53.4913 48.979 53.4731Z"
        fill="#A92F4B" />
    <path
        d="M42.403 44.9847C42.8437 44.6811 43.2601 44.3047 43.5883 43.8766C44.3815 42.8444 44.4879 41.788 43.8892 40.9015C43.7676 40.7254 43.6582 40.5615 43.5549 40.4127C42.33 38.6276 42.2024 38.4424 42.3088 35.5068C42.3422 34.5839 42.0808 33.8553 41.5338 33.3513C41.166 33.0083 40.7162 32.8109 40.2846 32.6956C40.312 32.7836 40.3363 32.8716 40.3637 32.9627C40.7223 33.072 41.0809 33.2481 41.3757 33.5213C41.8711 33.9797 42.1051 34.6476 42.0748 35.5007C41.9653 38.5123 42.1234 38.743 43.3604 40.5463C43.4637 40.6981 43.5731 40.859 43.6947 41.0351C44.4241 42.1067 43.8254 43.1875 43.4029 43.737C43.1203 44.1043 42.7647 44.4383 42.3848 44.7145C42.3908 44.8026 42.3999 44.8937 42.403 44.9847Z"
        fill="#A92F4B" />
    <path
        d="M65.705 43.0934C65.2309 43.3696 64.772 43.5427 64.3343 43.6368C63.152 43.8857 62.1278 43.5275 61.4683 42.8657C60.6811 42.0733 60.3742 40.7102 61.3133 39.6416C62.219 38.6064 61.83 38.0569 61.3376 37.3586C60.8513 36.6725 60.2465 35.8164 60.8757 34.3136C61.2373 33.4484 61.7935 32.8564 62.529 32.5589C62.8967 32.4102 63.2706 32.3494 63.6231 32.3403C63.6444 32.4162 63.6657 32.4952 63.6839 32.5711C63.3405 32.5741 62.9727 32.6287 62.6141 32.7745C61.9394 33.0477 61.4258 33.5972 61.0884 34.4017C60.5079 35.786 61.0276 36.5146 61.5261 37.222C62.0336 37.9415 62.5138 38.6215 61.4865 39.7903C60.7298 40.6525 60.7875 41.8487 61.6324 42.6957C62.4834 43.5518 64 43.8493 65.6777 42.8323C65.6837 42.8869 65.6898 42.9416 65.6959 42.9992C65.702 43.0357 65.705 43.066 65.705 43.0934Z"
        fill="#A92F4B" />
    <path
        d="M49.8316 43.9677C50.4182 44.9757 51.6886 45.4584 52.8496 45.1214C53.0259 45.0698 53.2113 45.003 53.3967 44.924C54.8889 44.2865 56.6092 42.7838 57.2687 41.0351C57.7762 39.6872 57.6212 38.3059 56.8158 37.046C55.6244 35.182 54.9345 33.4485 54.819 32.0398C54.7491 31.205 54.1747 30.5583 53.3572 30.3914C52.5335 30.2244 51.7494 30.5948 51.3573 31.3355C51.3361 31.375 51.3148 31.4145 51.2935 31.4539C50.2906 33.409 50.8893 34.8237 51.4181 36.0715C51.9713 37.3769 52.4484 38.5032 50.9379 39.9665C49.5611 41.2962 49.1478 42.7929 49.8316 43.9677ZM51.099 40.1304C52.728 38.5548 52.1931 37.301 51.6309 35.9774C51.096 34.7175 50.5459 33.4181 51.5002 31.5571C51.5215 31.5177 51.5397 31.4782 51.561 31.4418C51.7433 31.0987 52.0199 30.8467 52.3481 30.7071C52.6399 30.5826 52.9712 30.5462 53.3085 30.616C54.0258 30.7648 54.5273 31.3295 54.5881 32.0581C54.658 32.8777 54.8981 33.7733 55.3144 34.7418C55.6427 35.5098 56.0803 36.3174 56.6213 37.1674C57.3963 38.3818 57.5392 39.6538 57.0529 40.9531C56.3387 42.8536 54.3206 44.4505 52.7858 44.8967C51.722 45.2064 50.5671 44.7662 50.0322 43.8494C49.4061 42.7747 49.8043 41.3842 51.099 40.1304Z"
        fill="#A92F4B" />
    <path
        d="M39.728 30.9376C39.7615 31.0348 39.7918 31.1319 39.8253 31.2321C40.6368 31.5569 41.3844 31.5448 41.9801 31.4173C42.284 31.3535 42.5484 31.2594 42.7642 31.1683C44.2504 30.5278 45.2595 29.1525 45.2351 28.3207C45.226 28.008 45.068 27.7803 44.7914 27.6801C43.1928 27.0972 42.5424 26.0438 42.2992 23.6485C42.2324 22.9988 41.974 22.4949 41.5273 22.1458C41.4513 22.1852 41.3753 22.2247 41.2993 22.2672C41.3176 22.2793 41.3358 22.2945 41.3571 22.3097C41.7674 22.6163 42.0044 23.0747 42.0652 23.6728C42.3175 26.1774 43.0104 27.2824 44.7094 27.8987C44.8978 27.9685 44.992 28.1082 44.9981 28.3268C45.0194 29.0827 44.0286 30.3669 42.667 30.9558C42.0409 31.2291 40.9498 31.5023 39.728 30.9376Z"
        fill="#A92F4B" />
    <path
        d="M47.9803 31.3232C48.2659 31.6329 48.7279 31.7482 49.1868 31.6541C49.3388 31.6207 49.4908 31.5661 49.6336 31.4871C50.3691 31.0803 50.6426 30.2303 50.3661 29.2163C50.0773 28.1598 50.6274 27.6528 51.1593 27.1641C51.6274 26.736 52.1076 26.2928 51.7276 25.5338C51.4359 24.9509 50.8949 24.6777 50.1716 24.7445C49.3175 24.8265 48.5699 25.3486 48.1687 26.144C47.4879 27.4889 46.8375 30.0846 47.9803 31.3232ZM48.3754 26.2472C48.6975 25.6067 49.2902 25.1483 49.9558 25.0086C50.0348 24.9934 50.1138 24.9813 50.1928 24.9722C50.825 24.9115 51.2718 25.1361 51.521 25.634C51.8249 26.2381 51.4784 26.5539 51.0013 26.991C50.4724 27.4768 49.816 28.0809 50.1412 29.274C50.3873 30.1787 50.1564 30.9285 49.5212 31.2807C49.044 31.5448 48.4544 31.4962 48.1505 31.1653C47.0867 30.0147 47.725 27.5375 48.3754 26.2472Z"
        fill="#A92F4B" />
    <path
        d="M44.5606 39.5412C44.6912 40.1545 44.9374 40.6524 45.3629 40.9013C46.0012 41.2747 46.6272 41.4204 47.0892 41.3233C47.2898 41.2808 47.457 41.1927 47.5846 41.0592C47.9615 40.6554 47.8369 39.9298 47.2442 39.0676C46.5573 38.0688 47.1591 37.4343 47.8004 36.7604C48.3444 36.1866 48.9097 35.5946 48.5936 34.784C48.3657 34.2011 47.8429 33.931 47.0801 33.9977C45.8006 34.1131 44.746 35.1392 44.5727 36.4416C44.436 37.4526 44.3691 38.6274 44.5606 39.5412ZM44.8007 36.475C44.8736 35.9255 45.1167 35.4307 45.4693 35.0451C45.8249 34.6596 46.2899 34.3833 46.8096 34.274C46.9038 34.2528 46.998 34.2406 47.0983 34.2315C47.7639 34.1738 48.1833 34.3803 48.3748 34.869C48.6392 35.543 48.1499 36.0591 47.6332 36.6025C46.9889 37.2795 46.2595 38.0476 47.0527 39.2012C47.5785 39.9632 47.7123 40.5856 47.4144 40.9013C47.0831 41.2565 46.2899 41.1745 45.4814 40.7009C44.7399 40.2638 44.4967 38.7641 44.8007 36.475Z"
        fill="#A92F4B" />
    <path
        d="M42.6641 49.9636C43.5971 49.6266 43.9102 50.0941 44.363 50.7711C44.7703 51.3752 45.2748 52.1281 46.4084 52.3953C46.7944 52.4864 47.1652 52.4833 47.5147 52.4105C48.4295 52.2192 49.1772 51.5361 49.5358 50.7711C50.0191 49.742 49.8063 48.7128 48.9766 48.0904C48.6149 47.8203 48.4265 47.5622 48.39 47.3042C48.3414 46.9398 48.6149 46.5877 48.9067 46.2143C49.3109 45.6951 49.7698 45.1092 49.4173 44.3563C49.1407 43.7643 48.621 43.4122 47.9524 43.3606C46.84 43.2786 45.5939 44.0315 44.7764 45.2732C44.0773 46.3357 43.1929 46.8002 42.5212 47.0006C42.5243 47.0765 42.5304 47.1584 42.5334 47.2374C43.2537 47.0309 44.2171 46.5422 44.9678 45.4007C45.5878 44.4596 46.4601 43.816 47.3111 43.6368C47.5208 43.5913 47.7305 43.5761 47.9341 43.5913C48.5146 43.6338 48.9644 43.9404 49.2045 44.4535C49.4933 45.0758 49.1164 45.5585 48.7183 46.0686C48.4113 46.4632 48.0922 46.87 48.153 47.3315C48.1955 47.6533 48.4174 47.9599 48.8277 48.2726C49.706 48.9344 49.6574 49.9454 49.317 50.6709C48.8611 51.6424 47.7305 52.4682 46.454 52.1676C45.4085 51.9217 44.9496 51.2417 44.5484 50.6406C44.0956 49.9636 43.7005 49.3746 42.6458 49.7207C42.658 49.8027 42.661 49.8816 42.6641 49.9636Z"
        fill="#A92F4B" />
    <path
        d="M54.4828 47.1491C54.5618 47.5529 54.8049 47.8291 55.1636 47.9263C55.355 47.9779 55.5678 47.9779 55.7927 47.9324C56.2942 47.8261 56.8443 47.4861 57.2941 46.9761C57.756 46.4539 58.218 46.5207 58.8563 46.6117C59.4763 46.6998 60.2482 46.8121 61.2329 46.3658C62.3271 45.868 62.5094 44.8358 62.2177 44.0859C61.9502 43.4089 61.2299 42.82 60.2756 43.1357C59.5918 43.3603 59.148 43.7095 58.7529 44.0131C58.1512 44.4806 57.6345 44.8843 56.4461 44.8115C55.8565 44.7751 55.3824 44.9329 55.045 45.279C54.3886 45.9499 54.4767 47.0884 54.4797 47.1339C54.4828 47.143 54.4828 47.1461 54.4828 47.1491ZM54.7107 47.1096C54.7046 47.0216 54.6499 46.0137 55.2122 45.4399C55.5009 45.1454 55.9112 45.0119 56.4309 45.0422C57.7044 45.1181 58.2818 44.6718 58.8927 44.1952C59.2909 43.8855 59.7012 43.5668 60.3485 43.3512C61.16 43.0841 61.7739 43.588 61.9988 44.1679C62.2541 44.8176 62.0931 45.7162 61.1357 46.1503C60.2118 46.5693 59.5067 46.4691 58.8866 46.378C58.528 46.3264 58.1998 46.2808 57.8837 46.3476C57.6193 46.4023 57.367 46.5389 57.1178 46.8182C56.5312 47.48 55.7501 47.8443 55.2213 47.7016C54.9539 47.6288 54.7745 47.4254 54.7107 47.1096Z"
        fill="#A92F4B" />
    <path
        d="M64.6564 52.7352C63.8601 54.0528 64.1944 55.5191 64.9846 56.1779C65.3646 56.4936 65.8144 56.6181 66.2915 56.5452C66.3219 56.5209 66.3523 56.4966 66.3857 56.4724C66.3949 56.4147 66.4009 56.354 66.4101 56.2902C65.942 56.4025 65.5044 56.3084 65.1336 55.9988C64.4224 55.4037 64.1215 54.0649 64.857 52.8566C65.6016 51.6302 65.015 51.2507 64.395 50.8499C63.8267 50.4796 63.234 50.1001 63.3252 48.9981C63.3708 48.4546 63.5896 48.0175 63.9817 47.6987C64.3221 47.4225 64.7567 47.2616 65.1822 47.1705C65.4983 47.1037 65.8113 47.0764 66.0788 47.0673C66.0727 46.9883 66.0666 46.9124 66.0605 46.8335C65.401 46.8578 64.4801 46.9944 63.8358 47.5196C63.3951 47.8778 63.1459 48.3696 63.0973 48.9798C62.997 50.2185 63.7051 50.6769 64.2735 51.0442C64.8783 51.4389 65.2825 51.703 64.6564 52.7352Z"
        fill="#A92F4B" />
    <path
        d="M45.336 60.088C45.4119 60.1153 45.4879 60.1396 45.5669 60.1639C45.5761 59.8057 45.6612 59.0376 46.193 58.5215C46.6368 58.0934 47.2993 57.9234 48.1625 58.0175C49.3083 58.145 49.828 58.6186 50.2839 59.0376C51.0528 59.7419 51.5877 60.0759 53.5936 58.7674C54.3565 58.2695 55.0646 57.9781 55.6816 57.8475C56.6784 57.6381 57.4443 57.8445 57.8455 58.2574C58.3379 58.7644 58.3136 59.5689 57.7878 60.4371C57.8911 60.4128 57.9914 60.3885 58.0947 60.3643C58.5719 59.4717 58.5476 58.6429 58.0157 58.0934C57.3015 57.3588 55.5752 57.1948 53.469 58.5701C51.5148 59.8482 51.1105 59.4778 50.4419 58.8645C49.983 58.4426 49.4086 57.9174 48.1868 57.7838C47.2507 57.6806 46.5243 57.8718 46.0289 58.3545C45.4697 58.904 45.3542 59.6721 45.336 60.088Z"
        fill="#A92F4B" />
    <path
        d="M58.3814 56.354C58.6732 56.9763 59.6336 57.4894 60.5302 57.3011C60.5697 57.292 60.6092 57.2829 60.6457 57.2708C62.0133 56.8852 62.8005 55.7771 62.8613 54.153C62.9068 52.8961 62.7914 51.6636 61.6273 51.1292C61.6212 51.1262 61.6152 51.1232 61.606 51.1232C61.5513 51.111 60.2627 50.7983 59.4603 51.3417C59.123 51.5694 58.9224 51.9155 58.8647 52.3648C58.7583 53.1602 59.0014 53.649 59.1747 54.0042C59.3935 54.4414 59.4907 54.6417 58.8221 55.0971C58.3267 55.4402 58.1656 55.8986 58.3814 56.354ZM58.9528 55.2944C59.7491 54.751 59.6336 54.414 59.3844 53.9071C59.2142 53.561 58.9984 53.1268 59.0926 52.4013C59.1443 52.0187 59.3114 51.7273 59.591 51.536C60.2749 51.0716 61.4207 51.3205 61.5392 51.3478C62.3719 51.7334 62.688 52.547 62.6272 54.1439C62.5877 55.2155 62.1987 56.5908 60.5818 57.0492C59.7764 57.2738 58.8495 56.8093 58.5911 56.2568C58.424 55.9016 58.5516 55.5677 58.9528 55.2944Z"
        fill="#A92F4B" />
    <path
        d="M43.6065 59.3839C43.6764 59.4203 43.7493 59.4537 43.8223 59.4871C44.3086 58.9194 44.5092 58.3001 44.4149 57.6534C44.263 56.603 43.3846 55.7226 42.8041 55.249C42.8072 55.3522 42.8072 55.4555 42.8072 55.5587C43.3482 56.0353 44.0593 56.8064 44.187 57.6868C44.2721 58.2758 44.0837 58.8374 43.6278 59.3626C43.6217 59.3687 43.6126 59.3778 43.6065 59.3839Z"
        fill="#A92F4B" />
    <path
        d="M39.1292 8.86703C39.1292 8.86703 35.6796 8.13842 35.5976 6.82389C35.5246 5.60955 36.9592 5.73705 36.9592 5.73705C36.9592 5.73705 35.2845 2.99263 36.2449 2.45529C37.2053 1.9149 38.418 3.45409 38.418 3.45409C38.418 3.45409 37.5396 0.199641 38.7128 0.433403C39.8859 0.667164 40.0379 2.45529 40.0379 2.45529C40.0379 2.45529 43.9373 1.0679 46.1529 1.73275C47.6634 2.1851 48.019 3.63624 48.019 3.63624C48.019 3.63624 48.9156 3.10193 49.5538 3.4298C50.189 3.75767 49.6085 4.87487 49.6085 4.87487C49.6085 4.87487 50.5932 5.6308 50.2923 6.833C49.9914 8.0352 49.1313 10.4092 49.1313 10.4092L39.1292 8.86703Z"
        fill="#39393B" />
    <path
        d="M44.0004 18.4301L44.3347 20.0149C44.5505 20.1242 44.7663 20.2152 44.9791 20.2881C48.0791 21.3598 50.6169 18.6912 50.6169 18.6912L49.4589 13.2024L44.6508 17.8078L44.0004 18.4301Z"
        fill="#EA9B7A" />
    <path
        d="M44.0005 18.4301L44.3349 20.0148C44.5507 20.1241 44.7664 20.2151 44.9792 20.288C47.1279 18.8672 48.3163 16.053 48.3163 16.053L44.654 17.8077L44.0005 18.4301Z"
        fill="#39393B" />
    <path
        d="M40.9477 5.60938C40.9477 5.60938 37.1942 6.77515 39.422 10.488C39.422 10.485 41.2577 6.6355 40.9477 5.60938Z"
        fill="#39393B" />
    <path
        d="M40.5371 11.8301C40.5371 11.8301 39.4125 10.9557 39.1269 12.1276C38.8412 13.2964 39.6861 15.3638 40.9838 14.7263L40.5371 11.8301Z"
        fill="#D46A43" />
    <path
        d="M40.3618 15.7588C40.3618 15.7588 41.0486 19.0345 44.4556 18.3089C47.8413 17.5894 49.5889 14.4473 49.6831 14.2986C49.6862 14.2955 49.6862 14.2955 49.6862 14.2955L49.5767 13.6003L49.0145 9.98765L48.7136 8.05684C48.7136 8.05684 48.4218 4.52917 45.0209 4.58989C42.5348 4.63542 40.38 5.50368 39.5108 6.98518C39.1916 7.53164 39.0458 8.1631 39.1248 8.86742L39.7417 12.3192L39.8937 13.1662L40.3618 15.7588Z"
        fill="#EA9B7A" />
    <path
        d="M47.3146 10.4124C47.3146 10.4124 46.8132 12.4221 45.7038 12.331C44.5945 12.2369 43.3636 12.3644 42.5066 13.005C42.5066 13.005 40.7894 12.75 39.9779 13.603C39.4339 14.1768 40.7134 18.4452 43.087 18.597C45.4607 18.7519 48.3146 17.328 48.5972 15.0633C48.8799 12.7985 48.4544 11.0104 48.4544 11.0104L47.3146 10.4124Z"
        fill="#39393B" />
    <path
        d="M41.8068 13.9612C41.8068 13.9612 43.7245 13.7639 44.6637 13.2266C44.6637 13.2266 45.0831 15.0967 43.4632 15.2576C42.1624 15.3881 41.8068 13.9612 41.8068 13.9612Z"
        fill="white" />
    <path
        d="M44.2806 11.8027C44.3323 12.0395 44.8641 12.1305 45.469 12.003C46.0738 11.8755 46.5266 11.578 46.4749 11.3412C46.4233 11.1014 45.8914 11.0134 45.2866 11.1409C44.6818 11.2684 44.232 11.5628 44.2806 11.8027Z"
        fill="#D46A43" />
    <path
        d="M39.8974 13.1629C39.9825 13.1538 40.0737 13.1386 40.1649 13.1204C40.7697 12.9929 41.2226 12.6953 41.1709 12.4585C41.1192 12.2217 40.5874 12.1307 39.9825 12.2582C39.9005 12.2764 39.8215 12.2946 39.7455 12.3189L39.8974 13.1629Z"
        fill="#D46A43" />
    <path
        d="M44.0425 10.4823C44.1124 10.8102 44.316 11.044 44.4984 11.0045C44.6807 10.965 44.7749 10.6705 44.705 10.3427C44.6351 10.0148 44.4315 9.78104 44.2491 9.82051C44.0668 9.85997 43.9726 10.1545 44.0425 10.4823Z"
        fill="#39393B" />
    <path
        d="M40.7976 11.1652C40.8675 11.4931 41.0711 11.7268 41.2535 11.6874C41.4358 11.6479 41.5301 11.3534 41.4601 11.0255C41.3902 10.6977 41.1866 10.4639 41.0043 10.5034C40.8219 10.5398 40.7307 10.8373 40.7976 11.1652Z"
        fill="#39393B" />
    <path
        d="M42.8136 12.4615C42.8895 12.4463 42.9351 12.3735 42.9199 12.2976C42.9047 12.2217 42.8318 12.1761 42.7558 12.1913C42.2604 12.2945 41.9747 12.0851 41.8714 11.9849C42.1753 10.7645 42.4732 9.53494 42.4762 9.5228C42.4944 9.44993 42.4489 9.37404 42.3759 9.35582C42.303 9.33761 42.227 9.38315 42.2088 9.45601C42.2057 9.46815 41.8957 10.7432 41.5857 11.9879C41.5766 12.0274 41.5857 12.0699 41.61 12.1033C41.6283 12.1306 42.0142 12.6315 42.8136 12.4615Z"
        fill="#39393B" />
    <path
        d="M45.3662 8.63646C45.2173 8.30555 44.7918 7.71963 43.6764 7.90178C43.5396 7.92303 43.4363 8.03839 43.4302 8.17501C43.4211 8.34805 43.5578 8.49377 43.7311 8.49073C44.035 8.48163 44.4939 8.55145 44.8404 8.97951C44.9468 9.11309 45.1504 9.11916 45.272 9.00076L45.2993 8.97344C45.3905 8.8854 45.4178 8.75182 45.3662 8.63646Z"
        fill="#39393B" />
    <path
        d="M39.6956 9.82961C39.6987 9.46834 39.8476 8.75795 40.9448 8.47562C41.0785 8.44222 41.2183 8.50598 41.2821 8.62741C41.3612 8.78224 41.2943 8.97046 41.1332 9.03725C40.8506 9.15262 40.4585 9.40156 40.3157 9.9298C40.2701 10.0937 40.0907 10.1818 39.9297 10.1241L39.8932 10.1119C39.7747 10.0694 39.6956 9.95408 39.6956 9.82961Z"
        fill="#39393B" />
    <path
        d="M48.3381 13.1931C48.3624 13.2265 49.0037 14.1342 49.6845 14.2982C49.6876 14.2951 49.6876 14.2951 49.6876 14.2951L49.5781 13.5999C49.5781 13.5969 49.022 13.6181 48.3381 13.1931Z"
        fill="#39393B" />
    <path
        d="M48.4573 10.7947C48.4573 10.7947 49.3964 8.7607 50.6486 9.94165C51.6789 10.9131 50.8096 14.1949 49.0287 13.5088L48.4573 10.7947Z"
        fill="#EA9B7A" />
    <path
        d="M49.0985 12.9383C49.1654 12.9231 49.214 12.8594 49.2079 12.7896C49.0742 11.4295 50.0923 10.7282 50.1349 10.7009C50.1987 10.6584 50.2139 10.5734 50.1744 10.5096C50.1318 10.4459 50.0467 10.4307 49.9829 10.4702C49.9343 10.5036 48.7824 11.2868 48.9344 12.8138C48.9404 12.8897 49.0103 12.9444 49.0863 12.9383C49.0863 12.9414 49.0924 12.9383 49.0985 12.9383Z"
        fill="#39393B" />
    <path
        d="M50.1824 11.8573C50.2219 11.8482 50.2553 11.8239 50.2766 11.7844C50.31 11.7176 50.2857 11.6326 50.2158 11.5992C50.152 11.5658 49.5897 11.2865 49.2068 11.4778C49.1399 11.5112 49.1095 11.5932 49.1429 11.663C49.1764 11.7298 49.2584 11.7601 49.3283 11.7267C49.5472 11.6174 49.9635 11.7814 50.0912 11.8482C50.1216 11.8603 50.152 11.8633 50.1824 11.8573Z"
        fill="#39393B" />
    <path
        d="M39.5151 6.98494C39.5637 7.09423 39.6336 7.18227 39.7248 7.24602C40.5332 7.80158 42.0468 7.22477 43.4023 6.47188C44.7578 5.71898 45.9978 6.55688 45.9978 6.55688C45.8884 8.02927 47.2773 7.85319 47.2074 8.96736C47.1375 10.0815 47.5417 11.4446 47.5417 11.4446L48.3684 11.1532C48.4474 10.6219 48.7787 10.2151 49.0127 9.98741L48.7118 8.0566C48.7118 8.0566 48.4201 4.52892 45.0192 4.58964C42.5391 4.63518 40.3813 5.5004 39.5151 6.98494Z"
        fill="#39393B" />
    <path
        d="M64.9088 53.4183C64.9088 53.4183 68.1547 66.2084 51.3264 66.2084C42.3393 66.2084 38.0661 65.3432 38.0661 65.3432C38.0661 65.3432 37.8504 73.2698 37.4309 76.6153C37.0115 79.9608 35.5314 88.2913 35.5314 88.2913L28.453 88.8377C28.453 88.8377 27.3224 59.8149 31.6594 57.1433C35.9964 54.4717 42.236 54.3928 52.9463 53.3637C52.9463 53.3637 62.5625 51.7395 64.9088 53.4183Z"
        fill="#39393B" />
    <path
        d="M34.5622 85.9719C34.547 85.9719 34.5318 85.9689 34.5166 85.9658C34.4133 85.9415 34.3495 85.8383 34.3738 85.7351C35.3524 81.6519 35.7414 75.8048 36.0515 71.1053C36.3584 66.4726 36.5438 64.0348 37.024 63.6097C37.5559 63.1422 39.1302 63.3092 41.7409 63.5855C44.9777 63.9285 49.8648 64.4476 55.1379 63.8435C57.7578 63.543 59.7637 62.5199 61.104 60.7985C63.508 57.7111 62.9579 53.3789 62.9518 53.3364C62.9366 53.2301 63.0126 53.133 63.1159 53.1208C63.2223 53.1057 63.3196 53.1816 63.3317 53.2848C63.356 53.4669 63.9122 57.8173 61.4079 61.0323C60.0007 62.8386 57.9067 63.9133 55.1805 64.226C49.8648 64.8332 44.9504 64.3141 41.6984 63.968C39.4524 63.7281 37.6805 63.5399 37.2763 63.8981C37.1851 63.9801 37.0027 64.3778 36.8173 66.1356C36.6775 67.4349 36.5651 69.1472 36.4344 71.1326C36.1214 75.8473 35.7323 81.7126 34.7446 85.8262C34.7294 85.9112 34.6504 85.9719 34.5622 85.9719Z"
        fill="#585859" />
    <path
        d="M28.5287 86.5486C28.4284 86.5486 28.3433 86.4697 28.3373 86.3665C28.3312 86.2602 28.4132 86.1691 28.5166 86.1631L35.7561 85.7259C35.8624 85.7198 35.9536 85.8018 35.9597 85.905C35.9658 86.0113 35.8837 86.1024 35.7804 86.1084L28.5409 86.5456C28.5379 86.5486 28.5318 86.5486 28.5287 86.5486Z"
        fill="#585859" />
    <path
        d="M48.0053 57.0795H26.8005C26.7518 57.0795 26.7123 57.0401 26.7123 56.9915V54.3837C26.7123 54.3351 26.7518 54.2957 26.8005 54.2957H48.0053C48.0539 54.2957 48.0934 54.3351 48.0934 54.3837V56.9915C48.0904 57.0401 48.0509 57.0795 48.0053 57.0795Z"
        fill="#CED3E6" />
    <path
        d="M24.4816 57.0796C23.6762 57.0796 22.9741 56.5392 22.7644 55.762L18.7648 40.8044C18.5216 39.8906 19.2115 38.9919 20.1567 38.9919H29.7304C30.3777 38.9919 30.943 39.42 31.1193 40.0423L35.9092 57.0766H24.4816V57.0796Z"
        fill="white" />
    <path
        d="M31.119 40.0453L35.8693 56.9399H36.9634L32.2131 40.0453C32.0368 39.4229 31.4715 38.9949 30.8242 38.9949H29.73C30.3774 38.9919 30.9427 39.4229 31.119 40.0453Z"
        fill="#CED3E6" />
    <path
        d="M28.4139 48.2787C28.6327 49.2168 28.0462 49.9788 27.104 49.9788C26.1649 49.9788 25.2257 49.2168 25.0069 48.2787C24.7881 47.3406 25.3747 46.5786 26.3168 46.5786C27.259 46.5786 28.1951 47.3406 28.4139 48.2787Z"
        fill="#CED3E6" />
    <path
        d="M41.4686 50.9836C41.4686 50.9836 37.1286 51.2812 35.7427 52.6078L36.5876 55.6073C36.5876 55.6073 39.1831 54.5477 39.9004 54.651C40.6207 54.7542 41.0492 55.9321 43.4532 55.2156L41.4686 50.9836Z"
        fill="#EA9B7A" />
    <path
        d="M41.4937 50.7864L41.9831 50.5861L42.4906 50.3736C42.831 50.2309 43.1684 50.0821 43.5088 49.9303C44.1865 49.6298 44.8582 49.3201 45.5268 48.9983C46.8611 48.3578 48.171 47.6777 49.4323 46.9582C50.6935 46.2357 51.9153 45.4706 53.0277 44.651C53.3043 44.4445 53.5778 44.2381 53.8392 44.0286C54.1005 43.8161 54.3528 43.6036 54.5959 43.388C55.0731 42.957 55.5108 42.5137 55.8542 42.0826C56.0244 41.8701 56.1763 41.6546 56.2888 41.4663C56.3891 41.2933 56.4864 41.102 56.5714 40.8865C56.7416 40.4584 56.8754 39.9515 56.9666 39.3959C57.1459 38.2787 57.1519 36.9884 57.0365 35.6678C56.921 34.3442 56.6869 32.9781 56.38 31.621C56.225 30.941 56.0487 30.261 55.8572 29.5901C55.76 29.2531 55.6597 28.9191 55.5563 28.5913C55.5047 28.4273 55.45 28.2634 55.3983 28.1025L55.3193 27.8687L55.2798 27.7564L55.2615 27.7048L55.2524 27.6805L55.2494 27.6714C54.3346 25.7649 55.14 23.4758 57.0486 22.562C58.9573 21.6482 61.2488 22.4527 62.1637 24.3593C62.2518 24.5444 62.3247 24.7327 62.3825 24.9209L62.498 25.3186L62.5284 25.4248L62.5527 25.5099L62.5983 25.6738L62.6803 25.9895C62.732 26.199 62.7837 26.4024 62.8323 26.6088C62.9296 27.0187 63.0207 27.4255 63.1028 27.8323C63.273 28.6489 63.4189 29.4656 63.5435 30.2913C63.7897 31.9428 63.9568 33.6217 63.9781 35.3582C63.9902 36.2264 63.9599 37.1099 63.8808 38.0085C63.7988 38.9101 63.659 39.83 63.431 40.7711C63.2 41.7123 62.8748 42.6746 62.3946 43.634C62.1515 44.1136 61.8689 44.5872 61.5376 45.0456C61.2154 45.4889 60.8872 45.8714 60.5498 46.2326C59.8751 46.9491 59.1791 47.5441 58.4771 48.0876C57.775 48.6249 57.0638 49.1076 56.3496 49.5569C54.9211 50.4495 53.4775 51.2084 52.0217 51.9036C50.5659 52.5958 49.0979 53.2212 47.6209 53.8011C46.8823 54.0895 46.1408 54.3688 45.3931 54.6359C45.0193 54.7695 44.6454 54.9 44.2686 55.0275L43.7002 55.2188L43.1076 55.4101C41.822 55.8229 40.4422 55.1186 40.0258 53.8344C39.6307 52.611 40.2507 51.3056 41.4238 50.8229L41.4937 50.7864Z"
        fill="#EA9B7A" />
    <path
        d="M59.2496 42.5531C59.2344 42.5531 59.2192 42.55 59.207 42.547C57.7269 42.1038 56.0736 42.1706 56.0584 42.1736C55.9733 42.1766 55.9034 42.1129 55.9003 42.0279C55.8973 41.9429 55.9611 41.873 56.0462 41.87C56.1161 41.867 57.7664 41.7972 59.2982 42.2556C59.3772 42.2799 59.4228 42.3649 59.4015 42.4438C59.3772 42.5106 59.3164 42.5531 59.2496 42.5531Z"
        fill="#D46A43" />
    <path
        d="M56.4319 42.1706C56.3893 42.1706 56.3468 42.1523 56.3164 42.1189C56.2617 42.0552 56.2678 41.9611 56.3316 41.9034C56.8847 41.4268 57.5777 41.2173 57.6081 41.2082C57.6871 41.1839 57.7722 41.2294 57.7965 41.3114C57.8208 41.3903 57.7752 41.4753 57.6932 41.4996C57.6871 41.5027 57.0306 41.7 56.5291 42.1311C56.5018 42.1584 56.4653 42.1706 56.4319 42.1706Z"
        fill="#D46A43" />
    <path
        d="M64.6589 32.8869L61.5133 33.7491L61.2823 33.8129L59.1093 34.4079L58.8448 34.4807L56.0487 35.2458L55.8329 34.2561L55.7843 34.0193L55.2798 31.6938L55.2281 31.4601L54.2769 27.0732C54.0185 26.0593 53.8483 24.7903 53.9912 23.755C54.2009 22.2219 55.5473 20.2334 58.0303 20.0999C58.4741 20.0756 58.8904 20.1424 59.2795 20.2851C59.3585 20.3093 59.4375 20.3427 59.5135 20.3761C60.2642 20.7161 60.9146 21.3415 61.4738 22.146C61.5194 22.2098 61.5619 22.2735 61.6014 22.3403C62.6652 23.9554 63.3916 26.2141 63.8778 28.3271C63.8991 28.409 63.9173 28.491 63.9356 28.573C64.1605 29.5778 64.3307 30.5463 64.4583 31.3842C64.4796 31.5147 64.4978 31.6422 64.513 31.7667C64.5738 32.1826 64.6224 32.559 64.6589 32.8869Z"
        fill="#DF615C" />
    <path
        d="M64.4587 31.384C64.0849 31.044 63.5804 30.8072 62.8023 30.9469C61.8784 31.1108 61.152 30.8133 60.8603 30.1484C60.6384 29.6505 60.7417 29.0677 61.0973 28.7944C61.8085 28.248 62.8996 28.2935 63.936 28.5728C63.9177 28.4908 63.8995 28.4089 63.8782 28.3269C62.8145 28.0567 61.7021 28.0385 60.9545 28.6092C60.6202 28.8673 60.4652 29.3166 60.5199 29.7811C60.5381 29.9359 60.5807 30.0907 60.6445 30.2425C60.9849 31.0106 61.8085 31.3597 62.8449 31.1745C63.6807 31.0228 64.1426 31.3476 64.5134 31.7665C64.4982 31.6421 64.48 31.5146 64.4587 31.384Z"
        fill="#A92F4B" />
    <path
        d="M61.1733 24.5139C60.529 23.5819 61.0122 22.9656 61.6019 22.3402C61.5623 22.2734 61.5198 22.2096 61.4742 22.1459C60.8512 22.7986 60.222 23.5485 60.9818 24.6474C61.5076 25.4094 61.6383 26.0288 61.3435 26.3475C61.0122 26.7027 60.216 26.6208 59.4106 26.1472C58.669 25.71 58.4289 24.2103 58.7298 21.9212C58.8027 21.3718 59.0459 20.8769 59.3984 20.4914C59.4349 20.4519 59.4744 20.4124 59.5139 20.376C59.4379 20.3426 59.3589 20.3092 59.2799 20.2849C58.8635 20.713 58.5839 21.2685 58.4988 21.8878C58.3681 22.8988 58.2982 24.0737 58.4897 24.9844C58.6204 25.5977 58.8665 26.0956 59.292 26.3475C59.9303 26.7209 60.5594 26.8667 61.0183 26.7695C61.2189 26.727 61.3891 26.639 61.5137 26.5054C61.8906 26.1016 61.766 25.3761 61.1733 24.5139Z"
        fill="#A92F4B" />
    <path
        d="M55.2862 31.4905C54.7696 28.4212 54.1161 25.5493 54.11 25.5189C54.0948 25.4582 54.0341 25.4187 53.9733 25.4339C53.9125 25.4491 53.873 25.5098 53.8882 25.5705C53.8943 25.6009 54.5447 28.4576 55.0583 31.5117C55.0917 31.6301 55.2862 31.6362 55.2862 31.4905Z"
        fill="#A92F4B" />
    <path
        d="M54.4531 27.7866C54.4319 27.7866 54.4106 27.7806 54.3924 27.7684L53.2071 27.0095C53.1554 26.9761 53.1372 26.9062 53.1736 26.8516C53.2071 26.7969 53.277 26.7818 53.3317 26.8182L54.517 27.5772C54.5686 27.6106 54.5869 27.6804 54.5504 27.735C54.5291 27.7684 54.4927 27.7866 54.4531 27.7866Z"
        fill="#A92F4B" />
    <path
        d="M46.7728 28.1144C46.3716 28.1144 46.0038 27.9686 45.6756 27.6802C43.8004 26.0318 43.8095 20.039 43.8095 19.784C43.8095 19.6656 43.9068 19.5684 44.0283 19.5684C44.1499 19.5684 44.2472 19.6656 44.2441 19.787C44.2441 19.8477 44.235 25.8344 45.9613 27.3524C46.2561 27.6104 46.5783 27.7136 46.9399 27.6651C49.2467 27.3615 50.2953 20.6552 50.505 18.096C50.5141 17.9776 50.6205 17.8865 50.739 17.8956C50.8575 17.9048 50.9487 18.011 50.9396 18.1294C50.9365 18.1537 50.739 20.5156 50.1767 22.8987C49.4017 26.1714 48.3319 27.9201 46.9977 28.0961C46.9217 28.1113 46.8457 28.1144 46.7728 28.1144Z"
        fill="white" />
    <path
        d="M64.1948 84.0898H41.4673C40.9354 84.0898 40.5038 83.6587 40.5038 83.1274C40.5038 82.5961 40.9354 82.165 41.4673 82.165H64.1948C64.7266 82.165 65.1582 82.5961 65.1582 83.1274C65.1582 83.6587 64.7266 84.0898 64.1948 84.0898Z"
        fill="#084FC7" />
    <path
        d="M39.3762 98.7741C39.3336 98.7741 39.2911 98.771 39.2485 98.765C38.7227 98.6951 38.352 98.2094 38.4219 97.6842L42.5613 66.8095C42.6251 66.3328 43.0324 65.9746 43.5156 65.9746H62.0581C62.5413 65.9746 62.9486 66.3328 63.0124 66.8095L67.088 97.6842C67.1579 98.2094 66.7871 98.6951 66.2583 98.7619C65.7325 98.8318 65.2462 98.4614 65.1794 97.9331L61.2132 67.8933H44.3575L40.3305 97.9362C40.2667 98.4249 39.8533 98.7741 39.3762 98.7741Z"
        fill="#0875F7" />
    <path
        d="M48.8846 66.9369H60.9261C64.7404 66.9369 68.8282 64.8512 69.4117 61.0868C70.1958 56.0503 70.3873 51.1747 70.1715 46.6998C69.9253 41.639 67.9559 36.9395 63.9714 33.8035C63.9714 33.8035 65.6916 53.3241 64.1386 58.7158C62.0689 65.9199 48.8846 66.9369 48.8846 66.9369Z"
        fill="#0875F7" />
    <path
        d="M12.031 26.7391V32.5133C12.031 33.2753 12.651 33.8946 13.4138 33.8946H23.9114L27.0813 35.03C27.4065 35.1454 27.7196 34.8266 27.5919 34.5048L26.3945 31.4113V26.7361C26.3945 25.9741 25.7744 25.3547 25.0086 25.3547H13.4169C12.651 25.3547 12.031 25.9741 12.031 26.7391Z"
        fill="#0875F7" />
    <path
        d="M21.1517 29.7901C21.1517 30.3426 21.5985 30.7889 22.1516 30.7889C22.7048 30.7889 23.1515 30.3396 23.1515 29.7901C23.1515 29.2375 22.7048 28.7913 22.1516 28.7913C21.5985 28.7882 21.1517 29.2375 21.1517 29.7901Z"
        fill="#084FC7" />
    <path
        d="M17.9827 29.7901C17.9827 30.3426 18.4294 30.7889 18.9826 30.7889C19.5357 30.7889 19.9825 30.3396 19.9825 29.7901C19.9825 29.2375 19.5357 28.7913 18.9826 28.7913C18.4294 28.7882 17.9827 29.2375 17.9827 29.7901Z"
        fill="#084FC7" />
    <path
        d="M14.8125 29.7903C14.8125 30.3428 15.2623 30.7891 15.8124 30.7891C16.3656 30.7891 16.8123 30.3398 16.8123 29.7903C16.8123 29.2378 16.3625 28.7915 15.8124 28.7915C15.2593 28.7885 14.8125 29.2378 14.8125 29.7903Z"
        fill="#084FC7" />
</svg>