<svg width="77" height="98" viewBox="0 0 77 98" fill="none" xmlns="http://www.w3.org/2000/svg">
    <g clip-path="url(#clip0_1_2884)">
        <path
            d="M66.318 40.8376C66.318 40.8376 67.3446 44.1493 69.9175 44.4121C71.9958 44.6206 73.6209 42.4184 74.1696 41.5633C74.3026 41.359 74.3691 41.2338 74.3691 41.2338C74.3691 41.2338 74.5188 41.2297 74.7432 41.1921C75.2669 41.1129 76.1814 40.8751 76.4557 40.1744C76.8464 39.1817 74.8679 38.8147 74.8679 38.8147C74.8679 38.8147 75.7158 37.8095 75.3875 37.2131C75.0633 36.625 73.7415 36.6792 73.7415 36.6792C73.7415 36.6792 75.0134 35.5697 74.4356 34.8398C73.5628 33.7428 72.2992 35.2611 72.1911 35.3487C72.2701 35.2319 75.5329 30.2518 74.4938 30.0516C73.5877 29.8764 70.5825 33.8972 69.7803 34.9983C69.6515 35.1735 69.5808 35.2736 69.5808 35.2736C69.5808 35.2736 69.5185 35.2402 69.4104 35.186C68.8992 34.9357 67.3405 34.2976 66.53 35.1943C65.5532 36.2746 66.318 40.8376 66.318 40.8376Z"
            fill="#EA9B7A" />
        <path
            d="M72.6608 39.4236C72.2701 39.7364 71.9459 40.1285 71.871 40.4914C71.8253 40.725 71.8794 40.9293 72.0332 41.0837C72.1371 41.1921 72.3033 41.2755 72.5028 41.3381C73.0016 41.5007 73.6999 41.5466 74.1696 41.5591C74.3026 41.3548 74.3691 41.2296 74.3691 41.2296C74.3691 41.2296 74.5229 41.2255 74.7432 41.1879C74.7099 41.1671 74.6725 41.1587 74.6351 41.1587C73.8911 41.1754 72.6026 41.092 72.3116 40.8C72.2742 40.7625 72.2327 40.6999 72.2576 40.5706C72.3407 40.1744 72.9808 39.5738 73.5752 39.336C73.6708 39.2985 73.7207 39.1984 73.6958 39.0983C73.6708 38.9982 73.5711 38.9356 73.4713 38.9523C72.985 39.0316 71.63 39.1358 71.206 38.7062C71.1437 38.6437 71.152 38.6061 71.1561 38.5853C71.1769 38.4893 71.2767 38.3809 71.418 38.2683C71.7089 38.0389 72.1786 37.8011 72.5278 37.6635C72.5693 37.6468 72.5984 37.6218 72.6192 37.5884C72.6566 37.5342 72.6649 37.4675 72.64 37.4049C72.5984 37.3006 72.4862 37.2506 72.3823 37.2923C72.2285 37.3548 71.684 37.5759 71.2642 37.8846C71.1146 37.9972 70.9774 38.1181 70.886 38.2516C70.8278 38.335 70.7862 38.4184 70.7654 38.506C70.7405 38.6311 70.7446 38.8147 70.9234 38.994C71.2975 39.3652 72.0539 39.4361 72.6608 39.4236Z"
            fill="#D46A43" />
        <path
            d="M70.728 36.5164C70.7862 36.5748 70.807 36.6583 70.7738 36.7375C70.674 36.9794 70.62 37.2046 70.6449 37.3673C70.6657 37.4966 70.7239 37.5425 70.7738 37.5633C70.8527 37.6009 70.9733 37.6134 71.1187 37.6092C71.4804 37.5967 72.0041 37.4632 72.4738 37.3131C72.453 37.3465 72.4197 37.3715 72.3823 37.3882C72.0332 37.5258 71.5635 37.7635 71.2725 37.9929C71.2268 37.9971 71.1769 38.0013 71.1312 38.0013C70.9857 38.0055 70.8527 37.9971 70.7405 37.9721C70.6906 37.9596 70.6449 37.9429 70.6033 37.9262C70.4038 37.8345 70.2833 37.6593 70.25 37.4257C70.2126 37.1796 70.2791 36.8793 70.4038 36.579C70.4579 36.4497 70.62 36.4205 70.7197 36.5123C70.7239 36.5123 70.7239 36.5164 70.728 36.5164Z"
            fill="#D46A43" />
        <path
            d="M67.1618 37.1839C67.2033 37.2131 67.8559 37.6385 68.5791 37.8763C68.9823 38.0056 69.4063 38.0806 69.7596 37.9889C70.0547 37.918 70.275 37.747 70.4163 37.4842C70.9234 36.5541 70.2376 35.5238 69.7804 34.9941C69.6515 35.1693 69.5808 35.2694 69.5808 35.2694C69.5808 35.2694 69.5185 35.2361 69.4104 35.1818C69.8011 35.6156 70.4786 36.5332 70.0672 37.2882C69.9799 37.4508 69.8469 37.5509 69.664 37.5968C68.9782 37.7678 67.7811 37.113 67.3779 36.846C67.2865 36.7835 67.1618 36.8085 67.1036 36.9044C67.0454 36.9962 67.0703 37.1213 67.1618 37.1839Z"
            fill="#D46A43" />
        <path
            d="M69.2026 42.5561C69.2691 42.5769 69.3439 42.5644 69.3979 42.5143C69.4811 42.4393 69.4852 42.3141 69.4146 42.2307C69.0197 41.7886 68.8493 41.3006 68.9075 40.7876C69.0571 39.4696 70.6283 38.3559 70.6449 38.3434C70.7363 38.2808 70.7571 38.1557 70.6948 38.064C70.6324 37.9722 70.5077 37.9513 70.4163 38.0139C70.3456 38.064 68.683 39.2443 68.5085 40.7375C68.4336 41.3715 68.6415 41.9596 69.1153 42.4935C69.1402 42.5269 69.1693 42.5435 69.2026 42.5561Z"
            fill="#D46A43" />
        <path
            d="M44.3467 26.135L46.3709 31.2736C46.6744 32.1328 46.982 32.992 47.2937 33.8471C47.6013 34.7021 47.913 35.553 48.2289 36.3997C48.549 37.2464 48.8607 38.0889 49.1807 38.9189C49.5008 39.7489 49.8333 40.5706 50.1658 41.3672C50.4942 42.1639 50.835 42.9439 51.1717 43.6404C51.338 43.9866 51.5084 44.3078 51.6497 44.5622L51.7453 44.729L51.7827 44.7957C51.791 44.8124 51.791 44.8124 51.7952 44.8249C51.8076 44.8583 51.8118 44.8792 51.816 44.8959C51.8201 44.9292 51.8076 44.9501 51.8243 44.9793C51.8367 45.0126 51.8866 45.0543 51.9905 45.1044C52.2025 45.2003 52.6597 45.2671 53.2333 45.242C53.8111 45.217 54.4927 45.1002 55.2035 44.9167C55.9143 44.7332 56.6666 44.4954 57.4231 44.2077C58.936 43.6321 60.4864 42.9021 62.016 42.0846C63.5498 41.2713 64.6762 40.6165 66.1683 39.6822C66.6463 41.9011 68.2092 43.6946 70.4745 44.5497C69.0239 45.876 67.5026 47.1064 65.9023 48.2785C64.2938 49.4422 62.6062 50.5433 60.7483 51.5151C59.8172 51.9989 58.8488 52.4619 57.7972 52.8582C56.7456 53.2544 55.6275 53.6006 54.3639 53.8175C53.7321 53.9259 53.0629 54.001 52.348 54.0135C51.6331 54.0219 50.8724 53.976 50.0744 53.8216C49.2763 53.6673 48.4409 53.4046 47.6345 53.0041C46.8282 52.6079 46.0592 52.0699 45.4025 51.4526C45.0741 51.1439 44.7749 50.8186 44.5005 50.4849L44.3052 50.2346L44.1431 50.0178C44.089 49.9427 44.0433 49.8759 43.9934 49.8092C43.9477 49.7425 43.8937 49.6674 43.8521 49.6048C43.4947 49.0751 43.1995 48.5913 42.9252 48.1158C42.3807 47.1732 41.9193 46.2764 41.4704 45.3839C41.0298 44.4913 40.6184 43.607 40.2193 42.7228C39.8203 41.8427 39.4338 40.9627 39.0638 40.0784C38.6939 39.1984 38.3281 38.3183 37.9707 37.4341C37.6174 36.5498 37.2724 35.6698 36.9357 34.7855C36.6032 33.9013 36.2707 33.0129 35.9465 32.1245L35.4685 30.7856L35.2357 30.1099C35.1567 29.8805 35.0819 29.6636 35.0029 29.4217L44.3467 26.135Z"
            fill="#21B573" />
        <path
            d="M49.8583 47.5111C49.9372 47.5111 50.0121 47.4777 50.0619 47.4068C50.0702 47.3943 51.047 46.0971 51.8949 45.4882C52.0113 45.4048 52.0363 45.2463 51.9531 45.1295C51.87 45.0127 51.7121 44.9877 51.5957 45.0711C50.6812 45.7259 49.692 47.0439 49.6504 47.0982C49.5673 47.2108 49.5881 47.3734 49.7003 47.4569C49.7502 47.4944 49.8042 47.5111 49.8583 47.5111Z"
            fill="#217C58" />
        <path
            d="M51.5957 47.7697C51.6123 47.7697 51.6331 47.7697 51.6497 47.7655C51.7869 47.7363 51.8742 47.5987 51.8451 47.461C51.8409 47.4485 51.6081 46.3599 51.8409 45.5382C51.8783 45.4006 51.7993 45.2588 51.6663 45.2212C51.5292 45.1837 51.3878 45.263 51.3504 45.3964C51.0803 46.3432 51.3338 47.5236 51.3463 47.5736C51.3712 47.6863 51.4751 47.7697 51.5957 47.7697Z"
            fill="#217C58" />
        <path
            d="M49.2223 75.156C44.4922 77.888 33.0577 79.2936 25.6009 76.3238C22.8659 75.2352 22.3838 74.5637 22.5916 69.6337C22.5999 69.4502 22.6082 69.2666 22.6166 69.0831C22.6373 68.6952 22.6623 68.3073 22.6914 67.9236C22.7038 67.7359 22.7205 67.5524 22.7329 67.3689C22.787 66.6807 22.8535 66.005 22.9283 65.3585C22.9491 65.1791 22.9699 65.0039 22.9865 64.8288C23.1569 63.3856 23.4312 62.0885 23.6806 61.0833C23.7263 60.9039 23.7721 60.7287 23.8136 60.5703C24.0796 59.5859 24.2916 58.9936 24.2916 58.9936C25.4929 59.1897 26.7315 59.3023 27.9784 59.3523C28.153 59.3607 28.3317 59.3648 28.5063 59.369C34.9572 59.54 41.5203 58.076 44.5629 57.2794C44.7458 57.2335 44.9162 57.1876 45.0741 57.1417C45.8638 56.929 46.3127 56.7914 46.3127 56.7914C46.3127 56.7914 46.5912 57.2794 46.9819 58.0885C47.0526 58.2387 47.1316 58.3972 47.2064 58.5682C47.8257 59.9029 48.6154 61.8382 49.0644 63.8569C49.0727 63.882 49.0768 63.907 49.081 63.932C49.1184 64.1072 49.1558 64.2824 49.1932 64.4576C49.2015 64.4909 49.2098 64.5285 49.214 64.5618C49.5216 66.0258 49.8042 67.5649 49.9954 69.0331C50.0203 69.2208 50.0411 69.4085 50.0661 69.5961C50.4443 72.8244 50.5025 74.4177 49.2223 75.156Z"
            fill="#39393B" />
        <path
            d="M49.2223 64.566C49.2098 64.5618 49.1974 64.5534 49.189 64.5493C48.2289 64.0237 47.381 63.2271 46.6536 62.1718C46.5538 62.03 46.4582 61.8799 46.3626 61.7256C45.6311 60.5327 45.0284 59.0478 44.567 57.2835C44.7499 57.2376 44.9203 57.1918 45.0783 57.1459C45.5313 58.8893 46.1215 60.3408 46.8406 61.492C46.9362 61.6463 47.036 61.7923 47.1357 61.9383C47.7052 62.7558 48.3536 63.3981 49.0727 63.8611C49.081 63.8861 49.0851 63.9111 49.0893 63.9361C49.1267 64.1113 49.1641 64.2865 49.2015 64.4617C49.2057 64.495 49.214 64.5284 49.2223 64.566Z"
            fill="#585859" />
        <path
            d="M28.5105 59.369C28.3026 61.2292 27.887 62.8017 27.2801 64.0822C27.2012 64.249 27.118 64.4158 27.0266 64.5702C26.5278 65.4752 25.9168 66.2135 25.1977 66.7807C24.3166 67.4731 23.4188 67.7859 22.6914 67.9194C22.7038 67.7317 22.7205 67.5482 22.7329 67.3647C23.3689 67.2312 24.1337 66.9434 24.8819 66.3553C25.5053 65.8673 26.0374 65.2333 26.4821 64.4659C26.5735 64.3074 26.6608 64.1447 26.744 63.9779C27.3591 62.7391 27.7706 61.1959 27.9868 59.3481C28.1572 59.3607 28.3317 59.3648 28.5105 59.369Z"
            fill="#585859" />
        <path
            d="M47.2106 58.5723C46.8448 58.735 46.4541 58.9018 46.0343 59.0728C45.8722 59.1395 45.7059 59.2063 45.5355 59.273C43.0998 60.2282 39.9118 61.2083 36.4702 61.5628C36.3372 61.5754 36.2042 61.5879 36.0753 61.6004C32.9538 61.8882 29.7741 61.7547 27.1555 61.5086C26.9684 61.4919 26.7814 61.4753 26.6027 61.4544C25.497 61.3418 24.5036 61.2125 23.6806 61.0874C23.7264 60.908 23.7721 60.7328 23.8136 60.5743C24.6616 60.6995 25.6799 60.8329 26.8188 60.9497C26.9975 60.9664 27.1804 60.9831 27.3633 60.9998C30.0318 61.2417 33.2697 61.3626 36.4161 61.0373C39.7746 60.6911 42.8878 59.736 45.2778 58.8059C45.4482 58.7391 45.6103 58.6724 45.7724 58.6098C46.2047 58.4346 46.6079 58.2636 46.982 58.0968C47.0568 58.2428 47.1316 58.4013 47.2106 58.5723Z"
            fill="#585859" />
        <path
            d="M54.5551 97.704C53.8651 87.0014 52.2981 77.0788 50.0037 69.0372L37.3223 74.9641C37.7171 84.7032 39.6665 91.4518 41.911 97.704H54.5551Z"
            fill="#39393B" />
        <path
            d="M43.9602 97.7039C40.2817 87.1723 39.6374 78.5552 39.6291 78.4426C39.6166 78.2966 39.4919 78.1882 39.3465 78.1965C39.201 78.2048 39.0888 78.3341 39.1012 78.4801C39.1095 78.5886 39.7538 87.1765 43.4032 97.7039H43.9602Z"
            fill="#585859" />
        <path
            d="M34.7993 97.704C35.5807 90.1004 36.4826 80.7617 36.599 77.1455L22.5916 69.6295C22.5916 69.6295 20.1227 78.1799 21.7437 97.6999H34.7993V97.704Z"
            fill="#39393B" />
        <path
            d="M33.5191 97.7039L35.8675 78.234C35.8883 78.0672 35.7719 77.917 35.6056 77.9004C35.4394 77.8795 35.2897 77.9963 35.2731 78.1631L32.9164 97.7039H33.5191Z"
            fill="#585859" />
        <path
            d="M37.8169 75.4229C37.8335 75.5689 37.9665 75.669 38.1078 75.6565C38.2533 75.6398 38.3572 75.5063 38.3406 75.3603C38.2242 74.3718 38.112 73.3583 38.0039 72.3489C37.9832 72.1696 37.9665 71.9944 37.9499 71.815C37.6049 68.5033 37.3306 65.2458 37.1477 62.9393C37.1352 62.7516 37.1186 62.5723 37.1061 62.3971C37.0646 61.8924 37.0313 61.4419 37.0022 61.0624C36.8235 61.0624 36.6489 61.0665 36.4702 61.0665C36.4993 61.4461 36.5325 61.9007 36.5741 62.4096C36.5866 62.5848 36.6032 62.7641 36.6157 62.9518C36.7985 65.2375 37.0729 68.4658 37.4137 71.7566C37.4303 71.9402 37.4511 72.1195 37.4677 72.303C37.58 73.3458 37.6963 74.3968 37.8169 75.4229Z"
            fill="#585859" />
        <path
            d="M36.4993 72.0945C36.5866 72.1196 36.9814 72.2363 37.4719 72.2989C37.6423 72.3239 37.8252 72.3406 38.0081 72.3448C38.1785 72.349 38.3448 72.3448 38.511 72.3281C38.8311 72.2906 39.1262 72.2071 39.3589 72.0361C39.6499 71.8234 39.8078 71.5023 39.812 71.106C39.8328 70.0633 39.5335 65.8215 39.3049 62.8267C39.2924 62.6432 39.28 62.4639 39.2633 62.2887C39.2259 61.809 39.1927 61.3752 39.1636 61.004C38.989 61.0124 38.8103 61.0207 38.6357 61.0249C38.6648 61.3961 38.6981 61.8382 38.7355 62.3262C38.7479 62.5014 38.7604 62.6807 38.777 62.8643C39.0015 65.8548 39.3008 70.0883 39.28 71.0977C39.2758 71.3313 39.201 71.4939 39.043 71.6107C38.7895 71.7942 38.3739 71.8359 37.9457 71.8151C37.7628 71.8067 37.58 71.7859 37.4095 71.7567C37.0937 71.7066 36.8152 71.6399 36.6447 71.5899C36.5034 71.5481 36.3579 71.6274 36.3164 71.7692C36.279 71.9027 36.358 72.0528 36.4993 72.0945Z"
            fill="#585859" />
        <path
            d="M20.5383 30.4477L40.7555 29.9263C40.1279 29.0463 40.1861 20.6377 39.9076 18.9026C39.6166 17.1091 39.8411 13.5596 40.1071 10.6566C40.6225 5.08428 36.1127 0.308568 30.543 0.58385C30.4599 0.588021 30.3768 0.592191 30.2895 0.596362C21.7894 1.13858 21.166 8.44605 21.9557 12.8714C22.6789 16.9005 23.186 27.8784 20.5383 30.4477Z"
            fill="#39393B" />
        <path
            d="M24.9276 56.7955L26.5569 63.6567C30.6303 63.3314 35.4477 62.7391 39.0763 60.858C39.0763 60.858 43.9103 62.4889 46.3626 61.7297L44.567 56.7997H24.9276V56.7955Z"
            fill="white" />
        <path
            d="M48.8566 61.8757C44.1597 61.8423 41.3416 61.2334 38.7812 59.1271C33.9763 64.1363 22.1095 64.3282 22.1095 64.3282C23.2983 60.4826 23.6848 53.6798 23.6848 53.6798C23.5892 52.9749 23.5393 52.2408 23.4645 51.4942C23.3897 50.7518 23.2899 49.9969 23.0987 49.2545C21.9266 45.8635 20.5591 43.4318 19.3413 39.9241C19.2623 39.6947 19.1833 39.4695 19.1002 39.2442C19.0462 39.0941 18.9921 38.9481 18.9381 38.8021C18.5391 37.7052 18.1068 36.6124 17.6579 35.5613C15.6919 30.9691 15.376 25.7888 20.1019 24.208C20.4469 24.0954 20.7836 23.9828 21.1119 23.8785C23.3481 23.1695 25.2102 22.7023 25.7298 22.5772C25.8254 22.5563 25.8711 22.5438 25.8711 22.5438L35.7927 23.3697L36.7362 23.4489C38.1245 23.6032 39.5917 23.5657 40.5186 23.7701C41.3333 23.9494 41.8279 23.9077 42.6592 24.1538C44.6128 24.7336 44.5587 27.3738 45.1656 30.6521C45.1739 30.7063 45.1864 30.7647 45.1947 30.8231C45.1988 30.8398 45.203 30.8607 45.2071 30.8773C45.3152 31.4362 45.4399 31.9868 45.5854 32.5332C45.7475 33.1422 45.9262 33.7469 46.1133 34.3309C47.2563 37.9304 48.6363 39.5821 48.3993 41.8511C48.1832 43.9032 46.1008 46.7018 45.548 47.2983C45.4191 47.4359 45.3443 47.511 45.3443 47.511C45.3443 47.5194 45.3485 47.5319 45.3485 47.5444C45.3568 47.6236 45.3651 47.7112 45.3776 47.803C45.4191 48.1492 45.4815 48.5579 45.5563 49.0251C45.7267 50.756 45.9719 52.3284 46.2463 53.7257C46.3959 54.4806 46.5539 55.1855 46.7201 55.8362C47.7135 59.7777 48.8566 61.8757 48.8566 61.8757Z"
            fill="#21B573" />
        <path
            d="M46.7201 55.8238C45.3775 56.537 44.2927 57.0125 44.2927 57.0125L43.291 55.1189C44.2511 54.7727 45.2778 54.2597 46.2463 53.7091C46.4665 54.3014 46.6702 54.8978 46.7201 55.8238Z"
            fill="#217C58" />
        <path
            d="M25.0731 54.051C25.0731 54.051 29.587 55.9738 32.9289 56.2992L32.4176 58.3805C32.4176 58.3805 26.9435 57.4754 24.753 55.9071L25.0731 54.051Z"
            fill="#217C58" />
        <path
            d="M46.1548 46.9897C46.2213 46.9897 46.2878 46.9647 46.3419 46.9105C46.4624 46.7812 49.3304 43.7114 48.3328 40.9127C48.0543 40.1369 47.7343 39.3486 47.3893 38.5185C46.3502 35.991 45.1739 33.1297 44.8746 29.4176C44.8622 29.2758 44.7375 29.1715 44.6003 29.184C44.459 29.1965 44.3551 29.3175 44.3675 29.4593C44.6751 33.2507 45.868 36.1536 46.9196 38.7146C47.2605 39.5404 47.5805 40.3204 47.8548 41.0878C48.7485 43.5904 46.0052 46.5309 45.9761 46.5601C45.8805 46.6644 45.8847 46.8229 45.9844 46.923C46.026 46.9647 46.0925 46.9897 46.1548 46.9897Z"
            fill="#217C58" />
        <path
            d="M37.821 36.0493C37.821 36.3579 37.5716 36.6082 37.2641 36.6082C36.9565 36.6082 36.7071 36.3579 36.7071 36.0493C36.7071 35.7406 36.9565 35.4904 37.2641 35.4904C37.5716 35.4904 37.821 35.7406 37.821 36.0493Z"
            fill="#217C58" />
        <path
            d="M38.6482 40.996C38.6482 41.3047 38.3988 41.5549 38.0912 41.5549C37.7836 41.5549 37.5342 41.3047 37.5342 40.996C37.5342 40.6874 37.7836 40.4371 38.0912 40.4371C38.3988 40.4371 38.6482 40.6874 38.6482 40.996Z"
            fill="#217C58" />
        <path
            d="M39.147 46.0303C39.147 46.339 38.8976 46.5892 38.59 46.5892C38.2824 46.5892 38.033 46.339 38.033 46.0303C38.033 45.7217 38.2824 45.4714 38.59 45.4714C38.8976 45.4714 39.147 45.7217 39.147 46.0303Z"
            fill="#217C58" />
        <path
            d="M39.3589 51.2023C39.3589 51.511 39.1095 51.7612 38.802 51.7612C38.4944 51.7612 38.245 51.511 38.245 51.2023C38.245 50.8937 38.4944 50.6434 38.802 50.6434C39.1095 50.6434 39.3589 50.8937 39.3589 51.2023Z"
            fill="#217C58" />
        <path
            d="M39.334 56.587C39.334 56.8956 39.0846 57.1459 38.777 57.1459C38.4695 57.1459 38.2201 56.8956 38.2201 56.587C38.2201 56.2783 38.4695 56.0281 38.777 56.0281C39.0846 56.0281 39.334 56.2783 39.334 56.587Z"
            fill="#217C58" />
        <path
            d="M34.6496 23.3572C34.6496 23.3572 36.8027 23.1611 38.3157 23.5657L38.1536 29.2424L36.865 29.5218L37.9499 30.5937L36.6489 34.406C36.6489 34.4018 34.8699 28.062 34.6496 23.3572Z"
            fill="#217C58" />
        <path
            d="M25.8711 22.5438L21.9308 23.6241L26.5611 29.7971L30.0318 29.5176L28.8139 32.1828L36.6531 34.4018C36.6531 34.4018 27.5753 25.7513 26.8479 22.6231L25.8711 22.5438Z"
            fill="#217C58" />
        <path
            d="M26.5569 23.0068C26.5569 23.0068 28.8222 27.8451 36.6489 34.4018C36.6489 34.4018 36.2291 29.2424 34.6538 23.7117C34.6538 23.7117 30.0484 25.3217 26.5569 23.0068Z"
            fill="white" />
        <path
            d="M37.7421 38.4518C35.165 38.4518 29.9029 34.748 29.6785 34.5895C29.5829 34.5228 29.5621 34.3893 29.6286 34.2934C29.6951 34.1974 29.8281 34.1766 29.9237 34.2433C29.9777 34.2809 35.2981 38.0305 37.7421 38.0305C40.0822 38.0305 40.5976 35.4654 40.6059 35.4404C40.6267 35.3236 40.7389 35.2485 40.8553 35.2735C40.9717 35.2944 41.0465 35.407 41.0216 35.5238C41.0132 35.5488 40.423 38.4518 37.7421 38.4518Z"
            fill="#217C58" />
        <path
            d="M34.6496 23.3572L34.7535 24.7002C34.953 27.1986 33.1782 27.9077 30.6012 26.5855C28.5645 25.5386 26.8354 23.9786 26.5528 23.011L34.6496 23.3572Z"
            fill="#EA9B7A" />
        <path
            d="M30.9587 48.8791C31.0002 48.9542 31.0792 48.9959 31.1582 48.9959C31.1956 48.9959 31.2372 48.9876 31.2704 48.9667C31.3078 48.9459 35.032 46.8395 39.5793 47.7321C41.8903 48.1826 43.8521 48.1367 45.3776 47.7947C45.3651 47.7029 45.3568 47.6195 45.3485 47.5361C45.3485 47.5236 45.3443 47.5152 45.3443 47.5027C45.3443 47.5027 45.4191 47.4276 45.548 47.2942C44.0558 47.6737 42.0607 47.7488 39.6665 47.2775C34.9448 46.3515 31.1998 48.4745 31.0418 48.5663C30.9337 48.6289 30.8963 48.7707 30.9587 48.8791Z"
            fill="#217C58" />
        <path
            d="M38.9017 6.67761C38.9017 6.67761 40.0448 11.1864 39.3132 11.9705C38.5817 12.7588 37.4968 11.0696 37.4968 11.0696C37.4968 11.0696 38.033 6.85696 38.9017 6.67761Z"
            fill="#39393B" />
        <path
            d="M37.6423 12.6462C37.6423 12.6462 38.8269 11.2447 39.4961 12.6462C40.1653 14.0476 39.6499 16.888 37.8501 16.425L37.6423 12.6462Z"
            fill="#D46A43" />
        <path
            d="M36.6032 16.1373C35.9465 16.4459 35.4893 17.1133 35.4893 17.8891C35.4893 18.9568 36.3538 19.8244 37.4179 19.8244C38.4819 19.8244 39.3465 18.9568 39.3465 17.8891C39.3465 17.1216 38.9017 16.4585 38.2575 16.1456C38.0372 16.0372 37.792 15.9705 37.5343 15.9579C37.4885 15.837 37.447 15.716 37.3971 15.5992C37.4054 15.5992 37.4137 15.5992 37.4179 15.5992C37.7338 15.5992 38.0372 15.666 38.3074 15.7828C39.122 16.1331 39.6998 16.9465 39.6998 17.8891C39.6998 19.1529 38.6773 20.1789 37.4179 20.1789C36.1585 20.1789 35.136 19.1529 35.136 17.8891C35.136 17.0382 35.6015 16.2958 36.2873 15.8996L36.6032 16.1373Z"
            fill="white" />
        <path
            d="M34.6538 19.8453V23.7117C34.6538 23.7117 32.6213 27.0527 26.5569 23.0069C27.7041 21.718 27.7415 19.2322 27.276 17.7473C27.276 17.7473 27.7208 18.0476 28.4565 18.3771C28.6061 18.4439 28.7682 18.5148 28.9386 18.5857C30.4557 19.228 32.7335 19.9954 34.6538 19.8453Z"
            fill="#EA9B7A" />
        <path
            d="M34.6538 19.8452V21.6554C33.0037 21.2884 30.1149 20.3833 28.4565 18.3771C28.6061 18.4438 28.7682 18.5147 28.9386 18.5856C30.4557 19.2279 32.7335 19.9954 34.6538 19.8452Z"
            fill="#39393B" />
        <path
            d="M37.9499 18.5815C34.712 21.9432 27.5254 17.9308 27.2926 17.8015C27.2885 17.7973 27.2885 17.7973 27.2885 17.7973C27.222 17.497 27.1638 17.1967 27.1098 16.9006C26.6525 14.4022 26.6235 12.079 26.877 9.87257C26.7565 7.54519 28.1364 5.38048 30.3186 4.57966C32.5797 3.75381 34.6081 4.75067 35.8259 5.12605C37.6631 5.6933 38.8228 8.07907 38.8311 11.4784C38.8394 15.6451 38.7521 17.7431 37.9499 18.5815Z"
            fill="#EA9B7A" />
        <path
            d="M38.4403 7.59935C37.6922 7.70363 36.9232 7.78288 36.1335 7.84544L35.7012 5.76832L35.5599 7.88715C34.1051 7.98725 32.5963 8.02479 31.0459 8.02479L30.8547 5.83922L30.4308 8.02479C29.2836 8.02062 28.1198 7.99559 26.9476 7.96222C26.0083 3.6036 30.7176 1.70583 34.6787 2.61092C38.6357 3.52018 38.4403 7.59935 38.4403 7.59935Z"
            fill="#39393B" />
        <path
            d="M29.9528 6.67762C29.9528 6.67762 28.4939 8.62962 29.2919 10.444C30.09 12.2583 29.533 14.0351 29.1547 15.3573C29.1547 15.3573 28.3276 12.4377 26.3782 11.8955C24.4288 11.3491 25.4347 5.99776 29.9528 6.67762Z"
            fill="#39393B" />
        <path
            d="M35.1692 16.7463C35.5973 16.813 35.9423 16.6962 35.9631 16.6879C36.0337 16.6628 36.0753 16.5836 36.0504 16.5127C36.0254 16.4418 35.9465 16.4001 35.8758 16.4251C35.8675 16.4293 35.1983 16.6462 34.6413 16.2374C34.579 16.1915 34.4917 16.204 34.446 16.2666C34.4002 16.3292 34.4127 16.4168 34.4751 16.4585C34.7078 16.6295 34.9489 16.7129 35.1692 16.7463Z"
            fill="#D46A43" />
        <path
            d="M37.2266 14.5732C37.2266 14.5732 34.9738 15.3615 33.2821 14.2437C33.2821 14.2437 33.8765 15.7702 35.3354 15.9162C36.7944 16.058 37.2266 14.5732 37.2266 14.5732Z"
            fill="white" />
        <path
            d="M33.6396 8.3877C33.6396 8.3877 34.313 8.45443 34.076 9.07173C33.8391 9.68903 32.4924 9.00916 31.5281 10.1478C31.5281 10.1478 31.1166 8.66715 33.6396 8.3877Z"
            fill="#39393B" />
        <path
            d="M36.6863 8.3877C36.6863 8.3877 36.013 8.45443 36.2499 9.07173C36.4868 9.68903 37.8335 9.00916 38.7978 10.1478C38.7978 10.1478 39.2093 8.66715 36.6863 8.3877Z"
            fill="#39393B" />
        <g opacity="0.8">
            <path
                d="M33.2738 12.9716C33.2738 13.2844 32.6296 13.543 31.8315 13.543C31.0335 13.543 30.3892 13.2886 30.3892 12.9716C30.3892 12.6587 31.0335 12.4001 31.8315 12.4001C32.6296 12.4001 33.2738 12.6546 33.2738 12.9716Z"
                fill="#D46A43" />
        </g>
        <path
            d="M39.1511 13.5221C39.0389 13.5347 38.9225 13.5388 38.802 13.5388C38.0039 13.5388 37.3597 13.2844 37.3597 12.9674C37.3597 12.6546 38.0039 12.396 38.802 12.396C38.9101 12.396 39.014 12.4002 39.1137 12.4085L39.1511 13.5221Z"
            fill="#D46A43" />
        <path
            d="M33.4401 11.4783C33.4401 11.9121 33.2447 12.2625 33.0037 12.2625C32.7626 12.2625 32.5672 11.9121 32.5672 11.4783C32.5672 11.0446 32.7626 10.6942 33.0037 10.6942C33.2447 10.6942 33.4401 11.0446 33.4401 11.4783Z"
            fill="#39393B" />
        <path
            d="M37.7005 11.4783C37.7005 11.9121 37.5051 12.2625 37.2641 12.2625C37.023 12.2625 36.8276 11.9121 36.8276 11.4783C36.8276 11.0446 37.023 10.6942 37.2641 10.6942C37.5051 10.6942 37.7005 11.0446 37.7005 11.4783Z"
            fill="#39393B" />
        <path
            d="M36.0296 13.1259C36.2374 13.1259 36.3746 13.0925 36.3871 13.0883C36.4369 13.0758 36.4743 13.0425 36.4993 13.0007C36.5242 12.9549 36.5284 12.9048 36.5117 12.8589L35.855 10.9737C35.8218 10.8819 35.722 10.8319 35.6306 10.8652C35.5391 10.8986 35.4893 10.9987 35.5225 11.0905L36.1044 12.7672C35.9257 12.7755 35.6514 12.7588 35.377 12.6087C35.2897 12.5628 35.1817 12.5962 35.1359 12.6796C35.0902 12.7672 35.1235 12.8756 35.2066 12.9215C35.51 13.0842 35.8093 13.1259 36.0296 13.1259Z"
            fill="#39393B" />
        <path
            d="M28.6934 16.0455C28.6726 16.0956 28.1073 17.4136 27.2926 17.7973C27.2885 17.7932 27.2885 17.7932 27.2885 17.7932C27.222 17.4928 27.1638 17.1925 27.1097 16.8964C27.1347 16.8964 27.9577 16.7504 28.6934 16.0455Z"
            fill="#39393B" />
        <path
            d="M27.9036 13.0466C27.9036 13.0466 26.1828 10.7275 24.9193 12.5502C23.8801 14.0518 25.8378 18.0559 27.941 16.5919L27.9036 13.0466Z"
            fill="#EA9B7A" />
        <path
            d="M26.1205 16.617C25.4638 16.9256 25.0066 17.6055 25.0066 18.3771C25.0066 19.4449 25.8711 20.3124 26.9352 20.3124C27.9992 20.3124 28.8638 19.4449 28.8638 18.3771C28.8638 17.6097 28.419 16.9465 27.7748 16.6337C27.5545 16.5252 27.3093 16.4585 27.0516 16.446C27.0058 16.325 26.9643 16.2041 26.9144 16.0873C26.9227 16.0873 26.931 16.0873 26.9352 16.0873C27.2511 16.0873 27.5545 16.154 27.8247 16.2708C28.6393 16.6212 29.2171 17.4345 29.2171 18.3771C29.2171 19.6409 28.1946 20.667 26.9352 20.667C25.6758 20.667 24.6533 19.6409 24.6533 18.3771C24.6533 17.5263 25.1313 16.7713 25.8171 16.3751C25.9127 16.4627 26.0124 16.5461 26.1205 16.617Z"
            fill="white" />
        <path
            d="M27.6667 15.9245C27.675 15.9245 27.6792 15.9245 27.6875 15.9245C27.7831 15.912 27.8538 15.8244 27.8454 15.7285C27.6293 13.7557 25.975 13.0716 25.9044 13.0424C25.8129 13.0049 25.709 13.0508 25.6757 13.1425C25.6383 13.2343 25.6841 13.3386 25.7755 13.3719C25.842 13.397 27.3051 14.0101 27.4963 15.766C27.5005 15.8578 27.5794 15.9245 27.6667 15.9245Z"
            fill="#39393B" />
        <path
            d="M26.0166 14.8485C26.054 14.8485 26.0956 14.836 26.1288 14.8068C26.2826 14.6817 26.7481 14.373 27.0557 14.4523C27.1513 14.4773 27.2469 14.4189 27.2719 14.323C27.2968 14.227 27.2386 14.1311 27.143 14.1061C26.611 13.9684 25.975 14.4731 25.9044 14.5274C25.8296 14.5899 25.8171 14.7025 25.8794 14.7776C25.9127 14.8277 25.9626 14.8485 26.0166 14.8485Z"
            fill="#39393B" />
        <path
            d="M14.2537 49.78C14.2537 49.78 14.819 51.0063 14.1664 53.6798C13.5138 56.3576 12.4207 58.0343 12.4207 58.0343C12.4207 58.0343 9.68572 53.8675 14.2537 49.78Z"
            fill="#217C58" />
        <path
            d="M2.18323 47.2232C2.19154 47.3567 2.19986 47.4943 2.21232 47.6236C2.22895 47.7571 2.24973 47.8864 2.27052 48.0199C2.28299 48.0824 2.2913 48.1492 2.30792 48.2159L2.35365 48.4036C2.47003 48.9124 2.65291 49.3671 2.85243 49.7842C2.95218 49.9844 3.06441 50.1887 3.17248 50.3639C3.23067 50.4515 3.2847 50.5433 3.34289 50.6309L3.51746 50.877C3.99131 51.5234 4.49424 52.0073 4.98055 52.4202C5.47102 52.8331 5.95733 53.171 6.43117 53.4754C6.66809 53.6298 6.90501 53.7674 7.14193 53.905C7.37469 54.0427 7.60746 54.1678 7.84022 54.2929C8.30575 54.5349 8.76296 54.7643 9.22018 54.9728C10.1346 55.3941 11.0407 55.7486 11.9468 56.0698C12.8488 56.3909 13.7549 56.6787 14.6527 56.9415C15.5547 57.2084 16.4525 57.4503 17.3544 57.6714C18.2564 57.8925 19.1584 58.0927 20.0686 58.2845C20.397 58.3513 20.8501 58.3971 21.3239 58.4347C22.0471 58.4889 22.8327 58.5306 23.3481 58.6182C23.4728 57.8674 22.841 57.2626 22.9657 56.5119C23.1112 55.636 23.2567 54.7559 23.4146 53.88L23.053 53.0959C22.5043 52.9624 21.9557 52.8206 21.4029 52.6746C21.3862 52.6704 21.3696 52.6663 21.353 52.6621C20.5508 52.4452 19.7569 52.2033 18.9672 51.9447C18.165 51.6861 17.3669 51.4067 16.5813 51.1105C15.7999 50.8144 15.0351 50.4974 14.2911 50.1596C13.5512 49.8217 12.828 49.4672 12.1588 49.0876C11.8263 48.8999 11.4979 48.7081 11.1987 48.5037C11.049 48.4036 10.8994 48.3035 10.7622 48.1992C10.6251 48.0949 10.4921 47.9907 10.3674 47.8864C10.1762 47.7279 10.0016 47.5611 9.86028 47.4067C9.81871 47.3609 9.78131 47.3191 9.7439 47.2733L9.73974 47.2649L9.86859 47.0897L10.1014 46.7728C10.2219 46.6059 10.3383 46.4433 10.4713 46.2722C10.729 45.9344 10.9784 45.6007 11.2402 45.2629L12.0341 44.2535C12.5745 43.582 13.1107 42.9021 13.6635 42.2306L14.075 41.7259L14.4906 41.2212L15.0767 40.5122L15.3261 40.2119L15.6295 39.8448L16.1657 39.1983L17.0136 38.189C17.5747 37.5175 18.14 36.8418 18.7095 36.1744L22.1053 32.1536L22.1261 32.1286C23.5559 30.4352 23.3481 27.8951 21.6606 26.4603C19.9855 25.038 17.4874 25.2341 16.0493 26.8858L15.1598 27.9118L14.2869 28.9379C13.996 29.2799 13.7092 29.6261 13.4224 29.9681C13.1356 30.3101 12.8446 30.6563 12.562 31.0025C11.9926 31.6948 11.4231 32.3914 10.8578 33.0921L10.0141 34.1474L9.90184 34.2892L9.17446 35.2109C8.89597 35.5655 8.61749 35.9242 8.34316 36.2787L7.92751 36.8167L7.74047 37.0628L7.51601 37.359C6.96736 38.0805 6.42286 38.8104 5.88251 39.5487L5.07615 40.6707C4.81014 41.0461 4.54412 41.4381 4.2781 41.8177C4.1451 42.0054 4.01209 42.2056 3.87908 42.41L3.48421 43.0106L3.38446 43.1607L3.35952 43.1983L3.34705 43.2191L3.32627 43.2483L3.24314 43.3818C3.1891 43.4736 3.13507 43.5611 3.08103 43.6529C3.05609 43.6988 3.027 43.7488 3.00206 43.7989L2.92724 43.949C2.87736 44.0491 2.82749 44.1451 2.77761 44.2493C2.73189 44.3578 2.68617 44.4662 2.6446 44.5747L2.58225 44.7415C2.56147 44.7957 2.54069 44.8583 2.52406 44.9167C2.48665 45.0335 2.44924 45.1544 2.41599 45.2712C2.38274 45.3922 2.3578 45.5215 2.32871 45.6466C2.30377 45.7717 2.27467 45.8969 2.25805 46.0303C2.24142 46.1638 2.22479 46.2931 2.21232 46.4266C2.19986 46.56 2.1957 46.6935 2.19154 46.8312L2.18739 47.0314C2.17907 47.0856 2.18323 47.1523 2.18323 47.2232Z"
            fill="#EA9B7A" />
        <path
            d="M19.7154 52.1783C19.7154 52.1783 19.0669 51.5443 18.2689 51.707C18.2689 51.707 16.3818 54.9144 17.3628 57.6672C17.3628 57.6672 17.7992 58.0635 18.7178 57.9884C18.7136 57.9884 17.7992 54.6767 19.7154 52.1783Z"
            fill="black" />
        <path
            d="M16.0535 54.977C16.1116 56.0323 17.0136 56.8373 18.061 56.7789C19.1126 56.7205 19.9148 55.8154 19.8566 54.7643C19.7985 53.7091 18.8965 52.9041 17.8491 52.9625C16.7975 53.0209 15.9953 53.9218 16.0535 54.977Z"
            fill="black" />
        <path
            d="M18.0361 56.2992C18.8217 56.2533 19.4244 55.5776 19.3787 54.7935C19.3329 54.0052 18.6596 53.4004 17.8782 53.4463C17.0926 53.4922 16.4899 54.1679 16.5356 54.952C16.5772 55.7361 17.2505 56.3409 18.0361 56.2992Z"
            fill="white" />
        <path
            d="M21.3197 58.3304C22.043 58.3846 22.8285 58.4264 23.344 58.5139C23.4686 57.7632 22.8369 57.1584 22.9616 56.4076C23.107 55.5317 23.2525 54.6517 23.4105 53.7758L23.0488 52.9916C22.5002 52.8582 21.9515 52.7164 21.3987 52.5704C21.3821 52.5662 21.3655 52.562 21.3488 52.5579C21.1244 53.805 20.7752 56.416 21.3197 58.3304Z"
            fill="#D46A43" />
        <path
            d="M23.0946 28.4373C23.4811 29.6886 23.186 31.0567 22.3298 32.0452C20.7254 33.9054 17.6579 37.5008 15.9579 39.7572C13.5803 42.9105 10.5752 46.8687 10.5752 46.8687C10.5752 46.8687 12.7366 48.7748 14.2537 49.78C14.2537 49.78 10.5461 52.9249 12.4207 58.0343C12.4207 58.0343 5.75782 54.3597 2.3869 50.8311C-0.0737447 48.2534 0.607921 45.0376 2.85659 41.9595C3.99131 40.4079 12.749 30.3935 15.8581 26.8899C17.0053 25.5969 18.8175 25.0797 20.4469 25.6428C21.4902 26.0099 22.5875 26.7898 23.0946 28.4373Z"
            fill="#21B573" />
        <path
            d="M21.4735 53.5089C21.4735 53.5089 21.7354 51.9782 22.1303 50.51C22.4586 49.2837 23.1237 48.9042 23.1237 48.9042C23.2691 49.7384 23.4728 50.243 23.4977 51.7613C23.4977 51.7613 23.8677 51.4151 24.541 51.5527C25.2144 51.6904 27.5337 52.1825 27.567 52.7206C27.6335 53.951 24.7281 53.3671 24.7281 53.3671C24.7281 53.3671 27.8413 53.9552 27.7623 54.8186C27.7 55.5151 24.8819 55.6486 24.8819 55.6486C24.8819 55.6486 27.6002 55.6736 27.2718 56.6538C26.9269 57.6923 24.4039 57.0375 24.4039 57.0375C24.4039 57.0375 26.2203 57.9134 26.0457 58.2804C25.7921 58.8101 24.7156 58.9561 22.9782 58.5307C21.1909 58.0927 21.4735 53.5089 21.4735 53.5089Z"
            fill="#EA9B7A" />
        <path
            d="M18.2647 37.505C18.1982 37.5133 18.1276 37.4966 18.0735 37.4508C17.9738 37.3632 17.9571 37.213 18.0444 37.1129L22.0679 32.3205C22.1552 32.2204 22.3048 32.2037 22.4046 32.2913C22.5044 32.3789 22.521 32.5291 22.4337 32.6292L18.4102 37.4216C18.3728 37.4716 18.3188 37.4967 18.2647 37.505Z"
            fill="#217C58" />
        <path
            d="M22.6374 33.9555L21.1161 34.1891C20.9831 34.2099 20.8625 34.1182 20.8418 33.9889C20.821 33.8554 20.9124 33.7344 21.0413 33.7136L22.5625 33.48C22.6956 33.4592 22.8161 33.5509 22.8369 33.6802C22.8577 33.8095 22.7704 33.9346 22.6374 33.9555Z"
            fill="#217C58" />
        <path
            d="M6.26492 47.9073C6.28986 47.9406 6.32311 47.9615 6.36052 47.9657C6.40208 47.974 6.4478 47.9657 6.48521 47.9365C7.6324 47.0814 9.67324 46.9897 10.6833 47.0022C10.6417 46.9563 10.6043 46.9146 10.5669 46.8687L10.5586 46.8604L10.6874 46.681C10.596 46.681 10.4962 46.6769 10.3882 46.681C9.75638 46.0721 8.05221 45.4798 7.97739 45.4548C7.89426 45.4256 7.80698 45.4715 7.77788 45.5507C7.74879 45.6341 7.79451 45.7217 7.87348 45.7509C7.89011 45.7551 9.18693 46.2055 9.90185 46.6935C8.78791 46.7436 7.26663 46.9521 6.29401 47.682C6.22751 47.7363 6.21504 47.8364 6.26492 47.9073Z"
            fill="#217C58" />
    </g>
    <defs>
        <clipPath id="clip0_1_2884">
            <rect width="75.6815" height="97.1326" fill="white" transform="translate(0.828217 0.571411)" />
        </clipPath>
    </defs>
</svg>