<svg width="185" height="217" viewBox="0 0 185 217" fill="none" xmlns="http://www.w3.org/2000/svg">
    <g clip-path="url(#clip0_1_27)">
        <path
            d="M86.7769 55.342L96.0403 89.2031L92.7351 85.3993C93.9572 86.0512 95.3755 86.5512 96.9395 86.8993C98.5034 87.2537 100.213 87.4563 101.999 87.5449C103.784 87.6398 105.646 87.6208 107.552 87.5449C109.457 87.4626 111.401 87.3234 113.377 87.1525H113.389C116.302 86.9056 118.866 89.0639 119.113 91.9753C119.348 94.7538 117.378 97.2095 114.675 97.6526C112.636 97.9754 110.565 98.2855 108.444 98.5323C106.317 98.7792 104.139 98.9627 101.885 99.0134C99.6305 99.064 97.294 98.9754 94.8753 98.6273C92.4629 98.2792 89.9618 97.6463 87.5178 96.5956C85.9538 95.9184 84.8394 94.6399 84.3329 93.1399L84.2126 92.7855L73.1003 59.4876C71.8529 55.7471 73.8728 51.6964 77.6212 50.4496C81.3633 49.2027 85.4156 51.2217 86.663 54.9686C86.7073 55.0825 86.7453 55.2218 86.7769 55.342Z"
            fill="#EA9B7A" />
        <path
            d="M90.3481 178.084C90.2088 178.084 90.0695 178.058 89.9302 178.008L41.4034 160.52C40.7702 160.292 40.4346 159.59 40.6689 158.957C40.8968 158.324 41.5996 157.989 42.2328 158.223L90.7596 175.71C91.3928 175.938 91.7284 176.641 91.4941 177.274C91.3168 177.774 90.8483 178.084 90.3481 178.084Z"
            fill="#C77E2E" />
        <path
            d="M39.8014 178.084C39.3012 178.084 38.8326 177.774 38.649 177.274C38.4211 176.641 38.7503 175.938 39.3835 175.704L88.4865 157.925C89.1197 157.697 89.8225 158.027 90.0568 158.659C90.2847 159.292 89.9555 159.995 89.3223 160.229L40.2193 178.008C40.08 178.065 39.9407 178.084 39.8014 178.084Z"
            fill="#C77E2E" />
        <path
            d="M94.66 209.344C93.6279 209.344 92.7288 208.578 92.5832 207.527L83.82 142.102H47.1463L38.5161 207.521C38.3641 208.666 37.313 209.477 36.167 209.325C35.0209 209.173 34.2104 208.122 34.3624 206.976L43.2332 139.742C43.3725 138.697 44.259 137.919 45.3101 137.919H85.6625C86.7136 137.919 87.6001 138.697 87.7394 139.735L96.7495 206.97C96.9015 208.116 96.0973 209.173 94.9513 209.325C94.85 209.337 94.755 209.344 94.66 209.344Z"
            fill="#FAAF3A" />
        <path
            d="M73.9677 140.014H47.7668C39.4658 140.014 30.576 135.469 29.297 127.273C27.5937 116.305 27.1695 105.691 27.6444 95.9437C28.1826 84.9246 33.4506 74.6713 42.1125 67.8358C42.1125 67.8358 47.3489 90.6398 40.7638 122.115C43.2839 134.064 73.9677 140.014 73.9677 140.014Z"
            fill="#FAAF3A" />
        <path
            d="M68.5097 6.26555C68.5097 6.26555 65.3945 -1.24086 57.1442 0.176877C51.3822 1.16423 48.9255 8.34152 49.2611 19.4302C49.755 35.5633 44.297 45.2849 44.297 45.2849L51.5405 46.9305C51.5469 46.9305 69.9914 19.272 68.5097 6.26555Z"
            fill="#39393B" />
        <path
            d="M134.601 181.312H122.893C122.893 181.312 120.183 168.324 119.278 161.046C118.366 153.761 117.898 136.501 117.898 136.501C117.898 136.501 108.571 139.533 89.0437 138.387C45.7786 135.862 62.1843 104.089 62.1843 104.089C63.6469 106.108 72.6 104.71 78.7229 105.672C97.5093 107.475 113.795 114.843 123.571 119.058C125.926 120.071 128.016 121.146 129.852 122.279C132.207 123.729 133.683 128.14 134.576 133.931C137.241 151.343 134.601 181.312 134.601 181.312Z"
            fill="#39393B" />
        <path
            d="M124.343 175.052C124.147 175.052 123.976 174.913 123.932 174.717C122.241 166.362 121.678 155.963 121.222 147.609C120.842 140.678 120.487 134.134 119.595 133.349C118.873 132.71 115.878 133.21 112.091 133.836C104.55 135.09 93.153 136.976 80.5908 134.058C73.7461 132.463 68.7123 129.14 65.6351 124.178C60.3227 115.621 62.7478 105.007 62.7731 104.899C62.8238 104.672 63.0517 104.532 63.2797 104.589C63.5076 104.64 63.6469 104.868 63.5899 105.096C63.5646 105.197 61.2282 115.482 66.3569 123.741C69.3139 128.507 74.1703 131.703 80.7871 133.241C93.191 136.128 104.487 134.254 111.965 133.014C116.441 132.273 119.145 131.824 120.164 132.722C121.266 133.697 121.576 138.482 122.07 147.564C122.526 155.894 123.09 166.254 124.768 174.552C124.812 174.78 124.666 175.001 124.438 175.046C124.4 175.046 124.375 175.052 124.343 175.052Z"
            fill="#585859" />
        <path
            d="M134.823 175.274H134.816L121.798 174.995C121.564 174.989 121.38 174.799 121.386 174.565C121.393 174.331 121.583 174.147 121.817 174.153L134.835 174.432C135.069 174.438 135.253 174.628 135.247 174.862C135.234 175.09 135.05 175.274 134.823 175.274Z"
            fill="#585859" />
        <path d="M134.278 196.299H126.015L124.426 186.609L123.552 181.312H133.816L133.98 186.609L134.278 196.299Z"
            fill="#EA9B7A" />
        <path d="M134.278 196.299H126.015L124.831 189.084L124.426 186.609H133.98L134.056 189.179L134.278 196.299Z"
            fill="#FAAF3A" />
        <path d="M134.056 189.179L124.831 189.084L124.426 186.609H133.98L134.056 189.179Z" fill="#C77E2E" />
        <path
            d="M154.666 209.344H123.419C123.185 208.92 123.058 208.325 123.007 207.609C122.811 204.964 123.653 200.749 124.065 198.09C124.115 197.78 124.16 197.489 124.191 197.229C124.248 196.786 124.286 196.413 124.286 196.141C124.286 193.97 126.205 194.343 126.205 194.343C129.365 197.445 132.948 192.793 135.038 194.318C135.038 194.318 135.12 194.381 135.316 194.527C135.494 194.666 135.76 194.881 136.127 195.192C136.659 195.635 137.406 196.28 138.419 197.192C140.901 199.426 145.118 200.894 148.708 202.394C149.164 202.584 149.588 202.78 149.987 202.97C150.285 203.116 150.57 203.261 150.836 203.4C153.774 204.983 154.704 206.502 154.92 207.603C155.122 208.666 154.666 209.344 154.666 209.344Z"
            fill="#0875F7" />
        <path
            d="M150.836 203.407C150.031 204.046 148.24 205.331 146.802 205.331C146.739 205.331 146.676 205.331 146.612 205.325C145.599 205.242 141.876 203.413 138.843 201.749C137.108 200.793 135.519 199.856 134.379 199.103C132.511 197.869 132.182 197.4 132.113 197.071C131.84 195.837 133.879 194.983 135.31 194.533C135.487 194.673 135.753 194.888 136.121 195.198C134.348 195.679 132.885 196.438 132.955 196.875C133.132 197.242 134.981 198.647 139.4 201.071C142.775 202.919 145.973 204.407 146.682 204.47C147.644 204.546 149.056 203.673 149.981 202.983C150.291 203.116 150.57 203.261 150.836 203.407Z"
            fill="#084FC7" />
        <path
            d="M154.666 209.344H123.419C123.185 208.92 123.058 208.325 123.007 207.609H154.926C155.122 208.666 154.666 209.344 154.666 209.344Z"
            fill="#084FC7" />
        <path
            d="M126.604 209.344H125.673C126.598 208.287 127.465 206.66 127.351 204.343C127.199 201.255 125.35 199.179 124.058 198.09C124.109 197.78 124.153 197.489 124.185 197.229C125.572 198.286 127.908 200.609 128.092 204.306C128.206 206.521 127.478 208.173 126.604 209.344Z"
            fill="#084FC7" />
        <path
            d="M137.887 199.04C137.659 199.04 137.444 198.881 137.387 198.647C137.317 198.369 137.488 198.09 137.76 198.021L139.711 197.533C139.989 197.464 140.268 197.635 140.338 197.907C140.407 198.185 140.236 198.464 139.964 198.533L138.014 199.021C137.976 199.033 137.931 199.04 137.887 199.04Z"
            fill="white" />
        <path
            d="M135.95 197.413C135.722 197.413 135.506 197.255 135.449 197.021C135.38 196.742 135.551 196.464 135.823 196.394L137.773 195.907C138.052 195.837 138.33 196.008 138.4 196.28C138.47 196.559 138.299 196.837 138.026 196.9L136.076 197.388C136.032 197.407 135.994 197.413 135.95 197.413Z"
            fill="white" />
        <path
            d="M139.844 200.173C139.616 200.173 139.4 200.014 139.343 199.78C139.274 199.502 139.445 199.223 139.717 199.16L141.667 198.673C141.946 198.603 142.224 198.774 142.294 199.046C142.364 199.324 142.193 199.603 141.92 199.673L139.97 200.16C139.926 200.166 139.882 200.173 139.844 200.173Z"
            fill="white" />
        <path
            d="M141.794 201.261C141.566 201.261 141.351 201.103 141.294 200.869C141.224 200.59 141.395 200.312 141.667 200.242L143.617 199.755C143.896 199.685 144.175 199.856 144.244 200.128C144.314 200.407 144.143 200.685 143.871 200.749L141.92 201.236C141.876 201.261 141.838 201.261 141.794 201.261Z"
            fill="white" />
        <path
            d="M143.921 202.274C143.693 202.274 143.478 202.116 143.421 201.881C143.351 201.603 143.522 201.324 143.795 201.261L145.745 200.774C146.023 200.704 146.302 200.875 146.372 201.147C146.441 201.426 146.27 201.704 145.998 201.774L144.048 202.261C144.004 202.268 143.966 202.274 143.921 202.274Z"
            fill="white" />
        <path
            d="M146.232 203.135C146.004 203.135 145.789 202.976 145.732 202.742C145.663 202.464 145.834 202.185 146.106 202.116L148.056 201.628C148.335 201.559 148.613 201.73 148.683 202.002C148.752 202.28 148.582 202.559 148.309 202.622L146.359 203.109C146.315 203.128 146.27 203.135 146.232 203.135Z"
            fill="white" />
        <path
            d="M40.5169 94.007C40.5169 94.007 40.1497 96.5323 43.5308 97.2412L78.7862 98.4184C78.7862 98.4184 81.167 97.2222 80.7364 94.2728C80.7301 94.2665 65.844 85.9119 40.5169 94.007Z"
            fill="#084FC7" />
        <path
            d="M79.2611 105.665C60.9622 115.729 40.9791 107.627 40.9791 107.627C41.9542 104.963 42.6824 101.956 43.2079 99.2222C43.8157 96.0386 44.1577 93.2285 44.316 91.7538C52.0977 91.3297 71.1817 90.5132 78.6596 92.2854L78.7165 95.2791L79.2611 105.665Z"
            fill="#EA9B7A" />
        <path
            d="M65.7427 100.836C65.6098 101.779 65.1792 102.501 64.793 102.444C64.4004 102.387 64.1978 101.577 64.3307 100.634C64.4637 99.6905 64.8943 98.969 65.2805 99.026C65.6731 99.0829 65.882 99.8931 65.7427 100.836Z"
            fill="#D96C63" />
        <path
            d="M78.7166 95.2791C70.9221 94.8044 55.5929 94.6398 43.2079 99.2158C43.8158 96.0323 44.1577 93.2221 44.316 91.7474C52.0977 91.3234 71.1817 90.5069 78.6596 92.2791L78.7166 95.2791Z"
            fill="#D96C63" />
        <path
            d="M87.4101 80.8043C87.3341 81.0321 87.2455 81.241 87.1505 81.4372C87.1125 81.5131 87.0745 81.5891 87.0365 81.6587C86.0551 83.4752 84.5418 85.0511 83.2691 86.1714C83.0032 86.4056 82.7499 86.6144 82.5156 86.8043C82.0471 87.1841 81.6482 87.4816 81.3759 87.6778C81.1226 87.855 80.977 87.9499 80.977 87.9499C80.977 87.9689 80.977 87.9816 80.9707 88.0069C80.958 88.1398 80.9454 88.2854 80.9327 88.4373C80.8884 89.0132 80.8504 89.6968 80.8251 90.4816C80.7997 91.1082 80.7807 91.798 80.7681 92.5449C80.7617 93.0955 80.7491 93.6715 80.7427 94.2664C70.4029 89.6461 49.1028 92.5639 40.5232 94.0069C40.6815 93.2664 40.8208 92.5386 40.9538 91.8297C41.5616 88.5575 41.9036 85.6144 42.0365 82.9752C42.2391 79.0511 41.8972 73.1523 41.0614 67.0573C41.0108 66.6586 40.9538 66.2661 40.8968 65.8737C40.8588 65.6142 40.8208 65.3611 40.7765 65.1016C40.4852 63.1902 40.1433 61.2724 39.7571 59.4116C38.0665 51.2976 39.2505 42.7849 47.4819 41.7786C48.077 41.7026 48.6659 41.6393 49.2421 41.576C53.1171 41.1646 56.3084 41.0191 57.1948 40.9874C57.3594 40.9811 57.4418 40.9811 57.4418 40.9811L73.3472 45.6014L74.8605 46.0381C75.728 46.3166 76.5321 46.5887 77.2792 46.8546C77.5958 46.9685 77.9061 47.0824 78.1974 47.19C78.9698 47.4811 79.6663 47.7596 80.3058 48.0444C81.5785 48.6077 82.5916 49.1584 83.3831 49.7217C86.8719 52.1964 86.3337 54.9939 86.2451 60.5193C86.2451 60.5446 86.2451 60.5699 86.2451 60.5952C86.2451 60.6648 86.2451 60.7344 86.2451 60.8104C86.2451 60.842 86.2451 60.8737 86.2451 60.9053C86.2451 61.1332 86.2451 61.3547 86.2451 61.5826C86.2514 62.2978 86.2767 63.0066 86.321 63.7155C86.378 64.7598 86.473 65.7978 86.587 66.8105C86.6313 67.2155 86.6756 67.6206 86.7263 68.0257C86.7706 68.4054 86.8212 68.7788 86.8719 69.1523C87.4861 73.9877 88.2776 78.222 87.4101 80.8043Z"
            fill="#0875F7" />
        <path
            d="M86.2261 60.5952C86.2261 60.6649 86.2261 60.7345 86.2261 60.8104C86.2261 60.8421 86.2261 60.8737 86.2261 60.9054C86.2261 61.1332 86.2261 61.3547 86.2261 61.5826L82.8829 63.6775C82.7816 63.7408 82.6676 63.7598 82.5536 63.7408C82.427 63.7219 82.313 63.6459 82.237 63.532C82.0977 63.3105 82.1674 63.0256 82.3827 62.8864L85.9285 60.6649C86.0234 60.6079 86.1247 60.5826 86.2261 60.5952Z"
            fill="#084FC7" />
        <path
            d="M64.1914 78.4877C64.0648 78.4877 63.9382 78.4371 63.8432 78.3358C63.6722 78.146 63.6849 77.8485 63.8749 77.6776L66.9838 74.8801C67.1737 74.7092 67.4713 74.7219 67.6423 74.9118C67.8132 75.1016 67.8006 75.3991 67.6106 75.57L64.5017 78.3675C64.4131 78.4498 64.3054 78.4877 64.1914 78.4877Z"
            fill="#084FC7" />
        <path
            d="M86.8466 69.1459L84.7191 71.0636C84.6305 71.1459 84.5165 71.1839 84.4088 71.1839C84.2822 71.1839 84.1556 71.1333 84.0606 71.032C83.8896 70.8421 83.9023 70.5446 84.0922 70.3738L86.7009 68.0256C86.7516 68.3991 86.8023 68.7788 86.8466 69.1459Z"
            fill="#084FC7" />
        <path
            d="M57.885 67.2409C57.8153 67.1333 57.7837 67.0004 57.8153 66.8675C57.8723 66.6143 58.1256 66.4624 58.3789 66.5194L62.4502 67.4814C62.7035 67.5384 62.8554 67.7916 62.7985 68.0447C62.7415 68.2979 62.4882 68.4498 62.2349 68.3928L58.1636 67.4308C58.0433 67.3991 57.9483 67.3295 57.885 67.2409Z"
            fill="#084FC7" />
        <path
            d="M43.3599 75.2283C43.2332 75.2283 43.1066 75.1777 43.0116 75.0764C42.8407 74.8866 42.8533 74.5891 43.0433 74.4182L46.1522 71.6207C46.3421 71.4498 46.6397 71.4625 46.8107 71.6523C46.9817 71.8422 46.969 72.1397 46.779 72.3106L43.6701 75.1081C43.5815 75.184 43.4675 75.2283 43.3599 75.2283Z"
            fill="#084FC7" />
        <path
            d="M79.5523 74.5574C79.5903 74.4372 79.6853 74.3296 79.8056 74.2789C80.0399 74.1777 80.3185 74.2853 80.4198 74.5194L82.0914 78.3549C82.1927 78.5891 82.0851 78.8676 81.8508 78.9689C81.6165 79.0701 81.3379 78.9625 81.2366 78.7283L79.565 74.8929C79.5207 74.7853 79.5144 74.665 79.5523 74.5574Z"
            fill="#084FC7" />
        <path
            d="M87.4101 80.8043C87.3341 81.0321 87.2455 81.241 87.1505 81.4372C87.1125 81.5132 87.0745 81.5891 87.0365 81.6587L84.7634 80.9435C84.6494 80.9056 84.5608 80.8296 84.5038 80.7347C84.4405 80.6271 84.4152 80.4878 84.4595 80.3613C84.5355 80.1144 84.8014 79.9815 85.042 80.0575L87.4101 80.8043Z"
            fill="#084FC7" />
        <path
            d="M74.5692 81.1397C74.6959 81.127 74.8288 81.165 74.9302 81.2599C75.1201 81.4308 75.1328 81.7283 74.9618 81.9182L72.1505 85.0132C71.9795 85.203 71.682 85.2157 71.492 85.0448C71.302 84.8739 71.2894 84.5764 71.4603 84.3866L74.2717 81.2916C74.354 81.203 74.4616 81.1523 74.5692 81.1397Z"
            fill="#084FC7" />
        <path
            d="M72.9166 74.0004C72.79 73.9815 72.676 73.9055 72.6001 73.7916C72.4608 73.5764 72.5304 73.2852 72.7457 73.146L76.2915 70.9245C76.5068 70.7852 76.798 70.8548 76.9373 71.07C77.0766 71.2852 77.007 71.5764 76.7917 71.7156L73.2459 73.9371C73.1383 74.0004 73.0243 74.0194 72.9166 74.0004Z"
            fill="#084FC7" />
        <path
            d="M75.1708 60.5319C75.2531 60.6269 75.3037 60.7535 75.2847 60.8927C75.2594 61.1459 75.0251 61.3358 74.7719 61.3041L70.6119 60.8484C70.3586 60.8231 70.1687 60.5889 70.2003 60.3357C70.2256 60.0826 70.4599 59.8927 70.7132 59.9243L74.8732 60.3801C74.9935 60.3927 75.0948 60.4497 75.1708 60.5319Z"
            fill="#084FC7" />
        <path
            d="M69.1239 51.5128C69.1556 51.3862 69.2379 51.2786 69.3582 51.2153C69.5861 51.095 69.8711 51.1773 69.9914 51.4052L71.9732 55.0888C72.0935 55.3166 72.0112 55.6014 71.7833 55.7217C71.5553 55.8419 71.2704 55.7596 71.1501 55.5318L69.1682 51.8482C69.1112 51.7406 69.0986 51.6204 69.1239 51.5128Z"
            fill="#084FC7" />
        <path
            d="M83.2628 86.1778C82.9968 86.412 82.7436 86.6208 82.5093 86.8107L81.9648 85.4183C81.9204 85.3044 81.9204 85.1904 81.9648 85.0828C82.0091 84.9626 82.1041 84.8613 82.2307 84.8107C82.4713 84.7157 82.7436 84.836 82.8385 85.0702L83.2628 86.1778Z"
            fill="#084FC7" />
        <path
            d="M45.0188 79.089C44.9555 78.9751 44.9428 78.8422 44.9935 78.7093C45.0821 78.4688 45.348 78.3422 45.5886 78.4308L49.527 79.8485C49.7676 79.9371 49.8943 80.203 49.8056 80.4435C49.717 80.684 49.451 80.8106 49.2104 80.7219L45.2721 79.3042C45.1581 79.2662 45.0758 79.1903 45.0188 79.089Z"
            fill="#084FC7" />
        <path
            d="M46.95 84.4119C47.0766 84.4119 47.2033 84.4689 47.2982 84.5702C47.4692 84.76 47.4502 85.0575 47.2603 85.2284L44.126 88.0006C43.9361 88.1715 43.6385 88.1525 43.4675 87.9626C43.2966 87.7727 43.3156 87.4753 43.5055 87.3044L46.6397 84.5322C46.7284 84.4436 46.836 84.4056 46.95 84.4119Z"
            fill="#084FC7" />
        <path
            d="M52.6296 88.8107C52.7119 88.912 52.7499 89.0449 52.7246 89.1778C52.6803 89.431 52.4396 89.6019 52.1864 89.5576L48.0644 88.855C47.8111 88.8107 47.6401 88.5702 47.6845 88.317C47.7288 88.0639 47.9694 87.893 48.2227 87.9373L52.3447 88.6398C52.4586 88.6588 52.5599 88.7221 52.6296 88.8107Z"
            fill="#084FC7" />
        <path
            d="M56.0741 49.6584C56.0424 49.5382 56.0551 49.3989 56.1311 49.285C56.2704 49.0698 56.5617 49.0065 56.7769 49.1458L60.2911 51.4116C60.5064 51.5509 60.5697 51.842 60.4304 52.0572C60.2911 52.2724 59.9998 52.3357 59.7845 52.1964L56.2704 49.9306C56.1754 49.861 56.1058 49.766 56.0741 49.6584Z"
            fill="#084FC7" />
        <path
            d="M80.0652 52.3294C80.1792 52.2661 80.3122 52.2534 80.4451 52.2977C80.6858 52.3863 80.8124 52.6521 80.7301 52.8927L79.3308 56.8357C79.2421 57.0762 78.9762 57.2028 78.7356 57.1205C78.495 57.0319 78.3683 56.7661 78.4506 56.5256L79.85 52.5825C79.888 52.4686 79.9639 52.38 80.0652 52.3294Z"
            fill="#084FC7" />
        <path
            d="M78.1847 47.19L76.0256 49.9621C75.8673 50.1647 75.576 50.2026 75.3734 50.0444C75.1708 49.8862 75.1328 49.595 75.2911 49.3925L77.2666 46.8608C77.5832 46.9684 77.8871 47.0824 78.1847 47.19Z"
            fill="#084FC7" />
        <path
            d="M57.0555 85.4436C57.0999 85.5765 57.2138 85.6714 57.3405 85.6967C57.4038 85.7094 57.4734 85.7094 57.5368 85.6841C57.6064 85.6588 64.3751 83.4689 71.492 86.4183C75.1075 87.9183 78.324 88.4879 80.9264 88.4373C80.939 88.2854 80.9517 88.1398 80.9644 88.0069C80.9644 87.9879 80.9707 87.9689 80.9707 87.9563C80.9707 87.9563 81.1163 87.8613 81.3696 87.6841C78.8115 87.8107 75.538 87.2664 71.7833 85.7157C64.3941 82.6524 57.5811 84.8676 57.2961 84.9626C57.0999 85.0259 56.9922 85.2411 57.0555 85.4436Z"
            fill="#084FC7" />
        <path
            d="M73.3345 45.6014C72.4418 46.9812 70.6055 48.5445 66.8825 48.2786C61.7474 47.9052 58.3662 43.0064 57.1885 40.9938C57.3468 40.9874 57.4354 40.9874 57.4354 40.9874L73.3345 45.6014Z"
            fill="#084FC7" />
        <path
            d="M67.8702 54.6901C68.0222 54.7217 68.1741 54.7407 68.3261 54.7534C69.7444 54.8673 70.8968 54.4559 71.7453 53.5318C74.2146 50.8356 73.2016 44.6836 73.1572 44.4241C73.1193 44.2153 72.923 44.076 72.7203 44.114C72.5114 44.152 72.3721 44.3482 72.4101 44.5507C72.4228 44.614 73.4042 50.5951 71.1881 53.0192C70.4979 53.7723 69.5798 54.0951 68.3957 54.0002C63.419 53.6014 57.8407 40.9621 57.7837 40.8355C57.7014 40.6456 57.4734 40.557 57.2835 40.6393C57.0935 40.7216 57.0049 40.9494 57.0872 41.1393C57.3088 41.6583 62.5958 53.6204 67.8702 54.6901Z"
            fill="white" />
        <path
            d="M83.3704 49.7217C83.0412 53.3673 83.9403 59.3863 86.2957 63.7155C86.2387 62.7851 86.2134 61.8421 86.2261 60.9053C86.2261 60.8737 86.2261 60.842 86.2261 60.8104C86.2261 60.7155 86.2324 60.6205 86.2324 60.5256C86.321 54.9939 86.8592 52.1964 83.3704 49.7217Z"
            fill="#EA9B7A" />
        <path
            d="M54.1176 56.1395C52.294 63.1776 45.6203 68.8232 41.0614 67.0637C41.0044 66.6713 40.9538 66.2725 40.8968 65.8801C40.8588 65.6206 40.8208 65.3675 40.7828 65.108C40.4916 63.1965 40.1497 61.2788 39.7634 59.418C38.0728 51.304 39.2632 42.7913 47.4882 41.7849C48.0834 41.709 48.6722 41.6457 49.2484 41.5824C53.3514 43.3356 56.2134 48.0382 54.1176 56.1395Z"
            fill="#EA9B7A" />
        <path
            d="M55.0547 50.7724L65.7427 89.8487L61.931 85.4563C63.343 86.2031 64.9766 86.7854 66.7875 87.1905C68.592 87.5955 70.5676 87.8297 72.6254 87.9373C74.6896 88.0449 76.836 88.0259 79.0332 87.9373C81.2303 87.8487 83.4781 87.6841 85.7575 87.4879H85.7702C89.1324 87.2031 92.0893 89.6905 92.3742 93.0513C92.6465 96.2538 90.3734 99.0956 87.2455 99.602C84.8964 99.9754 82.503 100.33 80.0526 100.615C77.6022 100.899 75.0885 101.108 72.4798 101.172C69.8774 101.229 67.1801 101.134 64.3941 100.729C61.6144 100.324 58.7271 99.602 55.9031 98.3805C54.0986 97.602 52.8132 96.1209 52.2244 94.3931L52.0914 93.988L39.2759 55.5572C37.8322 51.2407 40.1687 46.5698 44.4869 45.1267C48.8052 43.6837 53.4781 46.0192 54.9217 50.3357C54.966 50.4749 55.0167 50.6395 55.0547 50.7724Z"
            fill="#EA9B7A" />
        <path
            d="M59.8415 88.5954C59.7339 88.5954 59.6262 88.5385 59.5692 88.4372C59.4806 88.2853 59.5376 88.0954 59.6895 88.0068C59.7909 87.9498 62.1273 86.627 64.5714 86.4435C64.7486 86.4308 64.9006 86.5574 64.9133 86.7346C64.9259 86.9119 64.7993 87.0638 64.622 87.0764C62.3236 87.2536 60.0251 88.5448 60.0061 88.5574C59.9491 88.5828 59.8922 88.5954 59.8415 88.5954Z"
            fill="#D96C63" />
        <path
            d="M63.7229 87.1841C63.6659 87.1841 63.6089 87.1715 63.5583 87.1398C62.083 86.2474 60.2974 86.1082 60.2784 86.1082C60.1011 86.0955 59.9745 85.9436 59.9871 85.7727C59.9998 85.5955 60.1454 85.4689 60.3227 85.4816C60.3987 85.4879 62.2792 85.6272 63.8812 86.6019C64.0332 86.6905 64.0775 86.8867 63.9888 87.0386C63.9382 87.1335 63.8305 87.1841 63.7229 87.1841Z"
            fill="#D96C63" />
        <path
            d="M73.2586 66.589C77.9884 67.5447 80.0589 62.6586 80.0779 62.608C80.1602 62.4118 80.0652 62.1902 79.8689 62.1143C79.6727 62.032 79.451 62.1269 79.3751 62.3232C79.2991 62.5067 77.5135 66.6776 73.4105 65.8485C69.0986 64.9751 61.0572 56.5003 60.9812 56.4117C60.8356 56.2598 60.595 56.2535 60.443 56.399C60.2911 56.5446 60.2847 56.7851 60.4304 56.937C60.7596 57.2851 68.7123 65.6713 73.2586 66.589Z"
            fill="#084FC7" />
        <path
            d="M65.8187 35.8164C65.8187 35.8164 58.2269 34.3861 56.0868 26.7277C54.0479 19.4365 55.6182 15.6517 57.7394 11.7149C59.335 8.74655 64.4004 4.74018 71.4983 6.1769C78.6659 7.62629 84.0289 11.3099 84.8204 17.2023C86.302 28.2278 77.3996 41.6773 65.8187 35.8164Z"
            fill="#39393B" />
        <path
            d="M56.4477 27.905C56.3084 27.905 56.1754 27.8353 56.1058 27.7024C55.9665 27.4619 52.7752 21.7213 55.4283 14.1643C57.0872 9.44274 60.3481 7.33512 62.7985 6.39207C65.4451 5.37308 67.6676 5.47434 67.7626 5.47434C67.9779 5.487 68.1488 5.67055 68.1362 5.89207C68.1235 6.10726 67.9462 6.27815 67.7246 6.26549C67.7056 6.26549 65.5465 6.17688 63.0517 7.13892C59.7339 8.42374 57.4228 10.8731 56.1754 14.4238C53.649 21.6264 56.7643 27.253 56.7959 27.31C56.9036 27.4999 56.8403 27.7404 56.6503 27.848C56.5806 27.8923 56.511 27.905 56.4477 27.905Z"
            fill="#FAAF3A" />
        <path
            d="M80.5464 28.0316C80.5464 28.0316 83.0158 26.0822 83.668 28.6645C84.3202 31.2468 82.484 35.8355 79.6093 34.4431L80.5464 28.0316Z"
            fill="#D96C63" />
        <path
            d="M78.134 32.7785C76.9057 33.1836 75.8229 34.2722 75.5443 35.6203C75.1391 37.633 76.4434 39.595 78.4506 40.0064C80.4641 40.4115 82.427 39.1077 82.8386 37.1013C83.1425 35.595 82.4903 34.114 81.2936 33.2975C80.8947 33.019 80.4325 32.8228 79.9259 32.7215C79.9133 32.7215 79.9006 32.7152 79.8879 32.7152C79.8183 32.9684 79.8436 33.1709 79.9892 33.3291C80.3945 33.4367 80.7617 33.6203 81.0846 33.8608C82.0154 34.5697 82.5156 35.7659 82.2687 36.9874C81.9268 38.6836 80.2615 39.7849 78.5646 39.4431C76.8677 39.1014 75.7659 37.4368 76.1079 35.7406C76.3611 34.5064 77.2729 33.6329 78.419 33.3545L78.134 32.7785Z"
            fill="#FAAF3A" />
        <path
            d="M73.0623 39.095L72.0302 45.5634C72.0302 45.5634 67.1864 50.5065 58.3409 41.6393C60.7153 39.8735 61.6207 35.7722 61.3421 33.1266C61.3421 33.1266 62.0386 33.5443 63.115 34.519C63.324 34.7089 63.5963 34.8545 63.8559 35.038C66.1923 36.6266 69.7761 38.6899 73.0623 39.095Z"
            fill="#EA9B7A" />
        <path
            d="M73.0623 39.095L72.5747 42.1583C69.9217 40.9748 65.2299 38.4494 63.115 34.5127C63.343 34.6773 63.5963 34.8481 63.8559 35.0317C66.1923 36.6266 69.7761 38.69 73.0623 39.095Z"
            fill="#39393B" />
        <path
            d="M82.9399 26.4746C82.8006 27.1582 82.6739 27.8101 82.541 28.4303C82.4017 29.1012 82.2687 29.7341 82.1357 30.3291C81.1543 34.8038 80.3502 37.2026 79.0458 38.1013C72.4418 42.6393 61.6967 33.4494 61.3485 33.1519C61.3422 33.1456 61.3422 33.1456 61.3422 33.1456C61.3358 32.6202 61.3358 32.0949 61.3422 31.5823C61.4245 27.2278 62.1653 23.3164 63.343 19.7024C63.9319 15.753 66.9964 12.5884 70.9411 11.9935C75.0315 11.3795 78.1087 13.7466 80.0336 14.791C82.9399 16.3669 84.0733 20.7657 82.9399 26.4746Z"
            fill="#EA9B7A" />
        <path
            d="M63.5646 15.639C63.5646 15.639 68.1868 6.75287 77.4059 9.23391C86.625 11.7149 87.1125 15.9935 87.2771 18.1327C87.4418 20.272 82.503 16.4808 82.503 16.4808C82.503 16.4808 82.332 20.7593 80.6858 19.4429C78.6659 17.8226 76.4118 14.3352 76.4118 14.3352C76.4118 14.3352 70.9221 19.7277 65.7047 18.272C62.7415 17.4492 63.5646 15.639 63.5646 15.639Z"
            fill="#39393B" />
        <path
            d="M74.8922 35.1899C73.6955 35.1899 72.8723 34.3607 72.8343 34.3164C72.7077 34.1835 72.7077 33.9747 72.8407 33.8481C72.9736 33.7215 73.1763 33.7215 73.3029 33.8544C73.3472 33.8987 74.297 34.8417 75.5507 34.4114C75.7216 34.3544 75.9116 34.443 75.9686 34.6139C76.0256 34.7848 75.9369 34.9747 75.766 35.0316C75.4557 35.1455 75.1644 35.1899 74.8922 35.1899Z"
            fill="#D96C63" />
        <path
            d="M72.1315 29.8101C72.1315 29.8101 76.5764 31.1265 78.8812 31.1265C78.8812 31.1265 77.7288 34.4177 74.4363 33.2658C71.8719 32.367 72.1315 29.8101 72.1315 29.8101Z"
            fill="white" />
        <path
            d="M80.3882 20.5569C80.3882 20.5569 79.2358 20.4366 79.4194 21.5569C79.6093 22.6771 82.1104 21.9936 83.3514 24.2341C83.3451 24.2341 84.5418 21.886 80.3882 20.5569Z"
            fill="#39393B" />
        <path
            d="M75.2531 19.5189C75.2531 19.5189 76.3611 19.8607 75.7533 20.8164C75.1454 21.7721 73.1066 20.1708 71.0931 21.7531C71.0931 21.7531 70.9031 19.1202 75.2531 19.5189Z"
            fill="#39393B" />
        <path
            d="M73.2459 27.5379C73.1383 28.0632 71.9605 28.2721 70.6182 27.9999C69.2759 27.7278 68.2754 27.0822 68.3831 26.5505C68.4907 26.0252 69.6621 25.8164 71.0108 26.0885C72.3531 26.3607 73.3535 27.0062 73.2459 27.5379Z"
            fill="#D96C63" />
        <path
            d="M86.3717 27.886L82.7816 27.2721C82.7626 27.424 82.7246 27.5759 82.6929 27.7215C82.6866 27.7468 82.6803 27.7721 82.6676 27.7974L86.2831 28.4113C86.4287 28.4367 86.568 28.3354 86.5933 28.1898C86.6123 28.0506 86.5237 27.905 86.3717 27.886Z"
            fill="white" />
        <path
            d="M76.7854 24.8226C76.7854 24.6391 76.779 24.4556 76.7537 24.2783C76.6334 23.3036 76.2028 22.4049 75.5443 21.7087C74.9365 21.0694 74.145 20.6011 73.2269 20.3986C73.2142 20.3922 73.1953 20.3922 73.1826 20.3859C71.0804 19.9555 69.0099 21.0568 68.1551 22.9302C68.0792 23.0948 68.0159 23.2593 67.9589 23.4302C67.9082 23.5821 67.8702 23.7404 67.8322 23.8986C67.5916 25.0758 67.8259 26.2404 68.4148 27.1898C68.611 27.5125 68.858 27.81 69.1302 28.0695C69.7254 28.6455 70.4789 29.0632 71.3464 29.2404C72.809 29.5442 74.2463 29.1012 75.2784 28.1771C75.9749 27.5569 76.4878 26.7087 76.6904 25.7277C76.6904 25.7214 76.6904 25.7214 76.6904 25.7151C76.7537 25.4176 76.7854 25.1138 76.7854 24.8226ZM71.454 28.7151C71.4287 28.7088 71.4097 28.7088 71.3907 28.7024C70.2573 28.4493 69.3392 27.7277 68.801 26.7847C68.3388 25.9682 68.1551 24.9935 68.3578 24.0062C68.4021 23.8037 68.4591 23.6074 68.5287 23.4176C68.5351 23.4049 68.5414 23.3923 68.5414 23.3796C69.1049 21.9176 70.4789 20.9239 72.0239 20.8353C72.3658 20.8163 72.714 20.8353 73.0686 20.9112C73.8284 21.0694 74.4869 21.4302 75.0125 21.9302C75.9749 22.8479 76.4561 24.2277 76.1712 25.6201C75.7216 27.772 73.6068 29.1645 71.454 28.7151Z"
            fill="white" />
        <path
            d="M84.8267 22.9683C84.7064 22.905 84.5798 22.8481 84.4468 22.7911C84.2949 22.7278 84.1366 22.6772 83.9783 22.6265C83.8643 22.5949 83.7567 22.5632 83.6364 22.5443C83.4211 22.4999 83.2121 22.4746 83.0032 22.462C82.7499 22.443 82.4966 22.4493 82.2497 22.481C81.5595 22.5569 80.9074 22.7848 80.3312 23.1455C79.698 23.5379 79.1598 24.0886 78.7925 24.7531C78.6912 24.924 78.6089 25.1012 78.5329 25.2785C78.5266 25.2911 78.5266 25.2974 78.5203 25.3101C78.4253 25.5506 78.3493 25.8038 78.2923 26.0633C77.9314 27.8101 78.6343 29.5317 79.9576 30.557C80.3882 30.8924 80.882 31.1519 81.4266 31.3102C81.5089 31.3355 81.5912 31.3608 81.6798 31.3735C81.7242 31.3861 81.7622 31.3924 81.8065 31.4051C82.2434 31.4937 82.6803 31.519 83.1045 31.4811C83.1741 31.4747 83.2438 31.4684 83.3071 31.4621C83.4907 31.4367 83.6744 31.4051 83.858 31.3545C84.1936 31.2659 84.5228 31.1393 84.8267 30.981C85.9855 30.3734 86.8719 29.2722 87.1568 27.8924C87.5684 25.8734 86.568 23.886 84.8267 22.9683ZM86.6313 27.7785C86.6123 27.8671 86.5933 27.9494 86.568 28.0317C86.5363 28.1519 86.4983 28.2658 86.454 28.3861C86.1374 29.2279 85.5549 29.9114 84.8204 30.3608C84.5545 30.5253 84.2632 30.6583 83.9593 30.7595C83.7693 30.8228 83.5794 30.8671 83.3768 30.8988C83.3198 30.9114 83.2628 30.9178 83.2058 30.9241C82.7879 30.9747 82.351 30.9621 81.9141 30.8735C81.8761 30.8671 81.8318 30.8545 81.7938 30.8481C81.7685 30.8418 81.7432 30.8355 81.7242 30.8291C81.0847 30.6646 80.5148 30.3481 80.0526 29.9241C79.9829 29.8608 79.9196 29.7975 79.8563 29.7342C78.9762 28.8228 78.5456 27.5 78.8179 26.1645C78.8812 25.8671 78.9762 25.5759 79.0965 25.3101C79.4954 24.4367 80.1919 23.7595 81.034 23.3607C81.5532 23.1139 82.1294 22.981 82.7246 22.981C82.8196 22.981 82.9145 22.9873 83.0158 22.9936C83.1868 23.0063 83.3578 23.0316 83.5287 23.0632C83.6554 23.0886 83.7757 23.1202 83.896 23.1582C84.0606 23.2088 84.2189 23.2721 84.3772 23.3417C84.4975 23.3987 84.6178 23.462 84.7381 23.5253C86.1691 24.3734 86.9859 26.0633 86.6313 27.7785Z"
            fill="white" />
        <path
            d="M62.4312 23.7404C62.3995 23.7341 62.3679 23.7214 62.3426 23.7024C62.2159 23.6201 62.1843 23.4556 62.2603 23.3353C64.0585 20.5252 68.3831 23.0505 68.4211 23.0758C68.5477 23.1518 68.592 23.3163 68.5161 23.4429C68.4401 23.5695 68.2754 23.6138 68.1488 23.5379C68.1108 23.5125 64.2294 21.253 62.7098 23.6265C62.6465 23.7214 62.5325 23.7657 62.4312 23.7404Z"
            fill="white" />
        <path
            d="M78.7292 25.4303C78.6596 25.4177 78.6026 25.3734 78.5583 25.3164C77.9821 24.4303 76.7537 24.8291 76.741 24.8291C76.6018 24.8734 76.4498 24.7974 76.4055 24.6582C76.3611 24.5189 76.4371 24.367 76.5764 24.3227C77.14 24.1328 78.3747 24.0379 79.0142 25.0253C79.0965 25.1518 79.0585 25.3164 78.9319 25.3923C78.8685 25.4367 78.7925 25.4493 78.7292 25.4303Z"
            fill="white" />
        <g opacity="0.8">
            <path
                d="M82.541 28.4303C82.4017 29.1012 82.2687 29.7341 82.1357 30.329C80.9137 30.0316 80.0336 29.4303 80.1349 28.9303C80.2362 28.4303 81.2936 28.2214 82.541 28.4303Z"
                fill="#D96C63" />
        </g>
        <path
            d="M74.1893 24.886C74.0437 25.6139 73.5941 26.1329 73.1889 26.0506C72.7837 25.9683 72.5747 25.3164 72.7204 24.5885C72.866 23.8607 73.3156 23.3417 73.7208 23.424C74.126 23.5063 74.3413 24.1582 74.1893 24.886Z"
            fill="#39393B" />
        <path
            d="M81.3696 26.3417C81.224 27.0696 80.7744 27.5886 80.3692 27.5063C79.9639 27.424 79.755 26.7721 79.9006 26.0442C80.0462 25.3164 80.4958 24.7974 80.901 24.8797C81.3063 24.9556 81.5216 25.6139 81.3696 26.3417Z"
            fill="#39393B" />
        <path
            d="M77.6655 28.2847C78.0137 28.3544 78.2607 28.3417 78.2797 28.3417C78.362 28.3354 78.4443 28.2974 78.5013 28.2341C78.5583 28.1708 78.5773 28.0822 78.5709 27.9999L78.1087 24.6138C78.0834 24.4493 77.9314 24.329 77.7668 24.3543C77.6022 24.3796 77.4819 24.5315 77.5072 24.6961L77.9188 27.7151C77.6148 27.6708 77.159 27.5442 76.7474 27.2025C76.6208 27.0949 76.4245 27.1138 76.3168 27.2404C76.2092 27.367 76.2282 27.5632 76.3548 27.6708C76.8044 28.0442 77.2919 28.2088 77.6655 28.2847Z"
            fill="#39393B" />
        <path
            d="M64.3054 30.6835C64.2548 30.7594 62.8491 32.7784 61.3485 33.1455C61.3422 33.1392 61.3422 33.1392 61.3422 33.1392C61.3295 32.6139 61.3358 32.0885 61.3422 31.5759C61.3928 31.5822 62.8301 31.6202 64.3054 30.6835Z"
            fill="#39393B" />
        <path
            d="M64.0015 25.3797C64.0015 25.3797 61.8867 20.8986 59.145 23.5252C56.8846 25.6961 58.8601 32.9367 62.7858 31.3861L64.0015 25.3797Z"
            fill="#EA9B7A" />
        <path
            d="M58.8031 29.2404C57.5747 29.6455 56.492 30.7341 56.2134 32.0822C55.8082 34.0949 57.1125 36.0569 59.1197 36.4683C61.1332 36.8734 63.0961 35.5696 63.5076 33.5632C63.8115 32.0569 63.1594 30.5759 61.9627 29.7594C61.5638 29.4809 61.1015 29.2847 60.595 29.1835C60.5823 29.1835 60.5697 29.1771 60.557 29.1771C60.4874 29.4303 60.519 29.6328 60.6583 29.7911C61.0635 29.8987 61.4308 30.0822 61.7537 30.3227C62.6845 31.0316 63.1847 32.2278 62.9378 33.4493C62.5958 35.1455 60.9306 36.2468 59.2337 35.905C57.5367 35.5633 56.435 33.8987 56.7769 32.2025C57.0239 30.9683 57.942 30.0949 59.088 29.8164L58.8031 29.2404Z"
            fill="#FAAF3A" />
        <path
            d="M62.6212 30.1328C62.6338 30.1328 62.6402 30.1392 62.6528 30.1392C62.8175 30.1518 62.9694 30.0316 62.9821 29.8607C63.2923 26.4746 60.7343 24.7594 60.6267 24.6897C60.4874 24.5948 60.2974 24.6391 60.2024 24.7784C60.1075 24.9176 60.1518 25.1075 60.2911 25.2024C60.3861 25.2657 62.6528 26.7974 62.3742 29.8101C62.3616 29.962 62.4692 30.1012 62.6212 30.1328Z"
            fill="#39393B" />
        <path
            d="M60.2024 27.7595C60.2657 27.7721 60.3417 27.7658 60.405 27.7278C60.709 27.5696 61.6017 27.2152 62.0893 27.4493C62.2413 27.5253 62.4249 27.462 62.4945 27.3101C62.5705 27.1582 62.5072 26.9747 62.3552 26.905C61.5068 26.4936 60.2657 27.1202 60.1264 27.1898C59.9745 27.2658 59.9175 27.4493 59.9998 27.6012C60.0378 27.6899 60.1138 27.7405 60.2024 27.7595Z"
            fill="#39393B" />
        <path
            d="M66.7242 17.772C66.7242 17.772 63.8812 25.4873 63.7292 27.0443C63.5203 29.1645 60.7153 21.8986 63.5329 15.696L66.7242 17.772Z"
            fill="#39393B" />
        <path
            d="M114.219 181.35H102.511C102.511 181.35 99.8014 168.362 98.896 161.084C97.9842 153.799 97.5156 136.539 97.5156 136.539C97.5156 136.539 88.1889 139.571 68.6617 138.425C25.3966 135.9 41.8023 104.127 41.8023 104.127C43.2649 106.146 54.2316 108.925 60.3481 109.893C79.1345 111.697 93.4126 114.887 103.189 119.102C105.544 120.115 107.634 121.191 109.47 122.324C111.825 123.773 113.301 128.185 114.194 133.976C116.859 151.381 114.219 181.35 114.219 181.35Z"
            fill="#39393B" />
        <path
            d="M103.968 175.09C103.771 175.09 103.6 174.951 103.556 174.755C101.866 166.4 101.302 156.001 100.846 147.647C100.466 140.716 100.112 134.172 99.2189 133.387C98.4971 132.748 95.5021 133.248 91.7157 133.875C84.1746 135.128 72.7774 137.014 60.2151 134.096C53.3704 132.501 48.3367 129.178 45.2594 124.216C39.947 115.659 42.3721 105.045 42.3974 104.938C42.4481 104.71 42.676 104.57 42.904 104.627C43.1319 104.678 43.2712 104.906 43.2142 105.134C43.1889 105.235 40.8525 115.52 45.9812 123.779C48.9382 128.545 53.7947 131.742 60.4114 133.28C72.8153 136.166 84.1112 134.292 91.5891 133.052C96.0657 132.311 98.7693 131.862 99.7888 132.761C100.89 133.735 101.201 138.52 101.695 147.603C102.151 155.932 102.714 166.293 104.392 174.59C104.436 174.818 104.291 175.039 104.063 175.084C104.025 175.09 103.993 175.09 103.968 175.09Z"
            fill="#585859" />
        <path
            d="M114.447 175.312H114.441L101.422 175.033C101.188 175.027 101.004 174.837 101.011 174.603C101.017 174.369 101.207 174.185 101.441 174.191L114.459 174.47C114.694 174.476 114.877 174.666 114.871 174.9C114.858 175.128 114.668 175.312 114.447 175.312Z"
            fill="#585859" />
        <path d="M113.896 196.337H105.639L104.044 186.653L103.176 181.35H113.44L113.598 186.653L113.896 196.337Z"
            fill="#EA9B7A" />
        <path d="M113.896 196.337H105.639L104.449 189.128L104.044 186.653H113.598L113.681 189.217L113.896 196.337Z"
            fill="#FAAF3A" />
        <path d="M113.681 189.217L104.449 189.128L104.044 186.653H113.598L113.681 189.217Z" fill="#C77E2E" />
        <path
            d="M134.284 209.382H103.037C102.803 208.958 102.676 208.363 102.625 207.647C102.429 205.002 103.271 200.787 103.683 198.128C103.733 197.818 103.778 197.527 103.809 197.267C103.866 196.824 103.904 196.451 103.904 196.179C103.904 194.008 105.823 194.381 105.823 194.381C108.983 197.483 112.566 192.837 114.656 194.356C114.656 194.356 114.738 194.419 114.934 194.565C115.112 194.704 115.378 194.919 115.745 195.23C116.277 195.673 117.024 196.318 118.037 197.23C120.519 199.464 124.736 200.932 128.326 202.432C128.782 202.622 129.206 202.812 129.605 203.008C129.903 203.154 130.188 203.299 130.454 203.438C133.392 205.021 134.322 206.54 134.538 207.641C134.747 208.704 134.284 209.382 134.284 209.382Z"
            fill="#0875F7" />
        <path
            d="M130.46 203.451C129.656 204.09 127.864 205.375 126.427 205.375C126.363 205.375 126.3 205.375 126.237 205.369C125.224 205.286 121.5 203.457 118.468 201.793C116.733 200.837 115.143 199.9 114.004 199.147C112.136 197.913 111.806 197.445 111.737 197.116C111.465 195.881 113.503 195.027 114.934 194.578C115.112 194.717 115.378 194.932 115.745 195.242C113.972 195.723 112.509 196.483 112.579 196.913C112.756 197.28 114.605 198.685 119.025 201.109C122.4 202.957 125.597 204.445 126.306 204.508C127.269 204.584 128.681 203.711 129.605 203.021C129.909 203.16 130.194 203.305 130.46 203.451Z"
            fill="#084FC7" />
        <path
            d="M134.284 209.382H103.037C102.803 208.957 102.676 208.363 102.625 207.647H134.544C134.747 208.704 134.284 209.382 134.284 209.382Z"
            fill="#084FC7" />
        <path
            d="M106.228 209.382H105.297C106.222 208.325 107.089 206.698 106.975 204.381C106.823 201.293 104.974 199.217 103.683 198.128C103.733 197.818 103.778 197.527 103.809 197.267C105.196 198.324 107.532 200.647 107.716 204.343C107.83 206.559 107.102 208.211 106.228 209.382Z"
            fill="#084FC7" />
        <path
            d="M117.511 199.078C117.283 199.078 117.068 198.919 117.011 198.685C116.942 198.407 117.113 198.128 117.385 198.059L119.335 197.571C119.614 197.502 119.892 197.673 119.962 197.945C120.031 198.223 119.861 198.502 119.588 198.571L117.638 199.059C117.594 199.071 117.556 199.078 117.511 199.078Z"
            fill="white" />
        <path
            d="M115.574 197.457C115.34 197.457 115.131 197.299 115.074 197.065C115.004 196.786 115.175 196.508 115.447 196.438L117.397 195.951C117.676 195.881 117.955 196.052 118.024 196.324C118.094 196.603 117.923 196.881 117.651 196.951L115.701 197.438C115.656 197.451 115.612 197.457 115.574 197.457Z"
            fill="white" />
        <path
            d="M119.462 200.211C119.234 200.211 119.018 200.052 118.961 199.818C118.892 199.54 119.063 199.261 119.335 199.198L121.285 198.711C121.564 198.641 121.842 198.812 121.912 199.084C121.982 199.362 121.811 199.641 121.538 199.711L119.588 200.198C119.55 200.211 119.506 200.211 119.462 200.211Z"
            fill="white" />
        <path
            d="M121.418 201.305C121.19 201.305 120.975 201.147 120.918 200.913C120.848 200.635 121.019 200.356 121.291 200.293L123.242 199.805C123.52 199.736 123.799 199.907 123.869 200.179C123.938 200.457 123.767 200.736 123.495 200.805L121.545 201.293C121.5 201.299 121.456 201.305 121.418 201.305Z"
            fill="white" />
        <path
            d="M123.546 202.312C123.318 202.312 123.102 202.154 123.045 201.919C122.976 201.641 123.147 201.362 123.419 201.299L125.369 200.812C125.648 200.742 125.926 200.913 125.996 201.185C126.066 201.464 125.895 201.742 125.622 201.812L123.672 202.299C123.628 202.306 123.584 202.312 123.546 202.312Z"
            fill="white" />
        <path
            d="M125.85 203.173C125.616 203.173 125.407 203.014 125.35 202.78C125.281 202.502 125.451 202.223 125.724 202.154L127.674 201.666C127.953 201.597 128.231 201.768 128.301 202.04C128.37 202.318 128.199 202.597 127.927 202.666L125.977 203.154C125.933 203.166 125.895 203.173 125.85 203.173Z"
            fill="white" />
        <path
            d="M157.338 103.653V106.248C157.338 107.741 156.439 108.95 155.325 108.95H15.0948C13.9804 108.95 13.0813 107.741 13.0813 106.248V103.653C13.0813 102.159 13.9804 100.95 15.0948 100.95H155.319C156.439 100.956 157.338 102.165 157.338 103.653Z"
            fill="#21B573" />
        <path d="M157.338 104.475H13.0813V105.665H157.338V104.475Z" fill="#217C58" />
        <path
            d="M153.128 115.615H21.3126C20.7237 115.615 20.2425 115.134 20.2425 114.545V108.912H154.191V114.545C154.191 115.14 153.717 115.615 153.128 115.615Z"
            fill="#217C58" />
        <path d="M147.207 148.685H29.3286V153.28H147.207V148.685Z" fill="#217C58" />
        <path d="M20.8314 210.198L43.6511 115.615H35.6351L12.8153 210.198H20.8314Z" fill="#21B573" />
        <path d="M155.546 210.198L132.727 115.615H140.743L163.562 210.198H155.546Z" fill="#21B573" />
        <path d="M25.8883 79.2148L23.416 79.5933L26.2737 98.2436L28.746 97.8651L25.8883 79.2148Z" fill="#FAAF3A" />
        <path d="M25.8905 79.2093L23.4147 79.589L23.9593 77.6966L24.2442 76.7219L24.8077 77.57L25.8905 79.2093Z"
            fill="#EA9B7A" />
        <path d="M28.536 96.5074L26.0637 96.8859L26.2717 98.2435L28.744 97.865L28.536 96.5074Z" fill="#39393B" />
        <path
            d="M28.7461 98.9627L26.5996 99.2918C26.511 99.3045 26.4223 99.2412 26.4097 99.1526L26.2704 98.2349L28.7461 97.8551L28.8854 98.7728C28.9044 98.8614 28.8411 98.9501 28.7461 98.9627Z"
            fill="#DF615C" />
        <path d="M24.8077 77.57L23.9593 77.6966L24.2442 76.7219L24.8077 77.57Z" fill="#39393B" />
        <path d="M28.3925 95.5347L25.9202 95.9132L26.0688 96.883L28.5411 96.5044L28.3925 95.5347Z" fill="#C77E2E" />
        <path
            d="M24.1746 80.4118L26.2894 94.2221C26.3084 94.3234 26.4034 94.3993 26.5047 94.3803C26.606 94.3613 26.682 94.2664 26.663 94.1651L24.5481 80.3549C24.5291 80.2536 24.4342 80.1777 24.3329 80.1966C24.2252 80.2093 24.1556 80.3042 24.1746 80.4118Z"
            fill="#C77E2E" />
        <path
            d="M25.137 80.26L27.2518 94.0703C27.2708 94.1715 27.3658 94.2475 27.4671 94.2285C27.5747 94.2095 27.6444 94.1146 27.6254 94.0133L25.5106 80.203C25.4916 80.1018 25.3966 80.0258 25.2953 80.0448C25.194 80.0638 25.1243 80.1587 25.137 80.26Z"
            fill="#C77E2E" />
        <path d="M30.3615 79.2943L27.8604 79.3025L27.9225 98.1698L30.4236 98.1616L30.3615 79.2943Z" fill="#21B573" />
        <path d="M30.3671 79.2917L27.8597 79.3043L28.6828 77.5132L29.107 76.5891L29.5313 77.5132L30.3671 79.2917Z"
            fill="#EA9B7A" />
        <path d="M30.422 96.7882L27.9209 96.7964L27.9254 98.1698L30.4265 98.1616L30.422 96.7882Z" fill="#39393B" />
        <path
            d="M30.2657 99.2538L28.0939 99.2601C27.999 99.2601 27.9293 99.1842 27.9293 99.0956V98.1715L30.4304 98.1652V99.0892C30.4304 99.1778 30.3544 99.2538 30.2657 99.2538Z"
            fill="#DF615C" />
        <path d="M29.5313 77.5132H28.6828L29.107 76.5891L29.5313 77.5132Z" fill="#39393B" />
        <path d="M30.4163 95.8071L27.9152 95.8153L27.9184 96.7963L30.4195 96.7881L30.4163 95.8071Z" fill="#217C58" />
        <path
            d="M28.4865 80.2283L28.5308 94.1968C28.5308 94.3044 28.6195 94.3867 28.7208 94.3867C28.8284 94.3867 28.9107 94.2981 28.9107 94.1968L28.8664 80.2283C28.8664 80.1207 28.7778 80.0385 28.6765 80.0385C28.5688 80.0385 28.4865 80.1271 28.4865 80.2283Z"
            fill="#217C58" />
        <path
            d="M29.4679 80.2283L29.5122 94.1968C29.5122 94.3044 29.6009 94.3867 29.7022 94.3867C29.8098 94.3867 29.8922 94.298 29.8922 94.1968L29.8478 80.2283C29.8478 80.1207 29.7592 80.0384 29.6579 80.0384C29.5502 80.0321 29.4679 80.1207 29.4679 80.2283Z"
            fill="#217C58" />
        <path d="M32.2042 79.2009L29.5504 97.8813L32.0267 98.2329L34.6805 79.5524L32.2042 79.2009Z" fill="#0875F7" />
        <path d="M34.6853 79.5575L32.2033 79.2094L33.2733 77.5574L33.8242 76.703L34.1218 77.6777L34.6853 79.5575Z"
            fill="#EA9B7A" />
        <path d="M32.2238 96.8814L29.7475 96.5299L29.5543 97.8897L32.0306 98.2412L32.2238 96.8814Z" fill="#39393B" />
        <path
            d="M31.7094 99.2981L29.5629 98.9943C29.4743 98.9817 29.4109 98.8994 29.4236 98.8044L29.5566 97.8867L32.0323 98.2412L31.8993 99.1589C31.8867 99.2475 31.8044 99.3108 31.7094 99.2981Z"
            fill="#DF615C" />
        <path d="M34.1218 77.6777L33.2733 77.5574L33.8242 76.703L34.1218 77.6777Z" fill="#39393B" />
        <path d="M29.8882 95.5538L29.7501 96.5251L32.2264 96.8769L32.3645 95.9056L29.8882 95.5538Z" fill="#084FC7" />
        <path
            d="M32.6908 80.2157L30.728 94.045C30.7153 94.1526 30.7849 94.2475 30.8926 94.2602C31.0002 94.2728 31.0952 94.2032 31.1079 94.0956L33.0707 80.2664C33.0834 80.1588 33.0137 80.0638 32.9061 80.0512C32.8048 80.0385 32.7035 80.1145 32.6908 80.2157Z"
            fill="#084FC7" />
        <path
            d="M33.6596 80.3549L31.6967 94.1841C31.6841 94.2917 31.7537 94.3867 31.8613 94.3993C31.969 94.412 32.064 94.3424 32.0766 94.2348L34.0395 80.4055C34.0521 80.2979 33.9825 80.203 33.8749 80.1903C33.7735 80.1777 33.6722 80.2473 33.6596 80.3549Z"
            fill="#084FC7" />
        <path
            d="M35.4958 86.7537L35.3692 87.7663L35.2489 88.6904L35.0652 90.0828L34.9513 90.9942L34.7676 92.3993L34.6537 93.298L34.47 94.7158L34.3561 95.6019L34.1725 97.0322L34.0585 97.9057L33.8685 99.3487L33.7609 100.209L33.6659 100.956H23.8263L23.7313 100.209L23.6174 99.3487L23.4337 97.9057L23.3198 97.0322L23.1362 95.6019L23.0222 94.7158L22.8386 93.298L22.7183 92.3993L22.541 90.9942L22.4207 90.0828L22.2434 88.6904L22.1231 87.7663L21.9901 86.7537H35.4958Z"
            fill="#DF615C" />
        <path d="M35.3692 87.7664L35.2489 88.6904H22.2434L22.1231 87.7664H35.3692Z" fill="#B11722" />
        <path d="M35.0652 90.0829L34.9513 90.9943H22.541L22.4207 90.0829H35.0652Z" fill="#B11722" />
        <path d="M34.7676 92.3993L34.6537 93.298H22.8385L22.7182 92.3993H34.7676Z" fill="#B11722" />
        <path d="M34.47 94.7158L34.3561 95.6019H23.1361L23.0222 94.7158H34.47Z" fill="#B11722" />
        <path d="M34.1725 97.0322L34.0585 97.9057H23.4337L23.3198 97.0322H34.1725Z" fill="#B11722" />
        <path d="M33.8685 99.3488L33.7609 100.21H23.7313L23.6174 99.3488H33.8685Z" fill="#B11722" />
        <path
            d="M156.522 50.7914L148.132 86.2601L147.91 87.1905L147.347 89.5766C147.1 90.6146 146.182 91.3424 145.118 91.3424H88.6005C87.1188 91.3424 86.0298 89.9627 86.3717 88.5259L95.5465 49.7407C95.7934 48.7091 96.7115 47.9812 97.7752 47.9812H154.293C155.768 47.9749 156.863 49.3547 156.522 50.7914Z"
            fill="#39393B" />
        <path d="M148.132 86.26L147.91 87.1904H89.2273V86.26H148.132Z" fill="#585859" />
        <path
            d="M111.376 56.7534C110.907 59.2661 108.489 61.3041 105.975 61.3041C103.461 61.3041 101.802 59.2661 102.271 56.7534C102.739 54.2408 105.158 52.2028 107.672 52.2028C110.186 52.2028 111.844 54.2408 111.376 56.7534Z"
            fill="#FAAF3A" />
        <path
            d="M106.235 55.8864C106.14 56.3864 105.886 56.7978 105.671 56.7978C105.449 56.7978 105.348 56.3927 105.443 55.8864C105.538 55.3864 105.791 54.975 106.007 54.975C106.222 54.975 106.323 55.38 106.235 55.8864Z"
            fill="#39393B" />
        <path
            d="M108.609 55.8864C108.514 56.3864 108.261 56.7978 108.045 56.7978C107.824 56.7978 107.722 56.3927 107.817 55.8864C107.912 55.3864 108.166 54.975 108.381 54.975C108.603 54.975 108.704 55.38 108.609 55.8864Z"
            fill="#39393B" />
        <path
            d="M106.45 58.9686C104.493 58.9686 104.411 57.0129 104.411 56.9939C104.405 56.8863 104.493 56.7787 104.607 56.7597C104.721 56.7344 104.81 56.804 104.816 56.9116C104.816 56.9812 104.892 58.5762 106.532 58.5762C108.166 58.5762 108.837 56.9812 108.869 56.9116C108.913 56.804 109.033 56.7344 109.134 56.7597C109.236 56.785 109.286 56.8863 109.242 56.9939C109.217 57.0129 108.406 58.9686 106.45 58.9686Z"
            fill="#39393B" />
        <path
            d="M137.501 78.0068C137.552 80.3612 141.541 83.3106 141.541 83.3106C141.541 83.3106 146.175 80.3612 146.739 78.0068C147.347 75.4561 144.434 74.6713 142.275 76.5954C140.534 74.6713 137.45 75.4498 137.501 78.0068Z"
            fill="#DF615C" />
        <path
            d="M129.061 71.1777C128.788 73.6207 126.591 75.5954 124.153 75.5954C121.716 75.5954 119.949 73.6144 120.221 71.1777C120.494 68.7346 122.691 66.7599 125.129 66.7599C127.566 66.7599 129.327 68.7346 129.061 71.1777Z"
            fill="#585859" />
        <path
            d="M100.01 47.9749L90.2404 91.3424H88.5941C87.1125 91.3424 86.0234 89.9626 86.3654 88.5259L95.5401 49.7407C95.7871 48.709 96.7052 47.9749 97.7689 47.9749H100.01Z"
            fill="#585859" />
        <path d="M116.384 91.3486L114.668 100.982H120.329L122.045 91.3486H116.384Z" fill="white" />
        <path
            d="M106.19 99.3235L107.349 97.6969C107.76 97.1146 108.432 96.7728 109.147 96.7728H124.673C125.496 96.7728 126.249 97.2285 126.629 97.9564L127.408 99.4501C127.775 100.146 127.269 100.988 126.477 100.988H107.045C106.197 100.982 105.696 100.02 106.19 99.3235Z"
            fill="white" />
        <path
            d="M73.8411 100.982H120.481L120.988 99.2222C121.304 98.1146 120.475 97.0133 119.322 97.0133H76.2852C75.5127 97.0133 74.8352 97.526 74.6199 98.2665L73.8411 100.982Z"
            fill="white" />
        <path
            d="M135 36.3987L114.371 36.3861C113.573 36.3861 112.921 35.7342 112.921 34.9367L112.927 22.2657C112.927 21.4682 113.579 20.8163 114.377 20.8163L135.006 20.8289C135.804 20.8289 136.456 21.4808 136.456 22.2783L136.45 34.9493C136.45 35.7531 135.798 36.3987 135 36.3987Z"
            fill="#DF615C" />
        <path d="M133.771 34.0632L131.885 41.1582L128.598 34.4873L133.771 34.0632Z" fill="#DF615C" />
        <path
            d="M129.896 27.462C129.478 30.1202 124.508 33.4494 124.508 33.4494C124.508 33.4494 119.728 30.1139 119.455 27.4493C119.158 24.5632 122.577 23.6834 124.723 25.8607C126.99 23.6898 130.359 24.5759 129.896 27.462Z"
            fill="white" />
        <path
            d="M21.3478 4.49494C22.5523 4.13753 23.8076 4.87495 24.0818 6.10106L27.2171 20.1194C27.6312 21.9707 25.6371 23.4241 24.0015 22.4632L7.09489 12.5312C5.45926 11.5704 5.75797 9.12095 7.57658 8.58131L21.3478 4.49494Z"
            fill="#FF9776" fill-opacity="0.5" />
        <path
            d="M183.033 13.5884C180.98 11.1351 178.091 9.55242 175.001 9.18859C171.911 8.82476 168.873 9.70955 166.556 11.6483C164.24 13.5871 162.833 16.421 162.647 19.5267C162.461 22.6324 163.509 25.7554 165.562 28.2087L174.298 20.8986L183.033 13.5884Z"
            fill="#6CA1F8" fill-opacity="0.3" />
    </g>
    <defs>
        <clipPath id="clip0_1_27">
            <rect width="183.419" height="216.198" fill="white" transform="translate(0.791275 -0.000366211)" />
        </clipPath>
    </defs>
</svg>