<svg width="69" height="101" viewBox="0 0 69 101" fill="none" xmlns="http://www.w3.org/2000/svg">
    <path
        d="M42.2287 31.1865C42.2287 31.1865 52.957 45.7231 55.4051 52.9666C57.8531 60.2101 51.9132 65.3521 51.9132 65.3521L46.3958 67.4205C46.3958 67.4164 40.7251 41.847 42.2287 31.1865Z"
        fill="#084FC7" />
    <path
        d="M41.2796 71.9048C36.5906 73.4561 25.1332 77.5267 20.1584 75.8803C19.9471 75.81 19.7524 75.7314 19.566 75.6404C19.0234 75.3756 18.5885 75.0198 18.282 74.5565C16.331 71.5904 14.3966 59.1429 15.2664 51.8291C15.3741 50.9149 15.428 49.922 15.4445 48.8796C15.4694 47.3448 15.4197 45.7025 15.3534 44.052C15.109 37.8385 14.1273 33.5487 16.7908 32.0388C19.1808 30.6819 22.2046 29.6229 24.1308 29.1637C25.3237 28.8783 27.2789 28.2826 28.6499 28.3074L34.5816 29.383C34.5816 29.383 39.7014 30.2351 40.8819 31.108C42.0625 31.9767 42.6672 35.8115 44.8005 39.3236C46.9337 42.8357 47.3976 46.3603 45.3597 50.2157C43.5868 53.5707 43.8975 52.2965 43.6655 57.7984C43.3838 64.5414 50.438 68.8767 41.2796 71.9048Z"
        fill="white" />
    <g opacity="0.8">
        <path
            d="M25.5316 40.3124C25.5316 40.3124 31.9603 38.6536 40.1661 40.1842L40.3649 45.8474C40.3649 45.8474 31.3431 44.8463 25.66 46.2901L25.5316 40.3124Z"
            fill="#CED3E6" />
    </g>
    <g opacity="0.8">
        <path
            d="M32.9173 35.5303C32.8303 35.5303 32.7433 35.5262 32.6522 35.522C29.1396 35.34 25.9169 32.2457 25.7844 32.1133C25.6891 32.0223 25.6891 31.8692 25.7802 31.7741C25.8714 31.679 26.0246 31.679 26.1199 31.77C26.1531 31.7989 29.3467 34.8725 32.6771 35.0422C35.8666 35.2118 36.2518 32.0513 36.2684 31.9148C36.2849 31.7824 36.4009 31.6872 36.5335 31.7038C36.666 31.7162 36.7613 31.8362 36.7447 31.9685C36.7447 32.0058 36.3222 35.5303 32.9173 35.5303Z"
            fill="#CED3E6" />
    </g>
    <g opacity="0.8">
        <path
            d="M22.9578 63.8836C22.933 63.8629 22.9123 63.8422 22.8916 63.8132C22.8212 63.6933 22.8584 63.5402 22.9744 63.4699C27.5433 60.7065 31.9258 59.7344 34.7963 59.4034C37.9154 59.0435 39.9244 59.3331 40.0072 59.3497C40.1439 59.3703 40.2392 59.4986 40.2185 59.6351C40.1978 59.7716 40.0694 59.8667 39.9327 59.8461C39.912 59.8419 37.8906 59.5524 34.8336 59.9081C32.0169 60.2349 27.7131 61.1946 23.2312 63.9042C23.1484 63.9497 23.0407 63.9415 22.9578 63.8836Z"
            fill="#CED3E6" />
    </g>
    <path
        d="M28.9314 74.1595C24.7105 72.8233 20.8914 70.1344 18.2859 67.7392C18.0788 67.5489 17.88 67.3627 17.6895 67.1766C16.3391 65.8652 15.3864 66.5395 14.9722 65.7866C13.394 62.9033 14.2887 51.5892 14.9722 47.4318C15.6556 43.2784 12.7851 35.6668 14.3301 32.9448C15.8752 30.2228 21.1979 29.2713 21.1979 29.2713C21.1979 29.2713 20.444 28.3943 21.8731 27.3891C23.3022 26.3839 27.1047 26.8017 27.1047 26.8017C27.287 44.7842 29.8386 61.4844 28.9314 74.1595Z"
        fill="#0875F7" />
    <path
        d="M24.7803 69.0053C24.6643 69.0053 24.5649 68.9226 24.5483 68.8067C22.6263 56.3344 24.5276 32.8706 24.5483 32.6348C24.5607 32.5066 24.6726 32.4114 24.801 32.4197C24.9294 32.4321 25.0288 32.5438 25.0164 32.672C24.9957 32.9078 23.1027 56.3137 25.0164 68.7323C25.0371 68.8605 24.9459 68.9805 24.8175 69.0012C24.8051 69.0053 24.7927 69.0053 24.7803 69.0053Z"
        fill="white" />
    <path
        d="M28.6456 70.8748C28.5338 70.8748 28.4344 70.7962 28.4137 70.6804C25.8993 56.3548 25.7005 31.6334 25.7005 31.3852C25.7005 31.257 25.8041 31.1494 25.9325 31.1494C26.0609 31.1494 26.1686 31.2528 26.1686 31.3811C26.1686 31.6293 26.3715 56.3093 28.8776 70.5977C28.8983 70.7259 28.8155 70.8459 28.6871 70.8707C28.6705 70.8749 28.6581 70.8748 28.6456 70.8748Z"
        fill="#084FC7" />
    <path
        d="M24.4732 31.2446C24.4525 31.2446 24.4318 31.2405 24.4111 31.2364C22.4228 30.7069 21.205 29.5361 21.1512 29.4865C21.06 29.3955 21.0559 29.2466 21.147 29.1556C21.2381 29.0646 21.3873 29.0604 21.4784 29.1514C21.4908 29.1638 22.6631 30.289 24.5271 30.7855C24.6513 30.8185 24.7259 30.9468 24.6928 31.075C24.672 31.1743 24.5768 31.2446 24.4732 31.2446Z"
        fill="#084FC7" />
    <path
        d="M47.2196 66.308C47.2196 66.308 45.716 71.3672 40.1157 73.779C39.4198 60.0614 37.8458 44.3955 35.8119 27.7326C35.8119 27.7326 37.9535 27.3561 38.844 28.5806C39.2293 29.106 39.3121 29.9995 39.3121 29.9995C39.3121 29.9995 40.4056 30.2105 41.6027 30.7689C42.7998 31.3274 42.6632 32.0927 42.949 34.037C43.2348 35.9813 46.242 38.9887 47.2196 43.0634C48.1972 47.1382 45.6041 49.736 44.7964 53.1572C43.9845 56.57 47.2196 66.308 47.2196 66.308Z"
        fill="#0875F7" />
    <path
        d="M42.4115 68.4302C42.283 68.4302 42.1795 68.331 42.1753 68.2027C41.6327 49.5417 38.2195 32.8664 38.1864 32.7009C38.1615 32.5727 38.2402 32.4486 38.3686 32.4238C38.497 32.3989 38.6213 32.4775 38.6462 32.6058C38.6793 32.7712 42.1008 49.4838 42.6434 68.1903C42.6476 68.3185 42.544 68.4302 42.4156 68.4302C42.4156 68.4302 42.4156 68.4302 42.4115 68.4302Z"
        fill="white" />
    <path
        d="M37.2574 31.7617C37.1456 31.7617 37.0462 31.679 37.0255 31.5673C37.0047 31.439 37.0917 31.3191 37.216 31.2942C37.2326 31.2901 38.7403 31.0171 39.0841 29.9291C39.1214 29.805 39.254 29.7347 39.3782 29.776C39.5025 29.8133 39.5688 29.9457 39.5315 30.0698C39.0966 31.4349 37.3651 31.7452 37.2947 31.7576C37.2823 31.7576 37.2699 31.7617 37.2574 31.7617Z"
        fill="#084FC7" />
    <path
        d="M41.8638 68.4303C41.7479 68.4303 41.6443 68.3434 41.6319 68.2234C39.975 54.4645 37.3571 32.4776 37.3322 32.2583C37.3157 32.1301 37.411 32.0143 37.5394 31.9977C37.6678 31.9812 37.7838 32.0763 37.8003 32.2046C37.8252 32.4238 40.4431 54.4149 42.1 68.1697C42.1165 68.2979 42.0254 68.4137 41.8928 68.4303C41.8804 68.4303 41.8721 68.4303 41.8638 68.4303Z"
        fill="#084FC7" />
    <path
        d="M27.9517 78.3087C28.6683 78.8217 29.795 79.3553 31.4891 79.8931C41.0991 82.9461 49.9096 78.0192 49.9096 78.0192C50.4439 75.3923 50.1126 72.4056 49.2261 71.3135C49.5037 70.9246 49.3214 70.4613 49.3214 70.4613L58.1651 61.2942C53.1364 65.4558 46.9148 66.8168 42.0725 69.7415C42.0725 69.7415 42.0725 69.7415 42.0684 69.7415C40.6724 70.5854 39.4173 71.3259 38.4978 71.8388C37.0936 72.6248 35.3041 72.7034 33.5478 72.4593C30.1263 71.9878 26.8457 70.3041 26.8457 70.3041C26.8457 70.3041 15.8315 65.3193 13.7687 65.4847C12.1657 65.613 20.8063 74.6187 27.9517 78.3087Z"
        fill="#21B573" />
    <path
        d="M44.9708 85.9948C44.9708 85.9948 42.1375 85.1798 41.2635 84.2615L39.2918 88.8947L45.9981 90.9837C46.0022 90.9837 46.0933 86.9131 44.9708 85.9948Z"
        fill="#EA9B7A" />
    <path
        d="M61.1538 99.3772L52.4841 80.1619C52.161 80.1371 51.7551 80.224 51.2995 80.3894C49.6177 81.0017 47.2525 82.6895 45.7323 83.6782C45.5542 83.794 45.3885 83.9015 45.2352 83.9967C44.9784 84.1539 44.7589 84.278 44.5932 84.3566C43.2553 84.9564 43.9594 85.6762 43.9594 85.6762C46.4531 86.9214 44.9329 90.6114 46.4531 91.4718C46.4531 91.4718 47.0992 91.8483 49.1621 92.7542C51.2249 93.6602 53.3002 95.8485 55.2221 97.6398C57.7033 99.9564 59.2608 100.225 60.1514 100.014C60.8638 99.8488 61.1538 99.3772 61.1538 99.3772Z"
        fill="#EBB12B" />
    <path
        d="M61.1534 99.3772L52.4837 80.1619C52.1607 80.1371 51.7547 80.224 51.2991 80.3894L60.151 100.014C60.8635 99.8488 61.1534 99.3772 61.1534 99.3772Z"
        fill="#C77E2E" />
    <path
        d="M53.3699 82.1226L53.1131 81.5518C52.7196 82.4163 51.9574 83.3968 50.4993 83.9718C48.5566 84.7329 46.7589 84.1703 45.7358 83.6822C45.5577 83.798 45.392 83.9056 45.2387 84.0007C46.2784 84.5592 48.3537 85.3535 50.6816 84.4434C52.0734 83.889 52.8935 82.9872 53.3699 82.1226Z"
        fill="#C77E2E" />
    <path
        d="M50.1511 91.9185C50.089 91.7778 49.9315 91.691 49.77 91.7199C49.5795 91.753 49.4552 91.935 49.4883 92.1253L49.7327 93.4615C49.7659 93.6518 49.9481 93.7759 50.1387 93.7428C50.3292 93.7097 50.4535 93.5277 50.4203 93.3374L50.1759 92.0012C50.1718 91.9723 50.1635 91.9433 50.1511 91.9185Z"
        fill="white" />
    <path
        d="M48.613 91.1785C48.5509 91.0378 48.3935 90.951 48.2319 90.9799C48.0414 91.013 47.9171 91.195 47.9503 91.3853L48.1946 92.7215C48.2278 92.9118 48.41 93.0359 48.6006 93.0028C48.7911 92.9697 48.9154 92.7877 48.8823 92.5974L48.6379 91.2612C48.6337 91.2281 48.6254 91.2033 48.613 91.1785Z"
        fill="white" />
    <path
        d="M51.3976 92.804C51.3355 92.6633 51.1781 92.5765 51.0165 92.6054C50.826 92.6385 50.7017 92.8205 50.7349 93.0108L50.9792 94.347C51.0124 94.5373 51.1946 94.6614 51.3852 94.6283C51.5757 94.5952 51.7 94.4132 51.6669 94.2229L51.4225 92.8867C51.4183 92.8578 51.41 92.8288 51.3976 92.804Z"
        fill="white" />
    <path
        d="M52.608 93.7014C52.5458 93.5608 52.3884 93.4739 52.2269 93.5029C52.0363 93.536 51.9121 93.718 51.9452 93.9083L52.1896 95.2445C52.2227 95.4347 52.405 95.5588 52.5955 95.5258C52.7861 95.4927 52.9103 95.3106 52.8772 95.1204L52.6328 93.7842C52.6245 93.7552 52.6163 93.7263 52.608 93.7014Z"
        fill="white" />
    <path
        d="M53.8181 94.7317C53.7559 94.5911 53.5985 94.5042 53.437 94.5331C53.2464 94.5662 53.1222 94.7483 53.1553 94.9385L53.3997 96.2747C53.4328 96.465 53.6151 96.5891 53.8056 96.556C53.9962 96.5229 54.1204 96.3409 54.0873 96.1506L53.8429 94.8144C53.8388 94.7855 53.8305 94.7565 53.8181 94.7317Z"
        fill="white" />
    <path
        d="M54.99 95.9146C54.9278 95.7739 54.7704 95.687 54.6089 95.716C54.4183 95.7491 54.2941 95.9311 54.3272 96.1214L54.5716 97.4576C54.6047 97.6479 54.787 97.772 54.9775 97.7389C55.1681 97.7058 55.2923 97.5238 55.2592 97.3335L55.0148 95.9973C55.0065 95.9642 54.9982 95.9394 54.99 95.9146Z"
        fill="white" />
    <path
        d="M13.7717 65.4847C13.7717 65.4847 6.80037 61.7286 2.76585 64.6326C-4.61559 69.9442 7.91049 80.1579 22.2426 85.1468C36.5747 90.1358 41.2264 89.4532 41.2264 89.4532C41.2264 89.4532 44.3413 88.5969 43.2354 83.5583C43.2354 83.5583 34.9758 80.4226 30.6761 77.138C26.3724 73.8493 23.4438 69.8242 13.7717 65.4847Z"
        fill="#21B573" />
    <path
        d="M42.6734 85.0225C39.6661 84.3027 33.5439 81.4939 26.2909 77.5184C20.8646 74.5441 14.6098 70.7424 13.6902 69.4228C13.1932 68.7112 13.0689 68.128 13.3174 67.6895C13.6902 67.0359 14.7672 66.9697 15.256 66.9738C15.3803 66.9738 15.4797 67.0814 15.4714 67.2055C15.4631 67.3213 15.3678 67.4082 15.2519 67.4082C14.7714 67.404 13.9305 67.4868 13.6944 67.9046C13.4956 68.2521 13.7772 68.7857 14.0465 69.1704C14.7879 70.2336 20.0237 73.5844 26.498 77.1337C32.0734 80.1908 39.2768 83.7567 42.7728 84.5965L42.6734 85.0225Z"
        fill="#217C58" />
    <path
        d="M42.105 82.8881C41.7653 85.5357 41.0777 87.9433 39.5824 89.7924C39.5824 89.7924 40.8665 90.7149 42.0387 90.053C42.9334 89.5483 44.6607 85.4116 44.0021 83.2025C43.2524 82.793 42.6062 82.6482 42.105 82.8881Z"
        fill="#217C58" />
    <path
        d="M23.9202 85.4693C23.9202 85.4693 26.77 84.9191 27.5777 83.9429L29.8518 88.4313L23.303 90.963C23.2988 90.9671 22.8597 86.4622 23.9202 85.4693Z"
        fill="#EA9B7A" />
    <path
        d="M8.74396 100.354L16.1088 80.6046C16.4319 80.555 16.8379 80.617 17.3059 80.7536C19.025 81.2541 21.4979 82.7764 23.0802 83.6658C23.2666 83.7693 23.4364 83.8644 23.598 83.9471C23.8672 84.0878 24.0909 84.1995 24.2649 84.2615C25.6401 84.7704 25.0685 85.1592 25.0685 85.1592C22.3594 86.4292 24.3436 90.5246 22.8855 91.4885C22.8855 91.4885 22.2642 91.9063 20.2676 92.9488C18.2711 93.9912 16.3449 96.312 14.5472 98.2273C12.2276 100.701 10.6908 101.078 9.7878 100.924C9.06705 100.804 8.74396 100.354 8.74396 100.354Z"
        fill="#EBB12B" />
    <path
        d="M8.74449 100.354L16.1094 80.6046C16.4325 80.555 16.8384 80.617 17.3065 80.7536L9.78419 100.924C9.06759 100.804 8.74449 100.354 8.74449 100.354Z"
        fill="#C77E2E" />
    <path
        d="M15.3519 82.6192L15.5714 82.0317C16.0229 82.8674 16.8472 83.7981 18.3426 84.2697C20.3308 84.9027 22.0871 84.2201 23.0771 83.6616C23.2635 83.765 23.4334 83.8602 23.5949 83.9429C22.5966 84.5717 20.5752 85.5025 18.1934 84.7455C16.7644 84.2987 15.8862 83.4465 15.3519 82.6192Z"
        fill="#C77E2E" />
    <path
        d="M19.2175 92.179C19.2713 92.0342 19.4205 91.9349 19.582 91.9556C19.7725 91.9763 19.9092 92.15 19.8885 92.3403L19.7353 93.6889C19.7146 93.8792 19.5406 94.0157 19.35 93.995C19.1595 93.9743 19.0228 93.8006 19.0435 93.6103L19.1968 92.2617C19.2009 92.2328 19.2092 92.2038 19.2175 92.179Z"
        fill="white" />
    <path
        d="M20.7063 91.3355C20.7601 91.1907 20.9092 91.0914 21.0708 91.1121C21.2613 91.1328 21.398 91.3065 21.3773 91.4968L21.224 92.8454C21.2033 93.0357 21.0294 93.1722 20.8388 93.1515C20.6483 93.1308 20.5116 92.9571 20.5323 92.7668L20.6856 91.4182C20.6897 91.3893 20.698 91.3603 20.7063 91.3355Z"
        fill="white" />
    <path
        d="M18.0402 93.1471C18.094 93.0023 18.2431 92.9072 18.4047 92.9237C18.5952 92.9444 18.7319 93.1182 18.7112 93.3085L18.5579 94.657C18.5372 94.8473 18.3632 94.9839 18.1727 94.9632C17.9822 94.9425 17.8455 94.7687 17.8662 94.5784L18.0194 93.2299C18.0236 93.2009 18.0319 93.1719 18.0402 93.1471Z"
        fill="white" />
    <path
        d="M16.8924 94.1237C16.9463 93.9789 17.0954 93.8838 17.2569 93.9003C17.4475 93.921 17.5842 94.0947 17.5635 94.285L17.4102 95.6336C17.3895 95.8239 17.2155 95.9604 17.025 95.9397C16.8344 95.919 16.6977 95.7453 16.7185 95.555L16.8717 94.2064C16.8759 94.1775 16.8841 94.1485 16.8924 94.1237Z"
        fill="white" />
    <path
        d="M15.7496 95.2318C15.8034 95.0871 15.9525 94.9919 16.1141 95.0085C16.3046 95.0291 16.4413 95.2029 16.4206 95.3932L16.2673 96.7418C16.2466 96.9321 16.0727 97.0686 15.8821 97.0479C15.6916 97.0272 15.5549 96.8535 15.5756 96.6632L15.7289 95.3146C15.733 95.2856 15.7413 95.2567 15.7496 95.2318Z"
        fill="white" />
    <path
        d="M14.6603 96.4859C14.7141 96.3411 14.8632 96.2418 15.0248 96.2625C15.2153 96.2832 15.352 96.4569 15.3313 96.6472L15.178 97.9958C15.1573 98.1861 14.9833 98.3226 14.7928 98.3019C14.6023 98.2812 14.4656 98.1075 14.4863 97.9172L14.6395 96.5686C14.6437 96.5397 14.652 96.5148 14.6603 96.4859Z"
        fill="white" />
    <path
        d="M55.3206 62.4317C55.3206 62.4317 61.915 58.0509 66.2022 60.5743C74.0434 65.1868 62.5074 76.505 48.6931 82.7846C34.8829 89.0643 30.1856 88.8119 30.1856 88.8119C30.1856 88.8119 27.0085 88.2452 27.6423 83.1239C27.6423 83.1239 35.5788 79.2436 39.5594 75.5784C43.5401 71.9173 46.0876 67.6399 55.3206 62.4317Z"
        fill="#21B573" />
    <path
        d="M43.2601 85.1467C42.498 85.3949 41.7275 85.6473 40.9281 85.8996C37.838 86.8718 34.3088 87.8894 31.1151 88.6713L31.1027 89.1263C33.9898 88.4231 37.374 87.4716 41.0565 86.3133C41.7772 86.0858 42.5104 85.85 43.2477 85.6059L43.2601 85.1467Z"
        fill="#217C58" />
    <path
        d="M28.3393 84.5345C31.2678 83.5417 37.1084 80.1868 43.9638 75.5619C49.0918 72.1035 54.9738 67.7434 55.7649 66.3451C56.1916 65.5922 56.2662 65.0007 55.9762 64.587C55.5454 63.9706 54.4684 63.9996 53.9797 64.0492C53.8554 64.0616 53.7643 64.1775 53.785 64.3016C53.8057 64.4133 53.9051 64.4919 54.0211 64.4836C54.5016 64.4381 55.3424 64.4422 55.62 64.8352C55.8478 65.162 55.62 65.7205 55.388 66.13C54.7501 67.2552 49.8416 71.0693 43.7194 75.202C38.4505 78.7555 31.6034 82.9667 28.1985 84.125L28.3393 84.5345Z"
        fill="#217C58" />
    <path
        d="M28.7051 82.3587C29.285 84.9648 30.1922 87.298 31.8532 89.0023C31.8532 89.0023 30.6602 90.0407 29.4341 89.4863C28.498 89.0644 26.3979 85.1014 26.8494 82.8427C27.5577 82.367 28.1873 82.1684 28.7051 82.3587Z"
        fill="#217C58" />
    <path
        d="M27.8133 61.4639L27.2831 69.0218C27.2831 69.0218 18.282 67.7394 13.8664 66.6142C12.5782 66.2873 11.1367 65.8654 9.8112 65.1621C7.37143 63.8673 5.35002 61.6128 5.49914 57.2195C5.54471 55.8089 5.81809 54.179 6.37315 52.2844C9.58752 41.3095 14.9724 32.0928 14.9724 32.0928C21.9023 35.0547 21.3183 39.9857 21.3183 39.9857C19.3425 45.2519 14.9724 56.4666 14.9724 56.4666C17.5116 59.5651 27.8133 61.4639 27.8133 61.4639Z"
        fill="#0875F7" />
    <path
        d="M14.9727 56.7024C14.9313 56.7024 14.8857 56.69 14.8484 56.6652C14.0821 56.1936 11.9986 55.7013 11.9779 55.6972C11.8495 55.6682 11.7708 55.54 11.8039 55.4159C11.8329 55.2877 11.9613 55.2132 12.0856 55.2421C12.1601 55.2587 13.6223 55.602 14.5875 56.0157C14.4466 55.7013 14.2147 55.3662 13.8957 55.0022C13.8087 54.9029 13.8212 54.7581 13.9164 54.6713C14.0159 54.5844 14.1608 54.5968 14.2478 54.692C14.8029 55.3207 15.1177 55.8916 15.2047 56.4335C15.2212 56.5245 15.1798 56.6155 15.1053 56.6652C15.0638 56.69 15.0183 56.7024 14.9727 56.7024Z"
        fill="#084FC7" />
    <path
        d="M9.81533 65.1621C7.37556 63.8673 5.35416 61.6127 5.50328 57.2195C7.43355 58.2289 10.8012 60.6778 9.81533 65.1621Z"
        fill="#084FC7" />
    <path
        d="M22.1542 60.3016C22.1335 60.3016 22.1169 60.2974 22.0962 60.2933C17.6391 59.1433 14.9301 56.744 14.8183 56.6405C14.7396 56.5702 14.7189 56.4544 14.7644 56.3592C17.9457 50.1169 19.9546 45.161 21.0938 40.7595C21.1269 40.6354 21.2553 40.5568 21.3796 40.5899C21.5038 40.623 21.5825 40.7512 21.5494 40.8753C20.4103 45.2727 18.4137 50.2079 15.2656 56.4047C15.8663 56.9012 18.4179 58.8579 22.2122 59.8341C22.3364 59.8672 22.4151 59.9955 22.382 60.1196C22.353 60.2313 22.2577 60.3016 22.1542 60.3016Z"
        fill="#084FC7" />
    <path
        d="M20.3708 44.263C20.3211 44.263 20.2672 44.2464 20.2258 44.2133C20.1223 44.1306 20.1057 43.9858 20.1885 43.8824L21.8413 41.8098C21.9241 41.7064 22.0691 41.6899 22.1727 41.7726C22.2762 41.8554 22.2928 42.0001 22.2099 42.1036L20.5572 44.1761C20.5075 44.2299 20.4412 44.263 20.3708 44.263Z"
        fill="#084FC7" />
    <path
        d="M28.077 25.2131L36.0715 26.3549C41.2659 25.8378 42.9186 23.7735 43.7678 19.4134C44.1944 17.2209 43.9127 15.2849 43.4944 13.8453C43.3867 12.2071 43.0097 10.7923 42.2351 9.85743C38.7267 5.63378 35.6366 5.79925 35.6366 5.79925C34.0667 5.07946 28.8806 4.58718 25.4591 8.73636C25.3514 8.82737 23.2638 11.0364 22.7833 15.6696C22.3193 20.0877 25.2727 25.7302 28.077 25.2131Z"
        fill="#39393B" />
    <path
        d="M32.541 6.95761C32.541 6.95761 33.3736 -0.405843 26.8289 0.529068C22.5541 1.13717 19.9072 6.92452 23.8175 9.55137C27.7277 12.1782 32.541 6.95761 32.541 6.95761Z"
        fill="#39393B" />
    <path
        d="M24.475 10.3084C24.4419 10.3084 24.4088 10.3001 24.3756 10.2836C24.2762 10.2298 24.2389 10.1016 24.2928 10.0023C25.8088 7.25134 27.9711 6.03513 29.5161 5.49735C31.1937 4.9182 32.4985 4.98852 32.5524 4.98852C32.6684 4.9968 32.7553 5.09194 32.7471 5.20777C32.7388 5.3236 32.6435 5.41048 32.5275 5.4022C32.4778 5.39807 27.4284 5.16641 24.6573 10.2009C24.6159 10.267 24.5455 10.3084 24.475 10.3084Z"
        fill="#EBB12B" />
    <path
        d="M28.7002 23.5504C28.7002 23.5504 23.6011 20.7002 24.6036 14.7681C25.606 8.83593 29.5162 5.2659 35.51 6.9868C35.5142 6.9868 34.9301 24.1337 28.7002 23.5504Z"
        fill="#39393B" />
    <path
        d="M42.8829 12.6416C42.8829 12.6416 43.4048 17.734 42.4728 18.4703C41.5449 19.2067 40.6336 17.1921 40.6336 17.1921C40.6336 17.1921 41.9011 12.6995 42.8829 12.6416Z"
        fill="#39393B" />
    <path
        d="M40.5339 18.9339C40.5339 18.9339 42.0541 17.6018 42.5595 19.2359C43.0648 20.8699 42.0417 23.8773 40.1487 23.0789L40.5339 18.9339Z"
        fill="#D46A43" />
    <path
        d="M42.4061 22.7065C42.199 22.8968 41.967 23.0622 41.7143 23.1987C40.7575 23.7117 39.5107 23.7737 38.0112 22.9878C38.0112 22.9878 36.0933 20.4974 38.9266 16.1042C38.9266 16.1042 41.5238 15.4216 43.0108 16.9894C43.1765 17.1632 43.3257 17.3617 43.4582 17.5934C43.5411 17.7341 43.6115 17.8871 43.6777 18.0526C44.2038 19.3888 43.715 21.5192 42.4061 22.7065Z"
        fill="#21B573" />
    <path
        d="M42.3411 16.4557C42.4613 15.8683 42.5814 15.1402 42.6601 14.3335C42.6228 14.3501 42.5855 14.3625 42.5441 14.3625C42.3826 14.3749 42.2252 14.3087 42.0678 14.1929C41.9973 14.9458 41.8896 15.6283 41.7819 16.1951L42.3411 16.4557Z"
        fill="white" />
    <path
        d="M42.405 22.7065C42.1979 22.8968 41.9659 23.0623 41.7132 23.1988C43.0263 20.4809 43.0636 17.9989 43.0098 16.9895C43.1754 17.1632 43.3246 17.3618 43.4571 17.5935C43.4571 18.7352 43.2873 20.6133 42.405 22.7065Z"
        fill="#217C58" />
    <path
        d="M36.102 26.2808L35.4765 30.492C35.4765 30.492 32.8959 33.7973 26.9228 28.4071C27.6022 26.6945 28.646 24.4896 28.3768 22.8018C28.3768 22.8018 28.8117 23.203 29.5656 23.6788C29.7188 23.778 29.8845 23.8815 30.0585 23.9849C31.6077 24.9281 33.977 26.1319 36.102 26.2808Z"
        fill="#EA9B7A" />
    <path
        d="M36.1046 26.2805L35.8105 28.2496C34.0666 27.5794 31.0511 26.1274 29.564 23.6743C29.7173 23.7736 29.883 23.877 30.057 23.9804C31.6103 24.9278 33.9797 26.1316 36.1046 26.2805Z"
        fill="#39393B" />
    <path
        d="M41.8292 19.1198C41.7629 19.5542 41.7008 19.9637 41.6345 20.3526C41.154 23.2566 40.7149 24.8203 39.9072 25.4408C35.8188 28.5723 28.6113 23.0373 28.3794 22.8594C28.3752 22.8553 28.3752 22.8553 28.3752 22.8553C28.3504 22.5161 28.3338 22.181 28.3255 21.8542C28.2303 19.0578 28.5741 16.526 29.212 14.164C29.4564 11.6116 31.3162 9.47699 33.8305 8.96403C36.436 8.43452 38.4905 9.8493 39.7622 10.4533C41.68 11.3716 42.5582 14.1557 42.0197 17.854C41.9534 18.2966 41.8913 18.7227 41.8292 19.1198Z"
        fill="#EA9B7A" />
    <path
        d="M38.1776 22.5037C35.8911 22.5037 34.9757 20.3195 34.9674 20.2946C34.926 20.1871 34.9757 20.0671 35.0834 20.0257C35.1911 19.9844 35.3112 20.034 35.3526 20.1416C35.394 20.2367 36.3509 22.5037 38.8445 22.0238C38.9564 22.0031 39.0682 22.0776 39.0889 22.1893C39.1096 22.301 39.0351 22.4085 38.9232 22.4334C38.6581 22.483 38.4096 22.5037 38.1776 22.5037Z"
        fill="#39393B" />
    <path
        d="M36.4163 14.619C37.0045 14.4163 36.8843 13.5517 36.263 13.5103C35.2067 13.44 33.5084 13.469 33.3676 14.3211C33.1605 15.5663 35.1322 15.0492 36.379 14.6314C36.3914 14.6273 36.4039 14.6231 36.4163 14.619Z"
        fill="#39393B" />
    <path
        d="M39.5358 14.9872C39.0802 14.5653 39.54 13.8207 40.124 14.0358C41.1182 14.3998 42.6632 15.1072 42.4478 15.9428C42.1372 17.1673 40.5383 15.8973 39.5648 15.0162C39.5524 15.0038 39.5441 14.9955 39.5358 14.9872Z"
        fill="#39393B" />
    <path
        d="M36.4903 23.5255C36.9087 23.6289 37.2608 23.5503 37.2856 23.542C37.3602 23.5255 37.4057 23.451 37.3892 23.3765C37.3726 23.3021 37.298 23.2566 37.2235 23.2731C37.2152 23.2731 36.5317 23.4262 36.0139 22.9711C35.956 22.9215 35.869 22.9256 35.8193 22.9835C35.7696 23.0415 35.7737 23.1283 35.8317 23.178C36.0429 23.3683 36.2749 23.4717 36.4903 23.5255Z"
        fill="#D46A43" />
    <path
        d="M37.9248 20.6879C37.8875 20.6713 37.8627 20.6382 37.8461 20.601C37.8212 20.5224 37.8627 20.4355 37.9414 20.4107L38.9396 20.0839L38.3473 19.4841C38.3142 19.451 38.2976 19.4055 38.3059 19.36L38.4881 17.7094C38.4964 17.6267 38.571 17.5646 38.658 17.577C38.7408 17.5853 38.8029 17.6598 38.7905 17.7425L38.6124 19.3186L39.3249 20.0384C39.3621 20.0756 39.3787 20.1294 39.3663 20.1791C39.3539 20.2287 39.3166 20.2701 39.2669 20.2866L38.0366 20.692C37.9993 20.7086 37.9621 20.7044 37.9248 20.6879Z"
        fill="#39393B" />
    <path
        d="M35.3391 19.1073C35.2894 19.4507 34.5396 19.6203 33.6697 19.492C32.7999 19.3638 32.133 18.9791 32.1868 18.6357C32.2365 18.2924 32.9863 18.1228 33.8561 18.251C34.726 18.3834 35.3888 18.7681 35.3391 19.1073Z"
        fill="#D46A43" />
    <g opacity="0.8">
        <path
            d="M41.8325 19.5212C41.7662 19.9556 41.7041 20.3651 41.6378 20.754C40.8425 20.6051 40.2585 20.2452 40.3082 19.9266C40.3537 19.5998 41.0248 19.4302 41.8325 19.5212Z"
            fill="#D46A43" />
    </g>
    <path
        d="M36.1896 17.883C36.1192 18.3546 35.85 18.7021 35.5849 18.6648C35.3198 18.6276 35.1665 18.2139 35.2328 17.7423C35.3032 17.2708 35.5724 16.9233 35.8375 16.9605C36.1026 16.9977 36.26 17.4114 36.1896 17.883Z"
        fill="#39393B" />
    <path
        d="M40.8486 18.5737C40.7782 19.0453 40.509 19.3928 40.2439 19.3555C39.9788 19.3183 39.8255 18.9046 39.8918 18.433C39.9622 17.9614 40.2315 17.6139 40.4966 17.6512C40.7617 17.6925 40.9149 18.1062 40.8486 18.5737Z"
        fill="#39393B" />
    <path
        d="M30.2015 21.1799C30.1725 21.2296 29.3399 22.5699 28.3831 22.8595C28.3789 22.8553 28.3789 22.8553 28.3789 22.8553C28.3541 22.5161 28.3375 22.181 28.3251 21.8542C28.3624 21.8501 29.2819 21.8294 30.2015 21.1799Z"
        fill="#39393B" />
    <path
        d="M29.8231 17.7835C29.8231 17.7835 28.3153 14.9788 26.6419 16.7576C25.2625 18.222 26.7537 22.8966 29.2929 21.6473L29.8231 17.7835Z"
        fill="#EA9B7A" />
    <path
        d="M29.0979 20.882C28.9985 20.8654 28.9281 20.7827 28.9322 20.6793C29.0068 18.735 27.5032 17.8332 27.441 17.796C27.3499 17.7422 27.3168 17.6222 27.3706 17.5271C27.4245 17.4319 27.5446 17.403 27.6399 17.4567C27.7103 17.4981 29.4127 18.5116 29.3258 20.6958C29.3216 20.8034 29.2305 20.8861 29.1228 20.882C29.1145 20.882 29.1062 20.882 29.0979 20.882Z"
        fill="#39393B" />
    <path
        d="M27.4705 19.4424C27.4125 19.4342 27.3628 19.4011 27.3297 19.3473C27.2758 19.2563 27.3048 19.1363 27.4001 19.0784C27.4871 19.0288 28.2617 18.582 28.8209 18.8178C28.9203 18.8591 28.9658 18.975 28.9244 19.0743C28.883 19.1735 28.767 19.219 28.6676 19.1777C28.3445 19.0412 27.7729 19.3101 27.5989 19.4135C27.5575 19.4383 27.5119 19.4466 27.4705 19.4424Z"
        fill="#39393B" />
    <path
        d="M34.4872 20.3527C33.0125 19.7901 32.2711 18.1354 32.8344 16.6627C33.3978 15.19 35.0547 14.4495 36.5293 15.0121C38.0039 15.5747 38.7454 17.2294 38.182 18.7021C37.6187 20.1748 35.9618 20.9153 34.4872 20.3527ZM36.3802 15.401C35.1209 14.9211 33.7043 15.554 33.2238 16.8116C32.7433 18.0692 33.3771 19.484 34.6363 19.9638C35.8955 20.4437 37.3122 19.8108 37.7927 18.5532C38.2732 17.2956 37.6394 15.8808 36.3802 15.401Z"
        fill="white" />
    <path
        d="M32.9284 17.0434C32.9035 17.0434 32.8787 17.0352 32.8538 17.0228C31.3046 16.3154 29.8507 16.8531 29.8342 16.8614C29.7265 16.9028 29.6063 16.849 29.5649 16.7415C29.5235 16.6339 29.5773 16.5139 29.685 16.4726C29.7513 16.4477 31.3212 15.8645 33.0278 16.6463C33.1314 16.6959 33.1769 16.8201 33.1314 16.9235C33.0899 17.0021 33.0112 17.0476 32.9284 17.0434Z"
        fill="white" />
    <path
        d="M40.8233 21.0683C39.3487 20.5056 38.6072 18.8509 39.1705 17.3782C39.7339 15.9056 41.3908 15.1651 42.8654 15.7277C44.34 16.2903 45.0815 17.945 44.5181 19.4177C43.9589 20.8904 42.2979 21.6309 40.8233 21.0683ZM42.7204 16.1165C41.4612 15.6367 40.0445 16.2696 39.564 17.5272C39.0835 18.7848 39.7173 20.1995 40.9765 20.6794C42.2358 21.1593 43.6524 20.5263 44.1329 19.2688C44.6134 18.0112 43.9797 16.5964 42.7204 16.1165Z"
        fill="white" />
    <path
        d="M38.0524 17.4901C38.0193 17.4736 37.9944 17.4487 37.9737 17.4156C37.9116 17.3164 37.9406 17.1881 38.04 17.1261C38.069 17.1095 38.7649 16.6834 39.4898 17.2378C39.5809 17.3081 39.5975 17.4405 39.5271 17.5315C39.4566 17.6225 39.3241 17.639 39.233 17.5687C38.7359 17.1881 38.2637 17.4777 38.2595 17.4777C38.1933 17.5232 38.1146 17.5232 38.0524 17.4901Z"
        fill="white" />
    <path
        d="M39.5853 7.88858C41.325 8.67043 42.692 10.1183 43.3009 11.9219C43.682 13.0513 44.0009 14.5446 42.4103 14.3502C38.0693 13.8248 35.7455 9.32404 35.7455 9.32404C35.7455 9.32404 34.9005 13.4691 31.4914 12.9644C28.0824 12.4556 28.1901 9.89078 30.1286 8.43877C31.7068 7.25151 35.7289 6.15113 39.5853 7.88858Z"
        fill="#39393B" />
    <path
        d="M31.6248 12.4845C31.6248 12.4845 29.6863 14.5653 30.3822 16.8033C31.0781 19.0413 31.1236 20.8367 30.3987 22.0405C30.3987 22.0405 30.2123 19.6825 29.3466 17.8954C28.6383 16.4269 27.9755 15.3099 28.4892 13.618C28.8413 12.4597 29.6904 11.3428 31.6248 12.4845Z"
        fill="#39393B" />
    <path
        d="M28.4712 22.6402C26.9676 23.0042 25.8036 22.7932 24.9421 22.2513C24.8054 22.1644 24.677 22.0693 24.5527 21.97C22.7467 20.4601 22.6141 17.3285 23.7201 15.7938C24.1095 15.2519 24.561 14.8878 25.0373 14.6562C25.1823 14.5817 25.3273 14.5238 25.4723 14.4783C27.3404 13.8661 29.366 14.9871 29.366 14.9871C31.4868 20.8034 28.4712 22.6402 28.4712 22.6402Z"
        fill="#21B573" />
    <path
        d="M33.7634 25.1842C29.3685 24.2865 27.5004 21.126 27.4134 20.973C27.343 20.853 27.3844 20.6958 27.5087 20.6255C27.6288 20.5552 27.7862 20.5965 27.8566 20.7206C27.8856 20.7703 30.168 24.6009 35.4949 24.8905C35.6357 24.8988 35.7434 25.0187 35.7351 25.1594C35.7268 25.3 35.6067 25.4076 35.4659 25.3993C34.8611 25.3662 34.2936 25.2918 33.7634 25.1842Z"
        fill="white" />
    <path
        d="M36.8905 25.3333C36.7994 25.7718 36.3686 26.0573 35.9295 25.9663C35.4905 25.8753 35.2047 25.445 35.2958 25.0065C35.3869 24.568 35.8177 24.2826 36.2568 24.3736C36.6959 24.4646 36.9817 24.8907 36.8905 25.3333Z"
        fill="#243434" />
    <path
        d="M24.9399 22.2515C24.8032 22.1646 24.6748 22.0695 24.5505 21.9702C25.9423 18.8263 25.4701 16.0794 25.031 14.6564C25.176 14.5819 25.321 14.524 25.466 14.4785C25.9382 15.9843 26.4477 18.9173 24.9399 22.2515Z"
        fill="#217C58" />
    <path
        d="M42.7863 10.7431C42.4177 10.0523 42.0076 9.59309 41.8046 9.36557C41.6348 8.87329 41.4525 8.40997 41.1792 7.97975C40.2596 6.5236 38.8057 5.63006 36.8505 5.32808C34.7421 5.00127 32.9113 5.41909 31.4118 6.56497C30.9437 6.92074 30.5295 7.33855 30.1567 7.78532C29.6431 8.40997 29.2164 9.10081 28.8685 9.79166C27.6589 12.2075 27.369 14.6896 27.3649 14.7227L26.7891 14.6606C26.8139 14.4248 27.4643 8.84847 31.0556 6.10165C32.6835 4.85649 34.6635 4.40144 36.9375 4.75307C39.0666 5.07987 40.6572 6.06442 41.6679 7.66949C42.2603 8.59613 42.6041 9.65928 42.7863 10.7431Z"
        fill="white" />
    <path
        d="M20.9285 74.4038L18.9237 70.5979C18.4225 69.6506 19.1225 68.513 20.1954 68.5213L51.6887 68.8605L50.7608 73.7336L20.9285 74.4038Z"
        fill="#39393B" />
    <path
        d="M50.2135 73.3324H22.0299C21.3505 73.3324 20.8576 72.7822 20.9363 72.1037L22.8583 54.7127C22.9329 54.0343 23.5459 53.4841 24.2252 53.4841H52.4089C53.0882 53.4841 53.5812 54.0343 53.5025 54.7127L51.5805 72.1037C51.5059 72.7822 50.8929 73.3324 50.2135 73.3324Z"
        fill="#39393B" />
    <path
        d="M21.6117 74.0811C21.6034 74.0811 21.5909 74.0811 21.5827 74.0811C21.4543 74.0646 21.359 73.9446 21.3756 73.8164L23.7159 55.1926C23.7325 55.0644 23.8526 54.9692 23.981 54.9858C24.1094 55.0023 24.2047 55.1223 24.1881 55.2505L21.8478 73.8743C21.8312 73.9942 21.7276 74.0811 21.6117 74.0811Z"
        fill="#564C54" />
    <path
        d="M35.3217 63.7184C35.214 65.1166 36.2454 66.3204 37.6206 66.4073C39 66.4941 40.2054 65.4351 40.3131 64.0369C40.4208 62.6387 39.3894 61.4349 38.0141 61.348C36.6348 61.2611 35.4294 62.3201 35.3217 63.7184Z"
        fill="#585859" />
    <path
        d="M50.3522 74.846H21.7792C21.1495 74.846 20.669 74.2917 20.7519 73.6712L21.0253 71.6814H51.6901L51.3795 73.9483C51.3091 74.4654 50.87 74.846 50.3522 74.846Z"
        fill="#39393B" />
    <path
        d="M29.6427 69.2328L29.4356 70.2256H30.3758L30.2723 71.4046H29.1829L28.9551 72.4843H27.7083L27.9361 71.4046H27.1656L26.9378 72.4843H25.691L25.9188 71.4046H24.9785L25.0821 70.2256H26.1715L26.3786 69.2328H25.4383L25.5419 68.0497H26.6313L26.8591 66.97H28.1059L27.8781 68.0497H28.6485L28.8764 66.97H30.1232L29.8953 68.0497H30.8356L30.7321 69.2287L29.6427 69.2328ZM28.4 69.2328H27.6296L27.4224 70.2256H28.1929L28.4 69.2328Z"
        fill="#EBB12B" />
</svg>